SplineFontDB: 3.2
FontName: KEEE!
FullName: KEEE!
FamilyName: KEEE!
Weight: Regular
Copyright: @kurokky black-tree.net
Version: 
ItalicAngle: 0
UnderlinePosition: 0
UnderlineWidth: 0
Ascent: 819
Descent: 205
InvalidEm: 0
LayerCount: 2
Layer: 0 0 "Back" 1
Layer: 1 0 "Fore" 0
HasVMetrics: 1
XUID: [1021 417 -389133839 4232127]
OS2Version: 0
OS2_WeightWidthSlopeOnly: 0
OS2_UseTypoMetrics: 0
CreationTime: 1643222610
ModificationTime: 1643263835
PfmFamily: 17
TTFWeight: 400
TTFWidth: 5
LineGap: 92
VLineGap: 92
Panose: 2 0 5 9 0 0 0 0 0 0
OS2TypoAscent: 0
OS2TypoAOffset: 1
OS2TypoDescent: 0
OS2TypoDOffset: 1
OS2TypoLinegap: 92
OS2WinAscent: 0
OS2WinAOffset: 1
OS2WinDescent: 0
OS2WinDOffset: 1
HheadAscent: 0
HheadAOffset: 1
HheadDescent: 0
HheadDOffset: 1
OS2Vendor: 'PfEd'
MarkAttachClasses: 1
DEI: 91125
Encoding: Original
UnicodeInterp: none
NameList: AGL For New Fonts
DisplaySize: -48
AntiAlias: 1
FitToEm: 0
WinInfo: 0 39 14
BeginPrivate: 0
EndPrivate
BeginChars: 247 246

StartChar: "+MLAw6jDV 1"
Encoding: 1 12521 0
Width: 721
Flags: W
LayerCount: 2
Fore
SplineSet
530.137 785.791 m 1
 521.60575 783.67967 514.0179 780.81346 509.0569 775.84569 c 1
 357.2479 776.648424 l 2
 343.6493 777.304674 334.159 770.898424 325.2635 761.417924 c 2
 297.0858 710.392524 l 2
 287.38853 698.631824 303.53307 703.413034 310.0311 702.017524 c 2
 540.0371 707.347604 l 1
 570.5156 710.392524 l 2
 583.2011 711.660104 591.8945 725.229424 581.9375 749.994124 c 1
 581.9375 749.994124 570.6484 772.379824 560.6152 778.931624 c 0
 551.90036 784.624004 530.1367 785.787094 530.1367 785.787094 c 1
 530.1367 785.79100025 l 1
 530.137 785.791 l 1
582.699 646.412 m 1
 550.699 635.7499 l 1
 376.287 628.13467 l 1
 287.9472 622.04092 l 1
 259.0077 627.371 l 1
 246.7597 625.20889 236.787 620.3085 234.6229 606.0487 c 2
 216.3456 551.9784 l 2
 212.63857 544.72352 212.36806 539.2772 227.7675 542.07801 c 2
 396.8655 551.9784 l 1
 537.7525 554.26356 l 1
 540.03766 441.53556 l 1
 527.85216 417.92816 l 1
 470.73696 362.33436 l 1
 322.21696 270.17026 l 1
 273.47676 247.32456 l 1
 56.12576 188.24836 133.77376 197.42226 298.60956 226.76206 c 1
 407.52756 248.84796 l 1
 572.03756 325.00226 l 1
 592.06296 341.69266 612.63226 355.09796 629.91646 388.22686 c 1
 655.80906 566.44686 l 1
 655.80906 566.44686 654.07859 615.34626 638.29346 631.17926 c 0
 624.72806 644.78766 582.69966 646.41166 582.69966 646.41166 c 1
 582.69966 646.41166 l 1
 582.699 646.412 l 1
EndSplineSet
Validated: 524837
EndChar

StartChar: "+MLAw6jDV 2"
Encoding: 2 12522 1
Width: 535
Flags: W
LayerCount: 2
Fore
SplineSet
401.371 853.797 m 1
 395.21768 853.689578 389.2802 850.88098 383.7577 842.881 c 1
 383.7577 828.8869 l 1
 384.83387 627.4729 l 1
 386.9784 446.5079 l 1
 375.1425 344.1899 l 1
 193.0995 200.9219 l 1
 31.0165 132.1826 29.5515 125.7041 202.79481 186.9297 c 2
 308.36481 224.627 l 1
 308.36481 224.627 404.62261 274.1465 437.60381 315.1075 c 0
 456.88211 339.0499 473.16041 400.1954 473.16041 400.1954 c 1
 477.45924 713.6384 l 1
 472.08033 790.1111 l 1
 487.03933 791.89626 490.39283 794.907 486.07443 798.72438 c 2
 425.75213 846.11698 l 2
 417.54998 849.61014 409.28143 853.93534 401.36933 853.79667 c 1
 401.370306562 853.79667 l 1
 401.371 853.797 l 1
238.398 726.082 m 2
 233.83257 725.885711 231.79253 723.37692 232.95464 717.93747 c 0
 232.417531 715.78122 227.03472 515.44347 227.03472 515.44347 c 1
 223.25933 480.98447 l 1
 226.29253 449.38587 248.72123 448.81947 269.04843 444.88877 c 0
 291.15003 439.54795 302.57963 450.43076 306.74573 472.35357 c 2
 307.286746 515.44337 l 1
 306.74573 687.23837 l 1
 312.03479 685.76767 312.72913 688.3829 311.58362 692.6329 c 0
 278.22232 711.9913 250.06412 726.585 238.39812 726.0821 c 1
 238.39812 726.0821 l 1
 238.398 726.082 l 2
EndSplineSet
Validated: 524837
EndChar

StartChar: "+MLAw6jDV 3"
Encoding: 3 12478 2
Width: 879
Flags: W
LayerCount: 2
Fore
SplineSet
701.76 842.521 m 1
 682.842 842.084477 654.9963 821.3765 654.9963 821.3765 c 1
 612.6477 725.1509 613.9494 723.314 613.9494 723.314 c 1
 616.31463 682.7281 l 1
 681.47283 733.1402 l 1
 681.47283 733.1402 714.44453 773.2711 718.72873 797.7632 c 0
 721.21701 811.9898 723.55295 833.0718 711.1174 840.4175 c 0
 708.46017 841.98684 705.26388 842.60109 701.75998 842.52102 c 1
 701.75998 842.52102 l 1
 701.76 842.521 l 1
772.334 762.344 m 1
 770.72755 762.37525 769.12502 762.2893125 767.53517 762.076422 c 0
 749.13767 759.612552 726.56837 724.361622 726.56837 724.361622 c 1
 668.89847 652.500322 l 1
 745.57427 686.879222 l 1
 819.53517 705.984722 l 1
 819.53517 705.984722 819.747084 729.642922 813.12306 738.469122 c 0
 803.81251 750.871422 787.86626 762.049222 772.33396 762.344122 c 1
 772.33396 762.344122 l 1
 772.334 762.344 l 1
547.516 706.611 m 2
 546.735727 706.5631484 546.10877 706.331703 545.65467 705.900062 c 0
 540.43983 700.185222 518.88127 715.921562 542.65662 672.157862 c 1
 544.15662 608.405862 l 1
 362.66762 344.448862 l 1
 200.68762 225.960862 l 1
 94.40362 188.004762 31.21862 162.887662 203.68762 207.964762 c 1
 285.16812 244.337762 364.79162 260.296762 448.16362 317.454762 c 1
 589.14662 539.421762 l 1
 642.53332 598.169762 638.10072 605.770362 641.63492 620.419762 c 0
 643.3693 632.556462 563.39472 707.585762 547.51772 706.611162 c 2
 547.516743438 706.611162 l 1
 547.516 706.611 l 2
298.18 653.412 m 1
 282.5101 641.8261 289.74055 605.5809 299.68 566.4159 c 1
 352.1663 504.9296 l 1
 376.1087 514.9853 412.3167 512.77335 404.6702 554.4179 c 1
 377.6624 615.9042 l 1
 349.93 649.4677 323.9417 653.3612 298.18 653.412 c 1
EndSplineSet
Validated: 524837
EndChar

StartChar: "+MLAw6jDV 4"
Encoding: 4 12496 3
Width: 529
Flags: W
LayerCount: 2
Fore
SplineSet
400.771 809.018 m 1
 388.9819 808.9681953 377.4722 806.59612 377.4722 806.59612 c 1
 345.2339 760.17032 l 1
 345.862806 698.88322 l 1
 388.426306 745.18402 l 1
 388.426306 745.18402 434.116706 780.43112 424.904806 800.50822 c 0
 421.789576 807.30021 411.172406 809.06291 400.770006 809.01799 c 1
 400.770982562 809.01799 l 1
 400.771 809.018 l 1
437.967 753.875 m 1
 409.9748 716.3438 l 1
 390.7424 670.5723 l 1
 378.926 614.8516 l 1
 417.9865 650.6328 l 1
 462.7873 690.2148 l 1
 462.7873 690.2148 475.2707 728.4306 465.62128 743.289 c 0
 460.2453 751.56732 437.96698 753.8749 437.96698 753.8749 c 1
 437.96698 753.8749 l 1
 437.967 753.875 l 1
143.379 705.148 m 1
 128.9767 694.6441 l 1
 43.1154 287.6601 l 1
 79.8185 330.2519 l 1
 146.6623 390.5507 l 1
 165.6603 428.5663 l 1
 204.3341 642.8793 l 1
 211.5548 659.9086 l 1
 143.379 705.148 l 1
323.617 682.848 m 1
 264.6307 674.33433 l 1
 256.11703 658.61753 l 1
 319.67753 353.18953 l 1
 482.88453 200.48653 l 1
 408.16383 361.06653 l 1
 330.81813 671.05053 l 1
 323.617 682.848 l 1
EndSplineSet
Validated: 524837
EndChar

StartChar: "+MLAw6jDV 5"
Encoding: 5 12499 4
Width: 463
Flags: W
LayerCount: 2
Fore
SplineSet
282.07 760.883 m 1
 260.0016 672.4533 l 1
 268.24965 634.0803 l 1
 316.49965 696.9475 l 1
 316.49965 696.9475 328.11685 718.5666 324.45082 728.9182 c 0
 318.54262 745.5979 282.06992 760.883 282.06992 760.883 c 1
 282.06992 760.883 l 1
 282.07 760.883 l 1
372.287 713.973 m 1
 365.68934 713.9622578 357.7147 711.55308 357.7147 711.55308 c 1
 352.92368 666.53358 l 1
 331.36318 615.70158 l 1
 382.86908 643.29538 l 1
 382.86908 643.29538 402.35448 668.21138 400.83788 682.50828 c 0
 399.49901 695.12258 389.61228 707.72798 378.07808 713.00728 c 0
 376.5312 713.714311 374.48628 713.977007 372.28706 713.974077 c 2
 372.28706 713.973100438 l 1
 372.287 713.973 l 1
51.0781 711.209 m 1
 51.365209 705.8965 l 1
 55.457009 634.9082 l 1
 39.074209 543.2168 l 1
 26.552709 410.0668 l 1
 103.585909 293.7758 l 1
 239.101909 274.2778 l 1
 372.173909 316.2837 l 1
 386.252009 380.8716 l 1
 413.447309 428.4829 l 1
 408.300829 432.98681 l 1
 319.953129 366.38131 l 1
 167.076129 360.96139 l 1
 137.240229 381.68209 l 1
 110.519529 440.48289 l 1
 113.175779 520.00629 l 1
 114.04492 520.00629 l 1
 244.46092 535.12349 l 1
 332.53322 533.74849 l 1
 377.42582 544.19379 l 1
 373.62504 563.06679 l 1
 324.68554 583.25229 l 1
 219.35754 587.42026 l 1
 116.00154 571.60186 l 1
 132.85894 680.90086 l 1
 51.0781 711.209 l 1
EndSplineSet
Validated: 524837
EndChar

StartChar: "+MLAw6jDV 6"
Encoding: 6 12502 5
Width: 595
Flags: W
LayerCount: 2
Fore
SplineSet
468.682 775.008 m 2
 468.089227 775.0304609 467.48864 775.00604688 466.87927 774.929875 c 0
 454.44957 773.376165 445.33237 744.138875 445.33237 744.138875 c 1
 428.39687 704.882975 l 1
 414.54337 674.093875 l 1
 415.308995 647.923975 l 1
 466.879295 684.869275 l 1
 495.359795 723.355575 l 1
 495.359795 723.355575 494.688897 746.186675 489.201595 755.685675 c 0
 484.595145 763.661265 477.574595 774.667075 468.682095 775.007975 c 1
 468.682095 775.007975 l 1
 468.682 775.008 l 2
521.039 723.213 m 2
 515.69623 723.1856562 511.76947 722.783312 511.76947 722.783312 c 1
 512.539001 688.144612 l 1
 488.677701 647.349712 l 1
 462.505801 617.330212 l 1
 512.539001 624.257942 l 1
 551.794901 668.902442 l 1
 551.794901 668.902442 558.723611 704.854542 547.947241 716.625142 c 0
 542.784151 722.264792 529.944341 723.258932 521.039041 723.213032 c 1
 521.039041 723.213032 l 1
 521.039 723.213 l 2
370.707 642.406 m 1
 237.9 639.14038 l 1
 154.0816 633.69702 l 1
 84.4136 634.78491 l 1
 18.0113 559.67361 l 1
 69.1734 553.14236 l 1
 172.5864 561.85134 l 1
 338.0484 552.05446 l 1
 331.51715 497.62676 l 1
 285.79835 411.63066 l 1
 221.57085 356.11306 l 1
 97.47485 276.64826 l 1
 56.10965 263.58576 l 1
 138.84015 252.69906 l 1
 281.44315 311.48226 l 1
 391.38715 422.51526 l 1
 425.13325 519.39806 l 1
 428.39887 606.48206 l 1
 444.72697 616.27894 l 1
 370.707 642.406 l 1
EndSplineSet
Validated: 524837
EndChar

StartChar: "+MLAw6jDV 7"
Encoding: 7 12505 6
Width: 780
Flags: W
LayerCount: 2
Fore
SplineSet
500.967 733.062 m 1
 490.2365 733.302234 474.4045 727.96825 474.4045 727.96825 c 1
 460.549 669.47115 l 1
 437.4572 604.81295 l 1
 432.83806 587.87935 l 1
 508.27166 644.83835 l 1
 525.20526 718.73285 l 1
 525.20526 718.73285 513.09686 730.75145 505.19356 732.58835 c 0
 503.92989 732.881319 502.5002 733.027803 500.967 733.062959 c 1
 500.967 733.061982438 l 1
 500.967 733.062 l 1
402.893 727.1 m 1
 399.86468 727.0873047 397.71527 726.937891 397.71527 726.937891 c 1
 388.81097 673.531691 l 1
 379.22503 637.322691 l 1
 375.72308 612.724991 l 1
 445.44768 696.107791 l 1
 445.44768 696.107791 430.99358 718.898791 419.50818 724.705491 c 0
 415.43591 726.765061 407.94178 727.121511 402.89298 727.100021 c 1
 402.89298 727.100021 l 1
 402.893 727.1 l 1
281.512 659.068 m 1
 225.1233 619.7653 l 1
 133.7659 508.2053 l 1
 86.0491 455.6955 l 1
 85.744412 453.20527 l 1
 77.955352 387.13687 l 1
 138.377252 414.42207 l 1
 206.416352 447.66227 l 1
 276.076552 543.64667 l 1
 294.779652 556.45717 l 1
 504.734652 385.80817 l 1
 600.015852 331.78667 l 1
 690.043152 345.80227 l 1
 281.512 659.068 l 1
EndSplineSet
Validated: 524805
EndChar

StartChar: "+MLAw6jDV 8"
Encoding: 8 12508 7
Width: 624
Flags: W
LayerCount: 2
Fore
SplineSet
425.262 765.062 m 1
 399.6018 698.0268 l 1
 397.02953 658.1479 l 1
 467.94163 722.1186 l 1
 467.94163 722.1186 475.07347 743.2592 469.52561 751.2456 c 0
 460.71018 763.939 425.28441 765.062 425.26191 765.062 c 1
 425.26191 765.062 l 1
 425.262 765.062 l 1
248.639 756.059 m 1
 249.599938 747.54142 l 1
 256.439778 687.72302 l 1
 265.719078 626.27772 l 1
 213.178078 623.8578 l 1
 121.088278 611.4301 l 1
 74.576578 544.6332 l 1
 145.029678 524.4691 l 1
 263.533678 540.9086 l 1
 263.08153 530.0024 262.600084 518.977 262.260238 510.5844 c 0
 261.83641 499.9262 261.496566 493.0346 261.496566 490.6215 c 2
 261.496566 378.2465 l 1
 253.303206 277.5895 l 1
 231.480006 262.3493 l 1
 283.763206 218.7692 l 1
 335.273006 260.3688 l 1
 330.023006 398.3458 l 1
 339.942926 548.6658 l 1
 408.296426 555.3201 l 1
 471.265226 546.29471 l 1
 516.507426 606.45291 l 1
 459.939026 642.66971 l 1
 402.405826 642.66971 l 1
 356.196826 630.63261 l 1
 341.165626 629.939251 l 1
 340.259376 687.269351 l 1
 334.571876 747.868951 l 1
 248.639 756.059 l 1
528.65 737.008 m 1
 521.06113 736.838078 509.3355 724.9357 509.3355 724.9357 c 1
 465.8824 662.1681 l 1
 528.65 669.41029 l 1
 528.65 669.41029 566.7457 698.52359 562.4488 717.69349 c 0
 559.61286 730.35559 541.6246 737.26379 528.65 737.00799 c 1
 528.65 737.00799 l 1
 528.65 737.008 l 1
85.3848 456.248 m 1
 84.05472 447.22456 l 1
 77.2637 401.33976 l 1
 61.2149 328.00966 l 1
 107.6075 279.36316 l 1
 129.754 347.78506 l 1
 158.0294 396.02336 l 1
 175.7579 416.32416 l 1
 85.3848 456.248 l 1
450.854 444.787 m 1
 448.67627 444.533094 l 1
 408.22507 440.316294 l 1
 430.11957 354.675694 l 1
 421.09613 334.712794 l 1
 446.94963 292.925694 l 1
 521.87343 283.072174 l 1
 529.94765 339.775274 l 1
 488.78745 423.925674 l 1
 450.854 444.787 l 1
EndSplineSet
Validated: 524837
EndChar

StartChar: "+MLAw6jDV 9"
Encoding: 9 12480 8
Width: 566
Flags: W
LayerCount: 2
Fore
SplineSet
406.197 824.842 m 2
 403.10423 824.8791094 400.0593 824.734578 397.27122 824.549031 c 0
 391.47825 824.162312 381.18532 817.875201 381.18532 817.875201 c 1
 381.505632 778.594001 l 1
 381.728288 714.051001 l 1
 420.687288 766.474801 l 1
 420.687288 766.474801 438.646288 801.776601 429.671668 815.922101 c 0
 425.180458 823.000221 415.474368 824.731671 406.197068 824.842021 c 1
 406.197068 824.842021 l 1
 406.197 824.842 l 2
464.918 766.576 m 1
 457.00687 766.6052969 445.4492 763.52912 445.4492 763.52912 c 1
 442.62498 728.23222 l 1
 428.50588 691.52132 l 1
 486.39458 715.52522 l 1
 486.39458 715.52522 498.36138 743.34162 492.04302 755.05842 c 0
 487.84673 762.84162 476.77442 764.96662 468.04102 766.35532 c 0
 467.104497 766.503758 466.04786 766.572117 464.91797 766.576023 c 1
 464.91797 766.576023 l 1
 464.918 766.576 l 1
379.068 708.322 m 1
 379.052375 708.2966094 l 1
 369.859015 708.2223906 360.660775 705.1218094 352.491875 697.7126094 c 2
 352.337578 697.5426874 l 1
 352.005547 697.2126094 l 1
 320.757547 665.9060094 l 1
 277.155947 666.1931184 l 1
 275.472357 669.0114784 l 1
 274.884466 669.4978064 l 2
 273.462586 670.6833564 267.105166 675.5896064 260.532866 680.7009064 c 0
 253.959626 685.8122364 247.589466 690.7536064 247.589466 690.7536064 c 1
 247.060169 691.1872004 l 1
 246.396107 691.4157164 l 2
 241.401967 693.2291964 237.244737 693.7594664 233.569907 692.7106364 c 0
 229.894127 691.6608364 227.314047 688.9127864 225.860927 686.1383664 c 0
 222.953697 680.5875864 222.582607 674.3795664 221.130457 671.0231664 c 2
 221.130457 670.9216044 l 1
 168.626557 531.7756044 l 1
 144.982957 491.2365044 l 2
 137.605027 483.7736144 132.074757 477.8469044 128.677257 473.5627044 c 0
 126.920417 471.3478644 125.680187 469.5949344 124.823737 467.8107544 c 0
 124.396003 466.9171994 123.971198 466.0422044 123.88819 464.7052844 c 0
 123.8071353 463.3703244 124.500495 461.0968844 126.07569 459.9728644 c 0
 127.64698 458.8488444 129.08936 458.9054844 130.14405 458.9943484 c 0
 131.19776 459.0754031 132.05714 459.3185674 133.021 459.6427864 c 0
 134.94873 460.2912244 137.16846 461.2873164 139.82178 462.6916164 c 0
 145.12744 465.5021664 152.23198 469.9338064 161.33548 475.9084164 c 2
 161.563996 476.0099784 l 1
 201.513196 508.0216784 l 1
 203.202646 505.8595684 205.408706 503.0285184 205.696786 502.6447284 c 1
 205.401864 503.0421894 205.917489 502.2765644 206.403817 501.5080084 c 0
 206.889169 500.7433604 207.523937 499.7003884 208.358897 498.3595684 c 0
 210.025887 495.6798784 212.373547 491.9171884 215.104987 487.4865684 c 0
 220.563967 478.6271884 227.693887 466.9553684 234.935087 455.1447684 c 0
 248.707587 432.6789684 261.644087 411.6232684 264.675287 406.6681684 c 1
 162.486287 264.8611684 l 1
 70.695287 180.9939684 l 1
 53.074187 171.3386984 41.003887 164.4168684 34.269487 160.1267684 c 0
 30.863237 157.9558684 29.055617 156.9949284 27.308547 154.8494284 c 0
 27.087844 154.5691554 26.905227 154.2966944 26.662063 153.8142684 c 0
 26.551711 153.5642684 26.388625 153.2625104 26.28511 152.8943464 c 0
 26.174758 152.5261824 26.117141 151.5701264 26.117141 151.5427864 c 1
 26.118117562 151.5427864 26.493118 149.7664164 26.507766 149.7439564 c 2
 26.507766 149.7439564 27.563426 148.2400464 27.585886 148.2205164 c 2
 27.585886 148.2205164 28.463816 147.5711024 28.835886 147.4002044 c 0
 29.211863 147.2302824 29.528269 147.1570404 29.814402 147.0837984 c 0
 32.072212 146.5759864 32.611282 147.084774962 33.783152 147.3572364 c 0
 38.469672 148.5310664 47.042952 151.9128964 60.474552 157.6248364 c 0
 73.906152 163.3357764 91.839752 171.3377364 113.898352 181.3240364 c 2
 114.544836 181.6111454 l 1
 249.995836 303.2421454 l 1
 364.737836 420.3141454 l 1
 407.132336 495.2223454 l 1
 428.271036 620.7633454 l 1
 435.426306 625.8297554 442.033736 631.5533454 445.226136 639.7321454 c 0
 448.754456 648.7760954 448.405826 659.8630454 442.995666 673.2243454 c 2
 442.562072 674.2458254 l 1
 414.519072 697.5700254 l 1
 414.071806 697.7829164 l 2
 403.840406 702.9899464 393.476106 707.2848664 382.993706 708.1677164 c 0
 381.683156 708.2780684 380.381406 708.3366614 379.067926 708.3220134 c 1
 379.067926 708.3220134 l 1
 379.068 708.322 l 1
274.449 607.158 m 1
 326.4646 607.158 l 1
 317.4314 492.359 l 1
 305.8123 472.4137 l 1
 243.9471 536.7653 l 1
 230.5877 539.32585 l 1
 274.449 607.158 l 1
EndSplineSet
Validated: 524837
EndChar

StartChar: "+MLAw6jDV 10"
Encoding: 10 12482 9
Width: 537
Flags: W
LayerCount: 2
Fore
SplineSet
401.84 761.152 m 1
 396.13883 761.1930156 383.2853 751.15395 383.2853 751.15395 c 1
 376.51382 718.83365 l 1
 369.74038 652.84535 l 1
 415.79698 698.63445 l 1
 434.76178 743.07585 l 1
 434.76178 743.07585 414.21198 759.49965 402.36918 761.11685 c 0
 402.201211 761.1393109 402.023477 761.1500531 401.839883 761.1520062 c 1
 401.839883 761.1520062 l 1
 401.839883 761.1520062 l 1
 401.84 761.152 l 1
275.516 754.764 m 1
 238.0785 698.0765 l 1
 145.0883 609.6937 l 1
 121.8617 597.764 l 1
 124.04334 590.11361 l 1
 208.62144 596.67416 l 1
 228.80504 561.46126 l 1
 220.06285 540.24446 l 1
 97.98985 545.57063 l 1
 51.00745 528.63113 l 1
 21.92345 481.64873 l 1
 65.44685 475.24639 l 1
 131.63825 479.32256 l 1
 218.87265 474.16826 l 1
 219.96445 451.76206 l 1
 192.56015 391.80116 l 1
 157.03285 302.94376 l 1
 116.70865 239.07856 l 1
 71.14615 205.76216 l 1
 74.93521 198.65669 l 1
 145.41961 224.48089 l 1
 200.97231 263.33829 l 1
 237.00351 350.68789 l 1
 278.17341 429.45349 l 1
 284.41755 472.86369 l 1
 349.68905 477.95939 l 1
 420.32965 477.95939 l 1
 425.09527 507.52969 l 1
 401.92727 535.75239 l 1
 367.04447 542.85786 l 1
 300.26517 541.55122 l 1
 281.97517 571.49462 l 1
 275.45955 595.48292 l 1
 261.89315 628.19772 l 1
 300.14995 663.41062 l 1
 325.60115 728.40862 l 1
 322.34334 730.14495 l 1
 275.516 754.764 l 1
459.949 732.246 m 1
 451.56326 732.2313516 438.697 725.28311 438.697 725.28311 c 1
 443.77317 678.17961 l 1
 416.69897 600.79291 l 1
 486.07787 646.21281 l 1
 486.07787 646.21281 502.81327 685.20211 496.23217 703.41401 c 0
 491.21264 717.30461 476.82597 728.89941 462.38837 732.01361 c 0
 461.63544 732.175719 460.8161 732.247985 459.94892 732.246032 c 1
 459.94892 732.246032 l 1
 459.949 732.246 l 1
EndSplineSet
Validated: 524837
EndChar

StartChar: "+MLAw6jDV 11"
Encoding: 11 12485 10
Width: 645
Flags: W
LayerCount: 2
Fore
SplineSet
504.1 834.223 m 2
 503.01113 834.2532734 501.92324 834.2493672 500.83633 834.2151875 c 2
 500.83437688 834.2151875 l 2
 492.14492688 833.9300315 483.64007688 831.5296375 476.87347688 826.1019075 c 0
 468.66058688 819.5140175 465.68207688 807.1244075 463.79337688 796.3519075 c 0
 461.99552688 786.0931075 461.70353688 777.3119075 461.67814688 776.4749075 c 2
 450.98674688 696.7054075 l 1
 458.59612688 693.7581375 l 1
 500.28952688 753.8772375 l 1
 549.06882688 803.6760375 l 1
 547.43015688 806.4436175 l 1
 547.43015688 806.4436175 544.68699688 811.0969375 540.76413688 816.2248675 c 0
 536.84225688 821.3537775 532.06393688 827.1457675 525.89693688 829.6369675 c 0
 519.33541688 832.2883375 511.72213688 834.0227075 504.10003688 834.2229075 c 1
 504.10003688 834.2229075 l 1
 504.1 834.223 l 2
578.264 775.941 m 1
 572.18588 775.925375 565.7708 774.73006 559.8382 773.19491 c 0
 547.973 770.12362 537.9144 765.56991 537.9144 765.56991 c 1
 536.91049 765.118738 l 1
 536.25424 764.233972 l 2
 510.06774 728.603072 497.18194 710.342372 490.79524 700.925372 c 0
 487.60188 696.216392 486.04036 693.734942 485.20735 692.296462 c 0
 484.791334 691.576735 484.55403 691.134352 484.351881 690.657792 c 0
 484.251295 690.418534 484.154615 690.184159 484.056959 689.735917 c 0
 484.0344981 689.622636 484.0227793 689.416581 484.0042246 689.263261 c 1
 483.9905527 689.3433391 l 1
 478.7346927 648.3589391 l 1
 551.5940927 681.9097391 l 1
 595.6936927 729.5464391 l 1
 595.9827547 730.4312051 l 1
 595.9827547 730.4312051 598.3216247 737.7095251 599.5022847 746.1480051 c 0
 600.0931047 750.3667551 600.4202537 754.9067951 599.9378317 759.2144051 c 0
 599.4563867 763.5210451 598.1888117 767.8423351 594.7776717 770.8843051 c 0
 590.3323617 774.8491451 584.3450717 775.9575451 578.2659717 775.9409451 c 2
 578.26401858 775.9409451 l 1
 578.264 775.941 l 1
375.377 676.324 m 1
 375.377 671.25173 l 1
 375.377 600.79273 l 1
 354.8614 436.31073 l 1
 313.6387 399.21503 l 1
 176.3807 333.82633 l 1
 43.3617 291.45333 l 1
 23.8285 273.89083 l 1
 111.9613 262.79123 l 1
 317.5193 323.95723 l 1
 395.115 372.15063 l 1
 419.074 447.01193 l 1
 430.1873 508.16423 l 1
 443.9783 621.97823 l 1
 456.3201 656.73603 l 1
 375.377 676.324 l 1
295.924 646.158 m 1
 252.9924 639.95292 l 1
 253.265838 636.28886 l 1
 257.447478 566.80056 l 1
 281.777578 536.32006 l 1
 312.927978 526.97045 l 1
 334.154578 563.75165 l 1
 343.297158 609.47235 l 1
 343.297158 637.36885 l 1
 295.924 646.158 l 1
184.393 609.008 m 1
 126.3285 603.58222 l 1
 126.2601406 599.97284 l 1
 125.5355316 544.95914 l 1
 144.2328316 512.04504 l 1
 183.0785316 504.34973 l 1
 193.8754316 520.00013 l 1
 210.4555316 569.69743 l 1
 220.5844316 585.66223 l 1
 184.393 609.008 l 1
EndSplineSet
Validated: 524805
EndChar

StartChar: "+MLAw6jDV 12"
Encoding: 12 12487 11
Width: 574
Flags: W
LayerCount: 2
Fore
SplineSet
452.711 817.471 m 1
 449.06061 817.4524453 445.58307 816.657523 442.586 814.79912 c 0
 427.3174 805.33037 426.6055 763.32252 426.6055 763.32252 c 1
 431.70511 703.15262 l 1
 465.95311 754.87142 l 1
 491.06441 783.68192 l 1
 491.06441 783.68192 484.20699 803.80592 476.00581 809.42212 c 0
 469.60542 813.80591 460.74121 817.51392 452.71091 817.47095 c 1
 452.71091 817.47095 l 1
 452.711 817.471 l 1
373.299 786.34 m 1
 342.4045 776.89469 l 1
 287.0002 775.945471 l 1
 213.9611 768.498201 l 1
 179.5724 769.070467 l 1
 177.0431 764.166167 l 1
 159.674 730.992367 l 1
 144.3029 704.695467 l 1
 193.9377 699.734527 l 1
 247.4416 705.281407 l 1
 345.9396 710.716957 l 1
 401.9728 709.082187 l 1
 418.504 735.281387 l 1
 411.43369 773.834087 l 1
 373.299 786.34 l 1
523.992 780.076 m 1
 515.49395 779.804516 506.4275 772.45491 499.6326 766.8709 c 0
 485.5398 755.2898 469.7107 721.0564 469.7107 721.0564 c 1
 446.1638 670.5193 l 1
 473.24 676.46461 l 1
 541.5212 749.29661 l 1
 541.5212 749.29661 539.54464 774.82301 529.7497 779.02321 c 0
 527.88349 779.823015 525.95282 780.13844 523.99189 780.07594 c 1
 523.99189 780.07594 l 1
 523.992 780.076 l 1
233.971 643.965 m 1
 158.387 636.88102 l 1
 121.7366 630.70329 l 1
 107.846 608.62709 l 1
 107.480766 607.20131 l 1
 96.918266 562.89081 l 1
 186.222966 562.318544 l 1
 243.736666 560.097844 l 1
 251.812836 518.429844 l 1
 258.478856 474.384944 l 1
 234.765956 400.437644 l 1
 158.080456 313.033344 l 1
 89.889056 267.242344 l 1
 69.724956 245.177844 l 1
 28.740556 236.404404 l 1
 28.154618 236.295029 l 1
 31.326498 218.703229 l 1
 31.900717 218.810651 l 1
 156.445717 237.033351 l 1
 256.201617 322.423951 l 1
 293.175217 388.127051 l 1
 331.825617 487.785251 l 1
 333.630307 558.869251 l 1
 371.078507 561.298941 l 1
 437.240607 562.347771 l 1
 470.513107 595.632971 l 1
 459.053107 632.859571 l 1
 400.226907 633.974801 l 1
 347.461307 639.941601 l 1
 233.971 643.965 l 1
EndSplineSet
Validated: 524805
EndChar

StartChar: "+MLAw6jDV 13"
Encoding: 13 12489 12
Width: 420
Flags: W
LayerCount: 2
Fore
SplineSet
148.535 817.836 m 1
 147.43344 817.566469 l 2
 121.64144 811.353579 94.33184 808.872129 68.36314 795.210969 c 2
 64.77916 793.314489 l 1
 68.94908 784.361369 l 1
 68.948103438 784.361369 68.950056562 784.362345562 68.94908 784.2812909 c 0
 68.8680253 783.3555099 68.8690019 782.1465209 68.841658 780.4883209 c 0
 68.841658 777.1728909 68.83970488 772.1777709 68.9217361 765.7207209 c 0
 69.0291581 752.8076209 69.2508381 733.9961209 69.4510331 710.8594209 c 0
 69.8660721 664.5860209 70.1365801 601.2044209 68.7654861 534.3004209 c 0
 65.5096261 375.3244209 55.8533861 197.3414209 55.8533861 197.3414209 c 1
 55.2108081 185.3219209 l 1
 63.2850281 194.2320809 l 2
 91.5672281 225.3443809 107.8836281 268.5679809 118.0487281 290.4683809 c 0
 140.3553281 338.5269809 141.8651281 396.7853809 141.8651281 396.7853809 c 1
 145.6600481 543.5703809 l 1
 301.2460481 434.4083809 l 1
 322.8046481 442.9572109 l 1
 339.9843481 507.6760109 l 1
 322.9159481 527.1721109 l 1
 181.0229481 604.6506109 l 1
 165.7397481 605.6545209 l 1
 146.3979481 591.2639209 l 1
 151.2514681 801.2499209 l 2
 151.8364291 802.8387909 153.1264681 804.7948409 154.2495181 807.3573409 c 0
 154.8422911 808.7176909 155.6049881 810.5682809 154.8335021 812.9491409 c 0
 154.0610411 815.3290209 151.8178821 816.8514809 149.7729521 817.4823409 c 2
 149.6909209 817.4823409 l 1
 148.535 817.836 l 1
250.828 786.68 m 1
 244.24402 786.7796094 237.6473 785.33332 232.4374 782.41633 c 0
 211.5175 770.70633 200.9354 717.75813 200.9354 717.75813 c 1
 235.3573 628.65263 l 1
 250.7694 675.47103 l 1
 277.3182 739.05893 l 1
 277.3182 739.05893 282.56039 769.15753 273.18734 778.45933 c 0
 267.73812 783.86656 259.29374 786.5521 250.82794 786.68003 c 1
 250.82794 786.68003 l 1
 250.828 786.68 l 1
73.3398 784.842 m 1
 73.235308 784.512898 73.176714 783.03145 73.148394 780.74239 c 0
 73.148394 780.7345775 72.931597 780.6603588 72.931597 780.6603588 c 1
 72.93550325 780.6603588 70.668897 781.5998118 70.673787 781.5939528 c 0
 70.67866981 781.59102311 69.828084 782.5109448 69.835896 782.5021558 c 0
 69.84175538 782.5021558 69.593708 782.9455148 69.515584 783.0744218 c 1
 73.3398 784.842 l 1
334.986 739.291 m 2
 333.20768 739.3173672 331.47623 739.126938 329.86295 738.699203 c 0
 304.19305 731.900373 280.70475 676.011703 280.70475 676.011703 c 1
 278.93131 595.480503 l 1
 341.89611 671.511703 l 1
 341.89611 671.511703 363.62561 711.324203 354.58951 728.595703 c 0
 351.23502 735.005863 342.68911 739.175803 334.98601 739.291003 c 1
 334.98601 739.291003 l 1
 334.986 739.291 l 2
EndSplineSet
Validated: 524837
EndChar

StartChar: "+MLAw6jDV 14"
Encoding: 14 12497 13
Width: 678
Flags: W
LayerCount: 2
Fore
SplineSet
371.422 766.793 m 1
 371.136844 761.83402 l 1
 362.490364 624.20302 l 1
 352.679814 485.24402 l 1
 385.138814 439.17952 l 1
 474.922014 377.16582 l 1
 523.316514 330.76352 l 1
 642.712514 333.38852 l 1
 511.337514 424.01152 l 1
 434.761314 512.61312 l 1
 411.345314 638.02912 l 1
 422.058214 711.98032 l 1
 427.958604 749.17562 l 1
 371.422 766.793 l 1
508.957 765.045 m 1
 497.2841 765.0303516 485.1269 763.79305 485.1269 763.79305 c 1
 470.5781 743.84575 l 1
 460.87107 716.63875 l 1
 463.02146 688.08795 l 1
 482.97066 672.99415 l 1
 501.01556 668.13868 l 1
 541.98826 683.76568 l 1
 560.29876 711.25198 l 1
 572.16206 727.96878 l 1
 572.16206 727.96878 561.70596 746.08398 553.57226 752.21098 c 0
 544.93652 758.71586 534.01466 762.10453 523.38476 764.07818 c 1
 523.38671312 764.08013312 l 1
 519.46874312 764.80767212 514.26269312 765.05181312 508.95701312 765.04497712 c 1
 508.95701312 765.04497712 l 1
 508.957 765.045 l 1
507.23 738.732 m 1
 523.1196 737.917547 l 1
 523.1196 737.917547 530.63327 732.195867 531.20456 727.958567 c 0
 532.39401 719.107977 527.03366 709.435167 520.41846 703.437067 c 0
 516.9917 700.328667 507.22996 699.112847 507.22996 699.112847 c 1
 492.13426 708.821827 l 1
 498.33153 727.148027 l 1
 507.23 738.732 l 1
235.473 701.945 m 1
 200.6664 675.947 l 1
 200.842181 673.83762 l 1
 206.197651 597.82202 l 1
 214.726951 546.07792 l 1
 197.051151 487.57592 l 1
 116.519951 430.25362 l 1
 25.291451 387.59742 l 1
 109.658651 374.93722 l 1
 183.166451 420.04272 l 1
 257.603951 471.02122 l 1
 272.225051 512.33372 l 1
 281.875441 649.13872 l 1
 302.945741 671.99422 l 1
 235.473 701.945 l 1
EndSplineSet
Validated: 524805
EndChar

StartChar: "+MLAw6jDV 15"
Encoding: 15 12500 14
Width: 610
Flags: W
LayerCount: 2
Fore
SplineSet
408.402 811.881 m 1
 405.84829 811.9112734 403.30532 811.776508 400.79458 811.464984 c 0
 378.90298 808.756004 345.15588 775.640784 345.15588 775.640784 c 1
 350.09729 727.629084 l 1
 401.54649 684.560684 l 1
 442.71249 692.572404 l 1
 455.66759 711.621204 l 1
 478.53669 754.689604 l 1
 478.53669 754.689604 469.15876 782.913204 458.33749 792.033404 c 0
 444.79259 803.450404 426.27889 811.671104 408.40199 811.881104 c 1
 408.40199 811.881104 l 1
 408.402 811.881 l 1
415.678 770.436 m 1
 418.87136 770.4711562 422.04519 770.08932 424.03347 768.7778 c 0
 428.92312 765.55319 431.27956 752.768 431.27956 752.768 c 1
 431.27956 752.768 425.87038 738.4155 420.22686 733.7211 c 0
 414.41827 728.89005 398.87726 726.10587 398.87726 726.10587 c 1
 389.36164 746.30707 l 1
 404.98664 769.16447 l 1
 404.98664 769.16447 410.35676 770.37834 415.67804 770.43595 c 1
 415.67804 770.43595 l 1
 415.678 770.436 l 1
38.5703 763.096 m 1
 41.85936 755.34991 l 1
 71.75196 685.19171 l 1
 83.40816 607.50811 l 1
 86.03511 419.03311 l 1
 130.75781 397.32801 l 1
 279.58781 305.15611 l 1
 386.10181 353.04871 l 1
 561.43181 515.33571 l 1
 557.69743 520.5154 l 1
 281.09243 373.7934 l 1
 168.23643 430.2299 l 1
 137.11923 462.6313 l 1
 156.01963 572.4353 l 1
 206.03723 583.7087 l 1
 390.61723 615.8298 l 1
 350.36723 689.1013 l 1
 251.32033 639.5251 l 1
 166.27343 620.0642 l 1
 193.88083 690.3259 l 1
 38.5703 763.096 l 1
EndSplineSet
Validated: 524805
EndChar

StartChar: "+MLAw6jDV 16"
Encoding: 16 12503 15
Width: 648
Flags: W
LayerCount: 2
Fore
SplineSet
483.895 809.006 m 1
 473.4292 808.9288516 463.6841 806.91225 456.7778 799.92983 c 0
 443.3647 786.36733 451.07663 742.99033 451.07663 742.99033 c 1
 475.48483 714.51963 l 1
 507.21533 708.01572 l 1
 539.74653 708.836032 l 1
 562.51803 730.802832 l 1
 586.12153 762.517632 l 1
 586.12153 762.517632 579.7602 784.258832 571.47703 790.988332 c 0
 556.41253 803.226632 534.68993 804.918032 515.34033 806.449232 c 0
 505.55029 807.223646 494.36183 809.084002 483.89603 809.005872 c 2
 483.895053438 809.005872 l 1
 483.895 809.006 l 1
516.16 779.6 m 1
 516.16195312 779.6 l 2
 522.95883312 779.385156 534.86705312 771.46133 534.86705312 771.46133 c 1
 534.86705312 751.13123 l 1
 507.21475312 742.99061 l 1
 497.45303312 746.25038 l 1
 495.83194312 772.27968 l 1
 495.83194312 772.27968 508.96084312 779.83241 516.16004312 779.59999 c 1
 516.16004312 779.59999 l 1
 516.16004312 779.59999 l 1
 516.16 779.6 l 1
409.484 720.656 m 1
 237.781 702.1384 l 1
 131.49 688.281 l 1
 69.7009 666.8513 l 1
 68.929416 665.36888 l 1
 33.876716 592.63448 l 1
 119.224416 595.20089 l 1
 241.232416 631.97039 l 1
 374.007416 638.64617 l 1
 353.946916 478.42217 l 1
 313.130516 399.02767 l 1
 247.419616 326.48077 l 1
 124.107616 278.58037 l 1
 57.451416 255.60577 l 1
 59.701416 247.85772 l 1
 60.064697 247.990532 l 1
 318.833697 310.301032 l 1
 398.290697 417.853032 l 1
 465.419597 610.027032 l 1
 465.419597 684.177432 l 1
 409.484 720.656 l 1
EndSplineSet
Validated: 524837
EndChar

StartChar: "+MLAw6jDV 17"
Encoding: 17 12506 16
Width: 660
Flags: W
LayerCount: 2
Fore
SplineSet
441.691 747.074 m 2
 430.357 747.183375 419.3482 745.35037 409.3805 740.5408 c 0
 393.5787 732.91678 379.193 697.4275 379.193 697.4275 c 1
 385.66956 645.6834 l 1
 441.70866 619.8182 l 1
 460.03286 606.8787 l 1
 485.91376 629.5115 l 1
 512.85516 653.2224 l 1
 535.48796 708.199 l 1
 535.48796 708.199 512.32876 729.992 497.76136 735.156 c 0
 480.37366 741.31811 460.58066 746.8914 441.69106 747.074 c 1
 441.69106 747.074 l 1
 441.691 747.074 l 2
458.596 708.654 m 1
 459.81768 708.6149375 461.02471 708.467477 462.20342 708.198922 c 0
 467.90166 706.898142 474.05112 695.273122 474.05112 695.273122 c 1
 452.49452 668.316122 l 1
 427.70742 665.085652 l 1
 427.70742 665.085652 428.032615 689.030952 435.24648 697.427452 c 0
 440.76503 703.849332 450.04338 708.926452 458.59608 708.654052 c 1
 458.59608 708.654052 l 1
 458.596 708.654 l 1
259.908 675.109 m 1
 190.5896 658.9957 l 1
 101.3103 469.6797 l 1
 72.1384 386.1387 l 1
 74.2634 384.45706 l 1
 134.9333 336.90436 l 1
 179.9372 478.93136 l 1
 232.4626 576.69696 l 1
 246.9665 564.58176 l 1
 425.1895 363.55076 l 1
 502.6504 281.47066 l 1
 575.8633 284.86324 l 1
 524.0606 381.94914 l 1
 340.7616 595.81814 l 1
 259.908 675.109 l 1
EndSplineSet
Validated: 524837
EndChar

StartChar: "+MLAw6jDV 18"
Encoding: 18 12509 17
Width: 566
Flags: W
LayerCount: 2
Fore
SplineSet
455.383 793.357 m 1
 454.18476 793.35114062 452.99726 793.3247734 451.83027 793.2808281 c 0
 436.44357 792.6939141 409.50997 774.7730281 409.50997 774.7730281 c 1
 383.05097 721.8394281 l 1
 451.83217 687.4468281 l 1
 489.55677 694.0581581 l 1
 506.08997 712.5835581 l 1
 506.08997 712.5835581 516.94937 757.9917581 504.7677 774.7730581 c 0
 494.4738 788.9546581 473.3722 793.4361581 455.3829 793.3570581 c 1
 455.3829 793.3570581 l 1
 455.3829 793.3570581 l 1
 455.383 793.357 l 1
225.291 788.754 m 1
 229.75389 780.28134 l 1
 246.56639 748.25794 l 1
 239.9453 650.54114 l 1
 186.2598 646.46302 l 1
 95.8028 641.10755 l 1
 82.6798 611.94735 l 1
 50.6583 557.63875 l 1
 108.1505 551.72664 l 1
 234.3375 559.30672 l 1
 230.19492 373.33772 l 1
 192.83162 354.23422 l 1
 229.55332 288.20102 l 1
 282.91852 262.48032 l 1
 296.15872 337.99592 l 1
 308.11772 577.63492 l 1
 418.01572 572.59781 l 1
 483.59382 576.35367 l 1
 479.58405 626.53527 l 1
 418.40245 662.12907 l 1
 331.29695 666.50993 l 1
 315.31065 667.90837 l 1
 316.203228 766.53537 l 1
 225.291 788.754 l 1
446.189 756.947 m 1
 446.523961 756.9645781 446.861852 756.9645781 447.20072 756.947 c 0
 453.07181 756.638406 459.40872 751.07688 463.07672 746.322 c 0
 465.69098 742.93333 466.26715 737.99973 465.7232 733.7536 c 0
 465.033747 728.37372 458.46148 719.195 458.46148 719.195 c 1
 446.54648 721.18523 l 1
 436.62265 732.43133 l 1
 436.62265 732.43133 435.7164 752.90103 443.24765 756.24383 c 1
 443.24765 756.24773625 l 2
 444.196869 756.66961125 445.1832 756.89226725 446.18808 756.94695525 c 1
 446.18808 756.94695525 l 1
 446.189056562 756.94695525 l 1
 446.189 756.947 l 1
129.609 495.566 m 1
 126.15588 493.65975 l 1
 101.64608 480.03275 l 1
 71.40978 427.57575 l 1
 42.38638 372.30625 l 1
 67.65398 328.62855 l 1
 115.59538 334.48988 l 1
 162.71058 446.86488 l 1
 129.609 495.566 l 1
406.039 484.246 m 1
 404.45502 480.16788 l 1
 385.41982 431.20108 l 1
 443.02922 332.13268 l 1
 518.98622 314.05848 l 1
 529.61512 381.60728 l 1
 456.22062 463.92958 l 1
 406.039 484.246 l 1
EndSplineSet
Validated: 524837
EndChar

StartChar: "+MLAw6jDV 19"
Encoding: 19 12484 18
Width: 558
Flags: W
LayerCount: 2
Fore
SplineSet
243.932 678.846 m 2
 239.38122 678.946586 235.05309 677.866508 231.1703 675.19561 c 0
 212.7953 662.55601 226.35585 629.80501 232.25233 608.29521 c 0
 240.27088 579.04131 252.72503 546.94171 277.37933 529.27181 c 0
 286.60101 522.66243 301.75533 515.92321 310.78953 522.78548 c 0
 328.14303 535.96708 316.00047 587.95348 316.00047 587.95348 c 1
 316.00047 587.95348 307.08641 635.05698 291.14497 651.10968 c 0
 279.28557 663.05208 260.18497 678.48668 243.93207 678.84598 c 1
 243.93207 678.84598 l 1
 243.932 678.846 l 2
437.631 669.092 m 1
 429.18276 669.1369219 421.1613 667.58126 413.6154 664.24239 c 0
 386.4425 649.47969 410.77458 602.09789 417.18962 566.06269 c 1
 401.84782 466.04669 l 1
 214.52382 296.94369 l 1
 42.05482 224.71319 l 1
 42.05482 224.71319 168.95282 252.35869 174.76782 251.84019 c 0
 180.5813 251.324565 378.84582 339.17219 378.84582 339.17219 c 1
 484.09982 481.58619 l 1
 495.07442 624.76719 l 1
 502.1584 627.86387 508.90062 631.3043 509.94742 640.43909 c 1
 483.59682 658.40979 459.22082 668.97619 437.63102 669.09139 c 1
 437.63102 669.09139 l 1
 437.631 669.092 l 1
146.498 584.508 m 2
 143.51655 584.5216719 140.80171 583.968938 138.55464 582.63886 c 0
 119.34274 571.26876 125.10154 517.03146 125.10154 517.03146 c 1
 125.10154 517.03146 156.84954 477.83616 178.62694 466.56266 c 0
 194.27344 458.46305 230.43554 456.09386 230.43554 456.09386 c 1
 230.43554 456.09386 235.21777 496.04116 228.58007 514.27356 c 0
 220.81054 535.61436 186.46287 567.83016 186.46287 567.83016 c 1
 186.46287 567.83016 162.59667 584.43266 146.49807 584.50786 c 1
 146.49807 584.50786 l 1
 146.498 584.508 l 2
EndSplineSet
Validated: 524837
EndChar

StartChar: "+MLAw6jDV 20"
Encoding: 20 12481 19
Width: 546
Flags: W
LayerCount: 2
Fore
SplineSet
284.096 828.318 m 1
 274.80694 820.88245 l 1
 272.52374 819.64222 l 1
 270.6839 801.94882 l 1
 250.221 764.32182 l 1
 250.045219 763.749554 l 2
 244.256159 744.902854 224.550119 720.477054 203.033519 696.218354 c 0
 181.516919 671.958554 158.374319 647.709554 145.715119 625.921454 c 1
 154.435819 618.140204 l 1
 225.217019 670.839404 l 1
 248.320519 625.237804 l 1
 252.455289 593.991704 l 1
 252.330289 579.200704 l 1
 205.715089 575.079614 l 1
 106.740489 567.835474 l 1
 106.6545515 569.265164 106.540294 570.889184 104.599869 573.423364 c 0
 103.357679 575.045434 99.971939 576.627464 97.496349 576.149924 c 0
 95.020759 575.671408 93.733649 574.504414 92.476819 573.312034 c 0
 90.028579 570.986834 87.629159 567.609884 84.199479 562.118634 c 2
 78.941669 555.325664 l 1
 78.9279971 555.3061328 l 2
 65.7238971 537.9995328 56.3713971 520.2319328 50.3791971 502.2612328 c 2
 47.4768571 493.5561528 l 1
 171.2868571 505.5092528 l 1
 171.3024821 505.51120592 l 1
 171.3024821 505.51120592 213.0885821 509.75534592 251.8024821 513.68112592 c 1
 250.9294351 405.90712592 l 1
 233.9782351 342.93252592 l 1
 120.5822351 233.81152592 l 1
 89.3176351 214.59962592 71.2199351 202.98732592 62.2502351 196.56932592 c 0
 59.9904651 194.95311592 58.3068751 193.67186592 57.0002351 192.54393592 c 0
 56.3469151 191.98045892 55.7922251 191.46971592 55.2267951 190.82909592 c 0
 54.6623421 190.18944792 53.8517951 189.73534592 53.3830451 187.28221592 c 0
 53.1486701 186.05565592 53.3517951 183.86131592 54.5705451 182.29393592 c 0
 55.7892951 180.72655592 57.3010151 180.21483592 58.2267951 180.01463592 c 0
 60.0793351 179.61424492 60.7717151 179.90428392 61.5295251 180.05369842 c 0
 63.0461251 180.35252642 64.3586251 180.82225342 66.0431951 181.45994842 c 0
 79.5206951 186.56443842 113.0294951 203.56834842 136.4161951 214.61424842 c 2
 136.7033041 214.74901442 l 1
 277.3283041 300.44631442 l 1
 278.0372881 301.43850242 l 2
 296.0587881 326.67580242 313.8097881 345.36530242 318.3634881 403.82650242 c 1
 318.3634881 403.83431492 l 1
 336.1368881 522.14331492 l 1
 348.2579881 523.35718492 361.9239881 524.73218492 373.2950881 525.87183492 c 0
 379.6866881 526.51245992 385.2950881 527.07203492 389.3653881 527.47339492 c 0
 391.4005481 527.67456692 393.0528881 527.83569992 394.2189081 527.94605092 c 0
 394.8019161 528.00171502 395.2648081 528.04468372 395.5821881 528.07300392 c 0
 395.7325791 528.08569922 395.9161721 528.09448832 396.0177351 528.10034772 c 0
 396.1944931 528.10327741 403.2560151 528.14038682 412.4923351 528.14136332 c 0
 421.8126451 528.142339882 433.8946351 528.1315977 445.8614351 528.11987892 c 0
 469.7950351 528.09351172 493.2637351 528.04956642 493.2637351 528.04956642 c 1
 500.5254551 528.03394142 l 1
 492.4473351 569.26244142 l 1
 492.4219445 569.37962942 l 2
 488.5606145 585.58472942 479.4453445 598.06422942 464.5703445 601.09052942 c 2
 463.6230785 601.28193542 l 1
 358.7110785 588.58663542 l 1
 343.6641785 587.25460542 l 1
 345.9297985 617.51630542 l 1
 345.6973765 618.44989942 l 2
 337.4786265 651.28969942 321.7598765 675.24969942 305.1211765 697.01239942 c 1
 308.5625865 717.16079942 l 1
 281.8926865 720.50845942 l 1
 296.2158865 730.00650942 311.3067865 740.94795942 323.6465865 764.06115942 c 1
 346.7988865 775.55725942 l 1
 347.6914645 776.95569942 l 2
 348.8262345 778.73694942 349.1846245 781.03772942 348.9219345 782.85413942 c 0
 348.6592395 784.66956942 347.9717395 786.09632942 347.1875545 787.35999942 c 0
 345.6191945 789.88733942 343.5186045 791.93421942 340.9824745 794.06897942 c 0
 335.9102045 798.33850942 328.9892745 802.70569942 321.4668745 806.82287942 c 0
 313.9444745 810.94005942 305.8701745 814.74377942 298.6602745 817.56117942 c 0
 293.1485545 819.71449942 288.4581745 821.38344942 284.0977745 822.01429942 c 1
 284.096 828.318 l 1
274.68 820.125 m 1
 278.04719 815.0918 l 1
 277.847971 813.17383 l 1
 272.168281 815.9043 l 1
 274.68 820.125 l 1
395.857 528.1 m 1
 395.86676562 528.1 l 1
 395.95465622 528.1 l 1
 395.93610152 528.1 396.00055462 528.10292969 395.84528122 528.09804688 c 1
 395.857 528.1 l 1
64.5039 183.246 m 1
 64.317377 182.96768 64.177728 182.946195 64.167962 182.935453 c 0
 64.15819638 182.9237342 64.379876 183.127836 64.5039 183.246 c 1
EndSplineSet
Validated: 524837
EndChar

StartChar: "+MLAw6jDV 21"
Encoding: 21 12486 20
Width: 578
Flags: W
LayerCount: 2
Fore
SplineSet
465.4 773.293 m 1
 464.632422 773.28323438 l 1
 406.069922 772.49807838 l 1
 353.398022 765.05862838 l 1
 299.314022 772.26174838 l 1
 299.155819 772.27737338 l 2
 291.048399 773.03030338 283.341319 771.57424838 277.267119 767.21096338 c 0
 271.509309 763.07522338 267.801299 756.69046338 265.743719 749.26756338 c 2
 237.819919 692.97846338 l 1
 332.284719 698.52338338 l 1
 430.136319 706.02533338 l 1
 493.222219 704.87299338 l 1
 494.849169 710.84760338 l 2
 499.435109 727.69040338 499.933149 741.58880338 494.9253409 752.75780338 c 0
 489.9165509 763.92670338 479.1304409 770.80960338 466.1558409 773.15620338 c 2
 465.4 773.293 l 1
493.395 643.76 m 1
 492.475078 643.7482812 l 1
 452.977078 643.2248432 l 1
 391.959478 629.9279432 l 1
 246.464478 621.3888832 l 1
 235.858078 629.7541132 l 1
 223.533878 621.0158332 l 1
 222.94794 620.3693492 l 2
 205.83954 601.4679492 189.64814 581.6310492 179.30834 558.5841492 c 2
 173.69311 546.0704492 l 1
 275.79111 556.1212492 l 1
 329.75591 562.0470292 l 1
 338.83013 493.7853292 l 1
 317.89063 399.4826292 l 1
 286.18553 351.8293292 239.63773 306.2394292 183.42963 262.1586292 c 1
 129.52343 240.8930292 l 1
 129.4843675 240.8783808 l 2
 101.3114675 230.1537808 53.0312675 213.7992808 35.5116675 205.8597808 c 0
 33.3192875 204.8666168 31.6620575 204.0873208 29.9667475 202.9593908 c 0
 29.1190915 202.3959138 28.1942875 202.1498208 26.7147975 199.7191608 c 0
 25.9745635 198.5043208 24.9667475 195.9857608 25.8124535 193.0843908 c 0
 26.6581565 190.1840008 28.9179235 188.5580208 30.2323735 187.9320508 c 0
 32.8612835 186.6820508 33.7938935 187.0013868 34.8788535 187.0023628 c 0
 35.9628335 187.00529249 36.9833435 187.09123 38.1620535 187.2269718 c 0
 40.5194735 187.4994328 43.4667435 187.9945498 47.3241635 188.7465018 c 0
 62.7411635 191.7552918 92.5448635 198.9272018 143.8964635 212.2367018 c 0
 194.0321635 224.5355018 242.6835635 246.0072018 290.3124635 273.4769018 c 2
 290.7734015 273.7425268 l 1
 291.1952765 274.0667458 l 2
 335.3563765 308.1058458 378.2987765 349.3978458 406.3102765 426.2847458 c 1
 432.2594765 471.0113458 425.9997765 522.5152458 431.2028765 568.2287458 c 1
 473.8610765 566.9103858 l 1
 521.6813765 564.8439758 l 1
 524.1403565 568.7560858 l 2
 531.8298065 580.9943858 536.2819565 591.1476858 537.8981565 600.2599858 c 0
 539.5143565 609.3722858 537.9128049 617.7394858 533.5837065 624.0333858 c 0
 524.9255065 636.6212858 509.3005065 640.2521858 494.2946065 643.5606858 c 2
 493.395 643.76 l 1
35.0977 202.994 m 2
 35.0977 202.99204688 l 2
 35.1201609 202.99009376 35.220747 202.94224218 35.246138 202.93931248 c 1
 35.1592239 202.93540623 34.883833 202.91001558 34.855513 202.91001558 c 0
 34.8018021 202.91001558 34.8066849 203.01646058 35.0977 202.994 c 2
39.1133 189.885 m 1
 38.854511 189.668203 38.750019 189.699453 38.773456 189.715078 c 0
 38.78224506 189.7228905 39.078144 189.864492 39.1133 189.885 c 1
EndSplineSet
Validated: 524841
EndChar

StartChar: "+MLAw6jDV 22"
Encoding: 22 12490 21
Width: 1024
LayerCount: 2
Fore
SplineSet
537.562 823.398 m 1
 524.0288 806.4624 l 2
 521.94851 803.85904 518.0382 798.077 520.18505 790.98 c 0
 522.12137 784.57867 528.33782 779.2247 539.89985 774.3823 c 1
 540.19087 713.6421 l 1
 536.65571 662.6323 l 1
 526.18301 662.5327 l 1
 478.72991 667.05028 l 2
 478.39996 667.83673 477.97096 668.59878 477.36272 669.29638 c 0
 475.15347 671.83016 472.0327 672.47418 469.3803 672.4702 c 2
 468.61272 672.4702 l 1
 467.87444 672.26317 l 2
 456.33834 669.04358 442.84844 657.93477 432.21034 644.15577 c 0
 426.8913 637.26626 422.44626 629.68877 420.02484 621.81987 c 0
 417.60334 613.95093 417.24037 605.54017 420.79437 597.96247 c 2
 420.92718 597.67731 l 1
 421.0932 597.40974 l 2
 423.31692 593.78562 427.15285 592.16973 430.65961 591.52888 c 0
 434.16637 590.88806 437.81348 590.99279 441.63031 591.31208 c 0
 449.21593 591.947 457.51431 593.55819 464.10491 594.09919 c 2
 536.31781 594.09919 l 1
 537.08343 501.93119 l 1
 531.61273 464.24169 l 1
 515.87643 411.59329 l 1
 397.83943 259.73429 l 1
 356.61873 234.28119 l 2
 338.54203 225.12483 323.27953 217.01559 312.26523 210.43549 c 0
 306.73185 207.12976 302.27726 204.22575 298.93323 201.62494 c 0
 297.2612 200.32452 295.86357 199.1134 294.67933 197.80463 c 0
 293.49509 196.49581 292.31774 195.18028 291.86878 192.61908 c 0
 291.41982 190.05785 293.37065 186.36953 295.43128 185.19916 c 0
 297.49191 184.02879 299.21402 183.89394 301.13441 183.80463 c 0
 304.97518 183.62623 309.78967 184.20561 316.49771 185.42572 c 0
 329.91371 187.86597 350.53271 193.05484 380.23211 201.59762 c 2
 380.56414 201.69332 l 1
 380.88055 201.82808 l 2
 424.39875 220.34088 460.32725 247.58328 488.69855 283.03508 c 2
 488.77865 283.13468 l 1
 572.77275 398.46668 l 1
 598.57155 502.27868 l 1
 610.47195 575.58338 l 1
 611.0364 594.78258 l 1
 673.552 595.96618 l 1
 718.6204 600.56774 l 2
 720.75183 600.01419 723.10684 599.56306 726.01103 600.78063 c 0
 729.46544 602.22898 731.35015 606.00935 731.86454 609.42907 c 0
 732.89341 616.26846 731.50016 625.84487 728.14579 643.94277 c 2
 728.12239 644.07363 l 1
 728.09309 644.20253 l 2
 725.70481 654.38343 722.4236 661.52583 716.79429 666.08533 c 0
 711.16498 670.64483 704.13659 671.7448 696.27669 671.84705 c 2
 695.58138 671.85705 l 1
 661.34698 663.76525 l 1
 613.03838 663.3219 l 1
 613.59698 682.441 l 1
 611.2044 731.1949 l 1
 616.49434 738.03855 620.50116 742.6353 623.0794 746.9683 c 0
 624.4807 749.32328 625.57527 751.89535 625.68291 754.80228 c 0
 625.78987 757.69103 624.81223 760.47827 623.38213 762.88822 c 0
 604.31343 797.11962 577.30593 810.08732 548.10283 810.19092 c 0
 543.85985 810.20602 539.55726 809.89196 535.22973 809.43896 c 1
 537.562 823.398 l 1
EndSplineSet
Validated: 524841
EndChar

StartChar: "+MLAw6jDV 23"
Encoding: 23 12488 22
Width: 310
Flags: W
LayerCount: 2
Fore
SplineSet
68.9512 839.826 m 2
 68.599638 839.83283594 68.253934 839.82990625 67.91409 839.8181875 c 0
 65.36038 839.7302969 63.02932 839.0965075 61.17386 837.7107675 c 0
 59.31839 836.3240475 58.13577 834.2429975 57.63089 832.0584275 c 0
 56.62112 827.6873375 57.6719056 822.7439775 59.66409 816.9236275 c 0
 63.59378 805.4373275 71.82619 790.4988275 81.33209 774.3767275 c 1
 95.63289 661.7987275 l 1
 80.65439 432.0857275 l 1
 77.18173 241.6837275 l 2
 75.13095 215.2296275 73.29403 190.0704275 72.31064 170.0626275 c 0
 71.818452 160.0489275 71.540132 151.3272275 71.558687 144.3419275 c 0
 71.577242 137.3566275 71.822359 132.2452275 72.671967 128.7560275 c 0
 72.883881 127.8839575 73.128022 127.0987975 73.552826 126.3009475 c 0
 73.976654 125.5030955 74.628996 124.5265375 76.005946 123.9884475 c 0
 77.382896 123.4503575 79.050866 123.8839555 79.949306 124.4864945 c 0
 80.847746 125.0890335 81.376066 125.7677445 81.892666 126.5236045 c 0
 83.958096 129.5470445 85.784266 134.5265345 88.324306 142.8713045 c 0
 93.391686 159.5227045 100.529406 188.9895045 110.439506 235.2424045 c 1
 146.728606 329.5236045 l 1
 147.228606 485.1196045 l 1
 147.580168 500.7505045 l 1
 243.814568 475.0376045 l 1
 244.621209 475.2270575 l 2
 253.115349 477.2094775 262.039209 479.0307675 269.293109 482.4243275 c 0
 276.547009 485.8178875 282.479609 491.4946375 282.756009 500.0259275 c 2
 282.8009309 501.4243675 l 1
 235.2169309 550.8520675 l 1
 149.7911309 599.3852675 l 1
 153.5352709 766.8732675 l 2
 153.9210129 768.6437775 154.7950409 769.8283475 156.2325409 771.2736575 c 0
 157.7100809 772.7599875 159.7677009 774.3478775 161.4903509 776.8166275 c 0
 163.2130009 779.2853775 164.3497309 782.7404575 163.9005109 786.9475275 c 0
 163.4503159 791.1545575 161.6475809 796.1438175 157.9786309 802.7717275 c 2
 157.6680839 803.3361805 l 1
 157.1661309 803.7404775 l 2
 132.3868309 823.8117775 100.9630309 829.1398775 72.9122309 839.3634775 c 2
 72.6016839 839.4767585 l 1
 72.2755119 839.5255866 l 2
 71.1094919 839.7023446 70.0050019 839.8058596 68.9512919 839.8263676 c 1
 68.9512919 839.8263676 l 1
 68.9512 839.826 l 2
EndSplineSet
Validated: 524805
EndChar

StartChar: "+MLAw6jDV 24"
Encoding: 24 12491 23
Width: 569
Flags: W
LayerCount: 2
Fore
SplineSet
198.309 628.057 m 1
 197.856852 628.06676562 197.404703 628.06578906 196.95548 628.05504688 c 0
 190.9672 627.92614088 185.33728 626.18102688 181.93598 624.36949688 c 0
 171.05418 618.56969688 165.43308 611.55309688 161.00438 608.78939688 c 2
 154.74461 604.92025688 l 1
 154.74461 602.16244688 l 1
 136.56201 589.39094688 121.61961 576.42124688 115.21531 560.31284688 c 2
 110.30515 548.02374688 l 1
 125.95655 544.00812688 l 2
 152.73975 537.17414688 182.62645 538.13800688 213.87945 542.15656688 c 2
 339.25445 547.29523688 l 1
 404.31895 543.66632688 l 1
 407.8795 544.77960688 l 2
 415.83751 547.29034688 427.5963 550.23761688 434.5807 560.55110688 c 0
 441.25843 570.41145688 437.3434 582.62920688 428.38148 595.33630688 c 0
 424.84339 602.69763688 418.13248 608.20740688 410.70378 611.73670688 c 0
 402.73015 615.52576688 393.81808 618.05994688 384.24768 620.25232688 c 2
 374.85706 622.38123688 l 1
 367.85901 616.86561688 l 1
 215.63301 617.93006688 l 2
 213.19746 620.73182688 212.25703 624.32947688 207.71504 626.20350688 c 1
 207.71504 626.20741313 l 2
 204.70039 627.45155313 201.47481 627.99354313 198.30879 628.05702313 c 1
 198.30879 628.05702313 l 1
 198.309 628.057 l 1
432.648 428.4 m 1
 428.95366 428.4449219 425.31011 428.112891 421.3824 427.16367 c 0
 418.85799 426.554295 416.40584 424.75156 413.89412 423.24375 c 2
 310.83412 424.066016 l 1
 148.66612 415.405856 l 1
 100.11342 420.632416 l 1
 98.39272 420.5328066 l 2
 97.453267 420.4830019 93.40737 421.0699156 86.54702 420.1460876 c 0
 79.92788 419.2535096 71.56072 415.0484276 66.53722 409.2612876 c 0
 41.20032 391.2964876 29.43272 373.1616876 16.01962 358.1225876 c 2
 13.81064 355.6069676 l 1
 13.257906 352.6069676 l 2
 12.974703 351.1450576 12.453218 348.5971976 13.933687 345.0112676 c 0
 15.414157 341.4243576 19.688567 337.7583376 23.570407 336.2046276 c 0
 31.334077 333.0962276 36.259907 333.8628276 43.213007 334.4136076 c 0
 56.676907 335.4780576 79.473707 339.5356776 119.570407 348.0093076 c 0
 122.950287 347.9936826 223.444407 347.5737606 229.134407 347.5737606 c 0
 232.298467 347.5737606 240.247707 347.7221986 254.054307 347.9604796 c 0
 267.860007 348.2075496 285.803307 348.5532526 303.652007 348.8784486 c 0
 338.730107 349.5171206 372.070907 350.1645786 373.257507 350.1850886 c 2
 373.624695 350.1850886 l 1
 436.601295 347.6206386 l 1
 472.571995 344.0405586 l 1
 473.800515 344.0893867 l 2
 485.792715 344.3491527 496.112015 345.0649727 505.165715 346.8960267 c 0
 514.218445 348.7261067 524.310215 351.5024767 529.288715 360.7310267 c 0
 531.776995 365.3462567 531.475235 370.7886267 529.718403 374.9068267 c 0
 527.961563 379.0259667 525.165673 382.2886667 521.800433 385.4048267 c 0
 515.068983 391.6392067 505.643233 397.5112267 492.460633 404.4673267 c 2
 492.27118 404.5669361 l 1
 447.46458 426.8696361 l 1
 444.21458 427.3598701 l 2
 440.0847 427.9292061 436.33958 428.3530341 432.64618 428.3989301 c 1
 432.648 428.4 l 1
EndSplineSet
Validated: 524837
EndChar

StartChar: "+MLAw6jDV 25"
Encoding: 25 12492 24
Width: 750
Flags: W
LayerCount: 2
Fore
SplineSet
206.227 732.781 m 1
 206.012156 729.37866 l 2
 205.881297 729.3249491 205.75825 729.266355 205.62739 729.212644 c 1
 204.978952 732.536864 l 1
 186.414452 724.997804 175.177152 714.349364 168.365652 702.183364 c 0
 161.583422 690.067164 159.122492 676.638464 157.271852 663.306364 c 0
 156.379274 659.989954 155.978882 657.699914 156.510133 655.417694 c 0
 156.783571 654.244844 157.485719 652.957734 158.629273 652.177464 c 0
 159.773803 651.396214 161.057983 651.255589 162.047243 651.321995 c 0
 164.027713 651.454807 165.463263 652.182347 166.910523 652.857155 c 0
 168.225953 653.46946 169.414433 654.049535 170.357793 654.429425 c 2
 302.577793 663.796615 l 1
 307.109043 665.036845 l 1
 285.732043 578.683345 l 1
 250.534743 517.222445 l 1
 248.054273 519.222445 l 1
 214.437073 556.368945 l 1
 213.919495 556.642383 l 2
 190.970295 568.700983 170.564995 568.516383 160.194895 559.359183 c 0
 155.009345 554.780083 152.899975 547.620883 155.056225 540.150183 c 0
 157.212475 532.679483 163.159745 524.797683 173.444925 516.823983 c 2
 214.577725 484.446983 l 1
 223.782805 475.234093 l 1
 99.558805 341.910093 l 1
 70.171105 325.223593 50.941605 313.736293 39.994305 306.468693 c 0
 34.478685 302.806583 31.080245 300.309513 29.068505 298.216743 c 0
 28.565575 297.693305 28.132958 297.195263 27.748195 296.533153 c 0
 27.363432 295.871043 26.869289 294.909133 27.187648 293.447213 c 0
 27.506984 291.985303 28.899558 290.914983 29.793118 290.613233 c 0
 30.687649 290.311475 31.337068 290.314405 32.000148 290.339795 c 0
 34.654448 290.443311 37.828268 291.383745 42.429848 292.894485 c 0
 47.031428 294.405225 52.816548 296.539015 59.548948 299.154255 c 0
 73.015748 304.385705 90.265748 311.562455 109.103648 319.550755 c 2
 109.369273 319.66013 l 1
 198.830173 377.23243 l 1
 252.554773 446.45903 l 1
 379.066773 319.95703 l 1
 526.905773 233.18943 l 1
 589.052273 230.53904 l 2
 628.101073 226.59275 679.536673 220.52834 696.539273 220.34564 c 0
 698.665253 220.3231791 700.159393 220.330015 701.603723 220.640562 c 0
 701.965051 220.718687 702.337121 220.81439 702.814663 221.039 c 0
 703.293179 221.263609 704.013883 221.615172 704.578333 222.6933 c 0
 705.143763 223.77142 704.929895 225.38764 704.4904424 226.14057 c 0
 704.0509898 226.8935 703.6281374 227.19135 703.2716924 227.44721 c 0
 701.8468924 228.46869 700.5451324 228.82319 698.2814624 229.52729 c 0
 696.0187624 230.231392 692.9826324 231.05073 689.0177924 232.02338 c 0
 673.2443924 235.8935 642.5421924 242.21768 591.4064924 251.92378 c 1
 493.7658924 305.97458 l 1
 334.0368924 449.90658 l 1
 285.5680924 488.97888 l 1
 296.7516924 503.39688 l 1
 368.1344924 601.20838 l 1
 404.9020924 676.47988 l 1
 423.3356924 693.16348 l 1
 423.6091304 693.718168 l 2
 427.6286604 701.726958 430.8308104 709.918368 427.4177204 717.198668 c 0
 425.7106904 720.838318 422.3317804 723.747498 417.5192804 725.710388 c 0
 412.7067804 727.672298 406.3796804 728.844178 397.9723804 729.268978 c 2
 397.6618334 729.2904624 l 1
 345.6930334 722.2416324 l 1
 245.0270334 719.6361624 l 1
 235.6393334 728.5629224 221.1657334 730.9466624 206.6325334 732.7611624 c 1
 206.5368303 731.1947524 l 1
 206.227 732.781 l 1
EndSplineSet
Validated: 524841
EndChar

StartChar: "+MLAw6jDV 26"
Encoding: 26 12493 25
Width: 618
Flags: W
LayerCount: 2
Fore
SplineSet
326.305 767.668 m 1
 335.6507 749.916 l 1
 348.2718 738.2461 l 1
 349.87336 687.1797 l 1
 290.81086 677.98829 l 1
 267.45736 688.26559 l 2
 261.01205 688.065395 253.97596 688.830043 251.10966 682.65231 c 2
 214.67216 625.20111 l 1
 243.63696 626.134704 l 1
 430.94896 638.285104 l 1
 431.876694 632.203074 l 1
 361.806394 544.394474 l 1
 288.007594 486.474574 l 1
 195.989994 435.560474 l 1
 128.722394 407.995974 l 1
 24.320394 371.604374 103.119894 389.440274 146.462594 396.781174 c 1
 270.724594 436.495974 l 1
 342.734394 483.226474 l 1
 336.585954 351.480474 l 1
 335.65822 291.689474 l 1
 325.78908 282.246114 324.91702 265.737374 323.50392 249.650374 c 0
 326.9756 219.668974 359.59372 191.077174 387.97662 207.609374 c 0
 395.24615 212.742184 391.15435 234.912074 388.902401 254.314474 c 2
 396.375061 395.376474 l 1
 400.130921 511.849474 l 1
 428.704121 521.563344 457.057721 531.648274 480.453221 549.993974 c 1
 512.516721 590.288874 526.267721 618.110174 528.492321 640.169774 c 1
 527.166151 656.492074 l 1
 529.846811 701.377774 502.213051 702.177574 478.593851 708.810474 c 1
 456.642651 694.800674 l 1
 405.148551 694.39833 l 1
 407.629021 706.47353 410.392691 719.55263 410.392691 719.55263 c 1
 424.867291 742.43743 l 1
 361.814591 767.19333 l 1
 326.305 767.668 l 1
483.262 493.949 m 1
 465.0452 492.07791 l 2
 446.344 491.710722 433.9485 487.63162 457.10575 462.64431 c 0
 474.47005 442.05051 493.67215 423.04861 519.68775 409.87091 c 1
 543.64475 402.47931 564.23565 406.87872 583.22295 416.87482 c 1
 589.94365 438.58482 587.21123 454.78592 579.01201 467.79082 c 1
 525.75811 486.47832 l 1
 483.262 493.949 l 1
EndSplineSet
Validated: 524841
EndChar

StartChar: "+MLAw6jDV 27"
Encoding: 27 12494 26
Width: 462
Flags: W
LayerCount: 2
Fore
SplineSet
295.178 713.855 m 1
 302.06472 700.5064 l 1
 311.02175 683.147 l 1
 308.98269 498.084 l 1
 280.46899 429.3067 l 1
 120.40399 281.4237 l 1
 75.25849 246.3495 51.28389 226.8876 40.57979 217.0214 c 0
 37.89522 214.54679 36.07491 212.76847 34.56417 210.87296 c 0
 33.808311 209.924718 33.01046 209.23819 32.23995 206.68351 c 0
 31.854208 205.40617 31.354208 203.15812 32.603231 200.34171 c 0
 33.851281 197.52433 36.897181 195.7128 38.716511 195.27726 c 0
 42.354211 194.406166 43.297561 195.2391741 44.423541 195.581948 c 0
 45.549521 195.923745 46.490921 196.31437 47.517291 196.775308 c 0
 49.569051 197.69523 51.880571 198.904218 54.585651 200.398358 c 0
 65.404951 206.372968 82.304451 216.923758 98.501651 226.935458 c 0
 114.698851 236.947158 130.560251 246.556558 136.755551 249.519458 c 2
 137.269223 249.765552 l 1
 326.193223 373.035552 l 1
 330.495953 378.535552 l 1
 333.713723 374.913482 337.404153 372.339262 341.202953 370.986722 c 0
 348.418773 368.417382 354.714653 368.936922 359.054553 368.428132 c 2
 365.070173 367.723054 l 1
 367.769393 373.146884 l 2
 377.171733 392.041384 380.119993 421.615684 381.439293 454.818784 c 0
 382.748863 487.793384 381.873863 523.873484 381.113121 553.635184 c 1
 394.079921 657.383184 l 1
 400.195151 704.000384 l 1
 391.431481 704.94765 l 1
 391.431481 704.94765 374.173681 706.81288 355.431481 708.75624 c 0
 336.689281 710.70058 317.004681 712.70253 310.177581 713.06288 c 2
 295.178 713.855 l 1
39.8984 212.338 m 1
 39.9189078 212.34190625 40.011681 212.3184688 40.035119 212.322375 c 1
 39.778283 212.219836 39.395471 212.063586 39.412072 212.068469 c 0
 39.4247673 212.07237525 39.4667595 212.253039 39.8984 212.338 c 1
 39.8984 212.338 l 1
EndSplineSet
Validated: 524837
EndChar

StartChar: "+MLAw6jDV 28"
Encoding: 28 12495 27
Width: 664
Flags: W
LayerCount: 2
Fore
SplineSet
361.424 673.176 m 1
 356.44744 673.08225 351.88591 672.375219 347.9631 670.71506 c 0
 344.81076 669.38108 342.07931 667.301 340.18185 664.53147 c 2
 338.50021 664.53147 l 1
 341.71701 493.51547 l 1
 356.76781 446.58577 l 1
 447.83621 349.13067 l 1
 502.04321 309.41777 l 1
 574.02951 291.90407 l 1
 574.158416 291.8806325 l 2
 587.637916 289.6169625 599.146716 288.0036825 608.177916 287.2400125 c 0
 617.209166 286.4753645 623.455216 286.2722395 627.996316 287.9509505 c 0
 629.132056 288.3708725 630.250226 288.9470445 631.197486 290.0251705 c 0
 632.144746 291.1032965 632.710186 292.8054405 632.566626 294.2654005 c 0
 632.280493 297.1853205 630.556856 298.9099305 628.355686 300.8786805 c 0
 624.002166 304.7722305 616.341986 309.3874705 604.474786 315.4645805 c 2
 446.665786 432.1245805 l 1
 425.404086 473.1929805 l 1
 412.925586 643.2189805 l 1
 411.808396 660.4123805 l 1
 409.829876 661.3205835 l 2
 394.323076 668.4485135 375.971476 673.4465835 361.423676 673.1721835 c 1
 361.423676 673.17413662 l 1
 361.423676 673.175113182 l 1
 361.424 673.176 l 1
248.713 627.463 m 1
 248.713 627.46104688 l 1
 235.9327 627.63487488 221.087 623.83995688 203.5314 619.50401688 c 2
 202.929838 619.35557888 l 1
 202.41226 619.01768788 l 2
 198.85562 616.70127788 197.83023 612.57920788 197.84585 609.27549788 c 0
 197.861475 605.97959788 198.528467 602.85947788 198.705225 600.37119788 c 2
 202.654445 482.54119788 l 1
 195.550925 455.43769788 l 1
 156.086125 401.76579788 l 1
 83.179925 326.44549788 l 2
 62.029525 309.29409788 48.873325 297.80099788 41.927925 290.57639788 c 0
 38.442575 286.95041788 36.383975 284.98264788 35.582225 281.71116788 c 0
 35.38203 280.89378488 35.274608 279.80393788 35.759959 278.61936788 c 0
 36.24531 277.43479788 37.375189 276.50217788 38.318549 276.12913788 c 0
 40.205269 275.38402088 41.466989 275.71507588 42.904489 276.01780988 c 0
 48.654489 277.22971988 57.711089 281.63596988 70.351789 288.27760988 c 0
 82.993389 294.91920988 98.769789 303.77960988 116.093989 313.73270988 c 2
 116.24438 313.82060048 l 1
 200.84598 373.82840048 l 1
 260.14478 418.19170048 l 1
 274.24248 464.43970048 l 1
 273.23662 584.34370048 l 1
 273.23662 584.36323168 l 2
 273.117479 590.83979168 273.86455 598.69823168 273.726854 605.71283168 c 0
 273.6584946 609.21967168 273.385057 612.52924168 272.510054 615.53119168 c 0
 271.636031 618.53314168 270.023724 621.42963168 267.135054 623.09760168 c 2
 266.287398 623.58783568 l 1
 266.070601 623.58783568 l 2
 260.846971 626.22455568 255.015901 627.37689568 248.713201 627.46283568 c 1
 248.713201 627.46283568 l 1
 248.713 627.463 l 1
EndSplineSet
Validated: 524837
EndChar

StartChar: "+MLAw6jDV 29"
Encoding: 29 12498 28
Width: 494
Flags: W
LayerCount: 2
Fore
SplineSet
50.8066 681.707 m 1
 49.842733 681.6835625 48.84273 681.6337578 47.6523 681.064422 c 0
 46.46285 680.495086 45.36421 679.147432 44.98628 677.990202 c 0
 44.231397 675.674772 44.64253 674.129852 44.845655 671.589812 c 2
 45.11128 668.298792 l 1
 45.318311 668.298792 l 1
 49.488231 616.263592 l 1
 58.771431 495.468592 l 1
 46.896431 345.558592 l 1
 80.749931 292.355492 l 1
 81.800711 291.923851 l 2
 132.372011 271.199251 177.425711 240.750051 243.114711 238.712951 c 2
 243.327602 238.7051385 l 1
 243.540493 238.7246697 l 2
 278.725993 241.8223297 309.456493 255.3213697 339.788493 268.5996697 c 2
 340.368571 268.8535757 l 1
 434.294371 358.7129757 l 1
 434.3646835 358.7891476 l 2
 443.1957335 368.2862176 448.8812835 375.1455476 452.1126835 380.1563476 c 0
 453.7279135 382.6612276 454.7845635 384.6456076 455.2122935 386.7872076 c 0
 455.4261605 387.8584976 455.4857315 389.0606476 455.0091685 390.3301776 c 0
 454.5316295 391.5997076 453.3958885 392.7198276 452.2669785 393.2305676 c 0
 450.0081885 394.2520476 448.1107285 393.8643566 445.9779185 393.3711926 c 0
 443.8441285 392.8770516 441.4505785 392.0254926 438.7064385 390.8751026 c 0
 433.2503885 388.5889726 426.4408385 385.1026426 418.6888385 380.8380026 c 2
 273.3998385 313.3185026 l 1
 215.0541385 310.6798326 l 1
 125.9975385 340.3028326 l 1
 119.3705885 375.9727326 l 1
 119.3705885 441.6582326 l 1
 301.8725885 487.5762326 l 1
 327.8725885 493.3750626 l 1
 330.5581385 533.6699626 l 1
 322.0171185 587.6035626 l 1
 235.5034185 549.3730626 l 1
 119.4914185 506.3535626 l 1
 119.4914185 525.9765626 l 1
 130.1457185 670.4515626 l 1
 130.1457185 670.5824216 l 2
 130.1457185 672.3597616 130.4894685 674.7367216 129.0519685 677.4027316 c 0
 128.3322415 678.7357416 126.9787285 679.9886716 125.3839985 680.6058516 c 0
 123.8732585 681.1908126 122.2384885 681.3128826 120.4093885 681.1761636 c 2
 55.0265885 681.5472576 l 1
 55.0011979 681.5472576 l 2
 53.3566679 681.6390545 52.0392879 681.7376876 50.8058879 681.7074136 c 1
 50.8058879 681.7074136 l 1
 50.8066 681.707 l 1
EndSplineSet
Validated: 524805
EndChar

StartChar: "+MLAw6jDV 30"
Encoding: 30 12501 29
Width: 410
Flags: W
LayerCount: 2
Fore
SplineSet
374.229 652.273 m 2
 373.60107 652.2974141 373.02295 652.2495625 372.46533 652.1772969 c 2
 336.31493 649.5952669 l 1
 285.45453 642.4019069 l 1
 140.27753 638.3003469 l 1
 90.85953 642.9312069 l 1
 90.607577 642.92241784 l 2
 77.896677 642.45952684 68.113477 635.38628784 62.134877 623.62751784 c 1
 62.1094864 623.62751784 l 1
 42.0293864 583.74081784 l 1
 39.8243064 573.52601784 l 1
 39.802822 573.31117384 l 2
 39.571377 571.03480384 39.7666892 568.54457384 41.015712 566.26625384 c 0
 42.265712 563.98891384 44.512782 562.22816384 47.267662 561.20375384 c 0
 52.738362 559.17055384 60.469762 559.18813384 72.826262 561.07484784 c 2
 262.087262 573.67644784 l 1
 269.971052 449.92444784 l 1
 205.340152 371.15104784 l 1
 119.401652 303.11684784 l 1
 80.273752 279.23404784 l 1
 57.249352 270.51822784 41.404652 263.98204784 31.777652 259.27704784 c 0
 26.935852 256.90985784 23.712222 255.10809784 21.512052 253.25165784 c 0
 20.412442 252.32294684 19.253262 251.49970784 18.859712 249.22235784 c 0
 18.663423 248.08270784 19.018892 246.53680784 19.75815 245.57782784 c 0
 20.498384 244.61786684 21.3392 244.18036784 22.05307 243.89227784 c 0
 24.91147 242.73797784 27.48764 243.01630084 31.56869 243.32782484 c 0
 35.65072 243.63837184 40.8851 244.33075484 47.26009 245.36884484 c 0
 60.01109 247.44501484 77.28939 250.90595484 98.26689 255.48404484 c 2
 98.61064 255.55826364 l 1
 215.12864 304.23596364 l 1
 332.33564 388.62556364 l 1
 364.20864 493.11956364 l 1
 375.57774 586.15476364 l 1
 379.68712 634.92626364 l 2
 380.9879 639.97899364 381.49767 643.45849364 380.859 646.50046364 c 0
 380.527945 648.07663364 379.74767 649.66745364 378.43517 650.75046364 c 0
 377.12267 651.83347364 375.52892 652.22116364 374.23009 652.27194364 c 2
 374.229 652.273 l 2
EndSplineSet
Validated: 524809
EndChar

StartChar: "+MLAw6jDV 31"
Encoding: 31 12504 30
Width: 578
Flags: W
LayerCount: 2
Fore
SplineSet
171.283 612.547 m 2
 170.617961 612.55383594 169.94706 612.547 169.27128 612.5235625 c 0
 164.76347 612.3682895 160.02616 611.4903625 155.49588 609.1837225 c 0
 151.49295 607.1456325 147.6951 603.6407525 145.38258 598.9708225 c 0
 109.82688 553.5255225 77.46368 485.9658225 42.14258 432.7928225 c 1
 19.10348 413.1190225 l 1
 94.42578 402.2030225 l 1
 115.51168 407.8319325 l 1
 147.16398 468.4022325 l 1
 193.59168 531.7127325 l 1
 309.35968 477.9275325 l 1
 405.16828 413.8943325 l 1
 459.29528 360.1326325 l 1
 479.33438 348.0642325 l 1
 515.76018 348.4118885 l 1
 540.89108 373.6716885 l 1
 463.85588 459.6657885 l 1
 342.86188 546.0192885 l 1
 229.90088 595.0251885 l 1
 183.72118 610.1618885 l 2
 179.86376 611.7439185 175.70165 612.4968485 171.28368 612.5466585 c 1
 171.28368 612.5466585 l 1
 171.283 612.547 l 2
EndSplineSet
Validated: 524805
EndChar

StartChar: "+MLAw6jDV 32"
Encoding: 32 12507 31
Width: 488
Flags: W
LayerCount: 2
Fore
SplineSet
186.473 742.348 m 1
 190.4105 735.78745 l 1
 198.6937 721.98665 l 1
 201.21909 714.4222 l 1
 201.21909 616.8968 l 1
 144.59209 615.81672 l 1
 103.57649 619.9261 l 2
 99.6634 620.97786 95.597 620.533522 92.15069 618.54133 c 0
 88.50128 616.43195 85.52471 612.91633 82.89874 608.29133 c 2
 82.8811619 608.2581269 l 1
 62.9456619 571.2737269 l 1
 62.8499588 570.9983359 l 2
 62.6761308 570.4914999 61.8128488 569.1008759 60.8206588 567.6057559 c 0
 59.8294478 566.1116159 58.5901888 564.5422759 58.2659688 561.9983359 c 0
 58.1038598 560.7268559 58.3685078 559.0647459 59.2835488 557.7815359 c 0
 60.1995648 556.4993059 61.5032788 555.7200159 62.8987788 555.2034159 c 0
 65.6917488 554.1711859 69.2552288 553.8928659 74.7796788 554.0295859 c 2
 74.7913976 554.0295859 l 1
 201.6603976 557.9319259 l 1
 205.9103976 374.4749259 l 2
 203.4641076 367.8616459 199.6838376 361.3938259 196.6408676 354.2093259 c 0
 193.5432076 346.8948759 191.3166476 338.6888259 192.7482876 329.1488259 c 2
 195.6545376 283.7172259 l 1
 196.4807096 282.7992569 l 2
 199.5734796 279.3588269 204.8342296 269.2142569 211.2092096 261.1176569 c 0
 214.3967096 257.0698069 217.9484696 253.3969569 222.3069096 251.2289869 c 0
 226.5656996 249.1117969 231.8264396 248.8110169 236.7717096 251.3188307 c 0
 244.0011996 253.8520307 250.1301096 261.0610207 254.6877096 270.3754307 c 0
 259.2648596 279.7309007 262.0744296 291.3803307 261.1115396 303.2133307 c 2
 257.3420096 409.6133307 l 1
 262.0451296 558.7483307 l 1
 366.8481296 558.7483307 l 2
 397.7553296 557.1741107 404.4194296 559.8831007 414.6157296 561.6174707 c 2
 417.9575296 562.1858297 l 1
 412.7114396 605.2854297 l 1
 411.9985486 606.1076957 l 2
 408.7241386 609.8762457 406.0053886 614.8352357 401.1049486 619.0412957 c 0
 396.2035786 623.2473457 389.1069486 626.2414957 378.1967486 626.1858257 c 2
 377.8959676 626.18387258 l 1
 340.1605676 619.57059258 l 1
 264.0296676 618.10379258 l 1
 264.0609176 618.60183958 l 1
 271.6390376 715.06083958 l 1
 271.5999751 715.40263658 l 1
 271.60876416 715.34306628 271.6624751 715.93974558 272.0062251 716.90263658 c 0
 272.3509521 717.86552758 272.9261471 719.11845658 273.1175551 720.86357658 c 0
 273.3099381 722.60869658 272.6986101 725.09990658 271.0159951 726.68974658 c 0
 269.3343551 728.28056658 267.1331851 729.12724658 264.1058351 729.78740658 c 2
 264.0120851 729.80889098 l 1
 186.473 742.348 l 1
105.066 465.123 m 2
 104.0162 465.1044453 102.93709 465.0624531 101.82772 464.998 c 2
 100.27499 464.9081562 l 1
 64.77889 421.7440562 l 1
 37.02889 404.5194562 l 1
 16.50349 359.5428562 l 1
 16.4761462 358.8397312 l 2
 16.2925522 353.9256712 16.5386462 348.3368312 19.5679462 342.6151312 c 0
 22.5962662 336.8934512 28.2095462 331.2743312 38.0054462 325.4784312 c 2
 38.7945082 325.0116342 l 1
 39.7085702 324.9842904 l 2
 51.9214702 324.6161264 62.7388702 329.7557704 72.1597702 338.0897904 c 0
 81.5220702 346.3720204 89.7076702 357.8163904 97.4029702 370.7967904 c 2
 133.5689702 417.4334904 l 1
 133.7525642 418.1424744 l 2
 136.8736542 430.2049744 138.7105742 441.5613744 134.9478742 450.7401744 c 0
 133.0670142 455.3300144 129.5943542 459.2323644 124.5962742 461.6913744 c 0
 119.5992042 464.1503544 113.1997742 465.2802444 105.0650742 465.1230144 c 1
 105.066050762 465.1230144 l 1
 105.066 465.123 l 2
383.086 464.186 m 1
 382.136781 463.971156 l 1
 352.503981 457.283656 l 1
 352.119215 457.09225 l 2
 345.409255 453.74948 341.105515 448.83834 338.929715 443.22705 c 0
 336.754915 437.6167 336.581085 431.48775 337.199245 425.26415 c 0
 338.435575 412.81885 342.811545 399.58545 343.552765 388.62455 c 2
 343.6484681 387.21439 l 1
 344.6875281 386.255406 l 2
 351.2910481 380.149936 357.2773281 372.098206 364.3555281 365.149006 c 0
 371.2373681 358.393146 379.4698281 352.695906 390.2442281 351.561106 c 2
 436.5274281 331.322806 l 1
 437.8614081 331.805228 l 2
 442.7744981 333.584528 450.6124081 333.371638 456.9259081 337.535698 c 0
 460.0831381 339.617728 462.6094981 343.190968 463.3184881 347.939998 c 0
 464.0274721 352.689998 463.2423162 358.543498 460.7657581 366.375498 c 2
 460.5841171 366.95167 l 1
 423.5646171 416.32467 l 2
 417.2921571 426.21725 411.9162171 436.43307 405.9396171 445.04927 c 0
 399.9425471 453.69575 393.2140171 460.92227 384.0099171 463.88717 c 2
 383.086 464.186 l 1
EndSplineSet
Validated: 524841
EndChar

StartChar: "+MLAw6jDV 33"
Encoding: 33 12516 32
Width: 534
Flags: W
LayerCount: 2
Fore
SplineSet
137.137 702.229 m 1
 139.47098 693.59814 l 1
 159.58038 619.21634 l 1
 167.48663 554.07674 l 1
 79.16243 535.62464 l 1
 61.42223 531.54456 l 1
 61.211292 531.4801069 l 2
 59.149772 530.8580369 55.673202 530.5406539 51.658562 528.4156569 c 0
 47.644892 526.2896769 43.893912 521.7213169 42.418332 515.5445569 c 2
 27.865632 460.4566569 l 2
 26.929109 458.2252069 26.066802 455.3795069 27.9613351 451.9683769 c 0
 28.9818451 450.1314669 30.8138751 448.8463069 32.2953151 448.3023569 c 0
 33.7777351 447.7584119 34.9837951 447.6968879 36.0394551 447.7125129 c 0
 40.1410151 447.7711067 43.2347651 449.0435629 46.5023551 450.1324329 c 2
 177.4963551 479.7633329 l 1
 206.4963551 313.5113329 l 1
 218.4494551 263.5660329 l 1
 225.8693751 224.0924329 l 1
 226.0060941 223.6783709 l 2
 229.4377341 213.2232709 237.9503941 207.3170709 246.6642941 205.3931709 c 0
 255.3781641 203.4703209 264.5499941 204.3062609 273.1954941 204.8794989 c 2
 273.9494001 204.928327 l 1
 274.6740091 205.14903 l 2
 281.7892391 207.30137 286.7502091 212.24376 289.5685091 217.47913 c 0
 292.3868091 222.7145 293.5860891 228.17833 294.8087391 233.04163 c 2
 295.1583481 234.43225 l 1
 283.8849481 296.33265 l 1
 258.1505481 466.44965 l 1
 253.3185181 496.92235 l 1
 375.6755181 524.60395 l 1
 375.9821591 524.328559 l 1
 353.4665591 473.976959 l 1
 353.4665591 446.193759 l 1
 354.0466371 444.900789 l 2
 359.8747571 431.902789 367.1618371 418.366589 381.6618371 412.902789 c 2
 382.0973841 412.738727 l 1
 394.8746841 409.879347 l 1
 395.2457781 409.8402845 l 2
 403.2740981 408.9750505 409.8893781 411.5053245 413.9195781 415.3578645 c 0
 417.9497781 419.2104045 419.7935981 423.3949745 421.6109881 426.0004645 c 2
 421.8902851 426.4008555 l 1
 457.8453851 498.7563555 l 1
 487.3238851 546.9829555 l 1
 505.1695851 586.6294555 l 1
 457.5504851 627.6567555 l 1
 420.8277851 619.7485555 l 1
 397.7554851 611.7036355 l 1
 241.1284851 573.9575355 l 1
 233.2827851 623.5356355 l 1
 218.5620851 686.8598355 l 2
 218.2427491 691.0453855 216.5142351 695.1283855 213.3277051 697.4457355 c 0
 209.8999751 699.9379255 206.2046551 700.2553055 202.9507051 700.1762055 c 2
 137.137 702.229 l 1
EndSplineSet
Validated: 524809
EndChar

StartChar: "+MLAw6jDV 34"
Encoding: 34 12518 33
Width: 558
Flags: W
LayerCount: 2
Fore
SplineSet
376.885 590.523 m 1
 372.82836 590.202688 l 1
 335.65846 587.272998 l 1
 239.14286 585.308158 l 1
 162.43776 587.280818 l 1
 162.197526 587.2554274 l 2
 148.075426 585.8110874 141.600826 576.5581274 136.320526 569.0093274 c 2
 136.2248229 568.8706554 l 1
 101.9963229 509.1060554 l 2
 100.8986629 507.6998054 100.0558929 506.2720754 99.8283529 504.4410154 c 0
 99.5842119 502.4742154 100.5969079 500.1685554 102.0197629 498.9927754 c 0
 104.8654629 496.6421854 108.0734729 496.5435554 112.1037629 496.4302754 c 2
 112.2404819 496.42832228 l 1
 266.5214819 503.29551228 l 1
 320.1327819 506.03770228 l 1
 323.7402019 397.40270228 l 2
 323.7245769 397.19176428 321.7460619 368.29630228 320.2734019 351.51990228 c 1
 189.4004019 349.43982228 l 1
 100.1094019 347.49451228 l 1
 65.6582019 353.77576228 l 1
 22.0410019 279.00036228 l 2
 19.9179519 276.43005228 18.5253819 274.15466228 18.2167819 271.57848228 c 0
 17.8876799 268.82750228 19.4531119 266.05993228 21.2714719 264.70153228 c 0
 24.9081919 261.98571228 29.1943219 261.66149228 32.2245719 260.73083228 c 2
 32.8730099 260.53161328 l 1
 214.7770099 271.33241328 l 1
 448.6580099 272.31483528 l 1
 492.8455099 265.31678528 l 1
 493.9080099 265.83241028 l 2
 503.1892599 270.32948028 511.4402099 275.55311028 517.2713099 282.51211028 c 0
 522.9744299 289.31973028 526.1023599 297.96421028 525.2322499 308.15661028 c 0
 526.5603699 316.07556028 525.6013909 323.03451028 522.1560799 328.55891028 c 0
 518.6541299 334.17414028 512.8377199 338.03157028 505.5408799 340.43591028 c 2
 504.9666609 340.62341028 l 1
 486.4432609 340.62341028 l 1
 406.0037609 349.85388028 l 2
 406.0467297 350.40954428 406.0857921 350.77770828 406.1326669 351.44958028 c 0
 406.3582529 354.69763028 406.6268079 359.30114028 406.9334479 364.98278028 c 0
 407.5477059 376.34708028 408.3133279 392.01008028 409.1814979 409.54528028 c 0
 410.8846179 443.97598028 412.9783779 485.38608028 415.0408779 515.66628028 c 1
 421.2566979 519.24343028 426.9392779 525.38796028 431.0408779 536.08618028 c 2
 431.8143159 538.10766028 l 1
 430.4607959 539.78930028 l 2
 414.4685959 559.70040028 398.6531959 581.77470028 376.8845959 589.05690028 c 1
 376.8845959 590.52272028 l 1
 376.885 590.523 l 1
EndSplineSet
Validated: 524809
EndChar

StartChar: "+MLAw6jDV 35"
Encoding: 35 12520 34
Width: 412
Flags: W
LayerCount: 2
Fore
SplineSet
298.969 627.135 m 1
 297.91627 627.1017969 l 2
 295.47584 627.0246485 292.78346 626.9182029 289.88697 626.6584379 c 2
 287.44947 626.4416409 l 1
 277.5608 620.5139109 l 1
 188.9241 617.0803209 l 1
 126.7229 618.6018009 l 1
 126.498291 618.5939884 l 2
 123.798091 618.5461368 120.948491 618.4172304 117.533451 617.1994584 c 0
 114.311771 616.0510184 110.099861 613.0021884 108.261971 608.5725084 c 2
 79.533471 544.3323084 l 1
 79.533471 542.0549684 l 1
 79.533471 542.1916874 77.593041 539.6184484 80.652611 532.9084884 c 0
 82.182881 529.5539984 86.598901 526.2805584 90.078391 525.6116084 c 0
 92.845971 525.0803584 95.025661 525.3645384 97.181911 525.8166864 c 2
 246.546911 526.3225454 l 1
 267.959011 529.4748854 l 1
 270.031281 517.7990854 l 1
 270.031281 467.0607854 l 1
 241.892581 464.3518054 l 1
 150.007781 464.3518054 l 1
 143.376921 464.7326644 l 2
 142.083951 465.7736844 140.655241 466.7131344 138.994111 467.3029744 c 0
 134.655241 468.8449644 130.314421 468.3703544 126.365211 467.1857864 c 2
 122.107401 465.9084464 l 1
 90.888601 407.4162464 l 1
 90.685476 405.2931964 l 2
 90.224538 400.4865564 90.153249 394.6661964 93.033136 388.7560964 c 0
 95.912046 382.8459364 101.850516 378.0988964 109.042936 375.6681964 c 2
 111.124966 374.9650714 l 1
 133.453066 376.7560914 l 1
 170.046866 387.7912914 l 1
 270.263866 388.5627754 l 1
 270.508007 325.9494754 l 1
 159.914007 322.7209554 l 1
 109.638607 326.9553354 l 1
 96.142507 338.1155354 l 1
 90.646417 336.4338954 l 2
 87.539967 335.4837004 83.876887 334.1477654 80.525317 331.2170954 c 0
 77.172777 328.2864354 74.917897 324.2239354 73.503837 319.9650954 c 2
 73.49407138 319.9299392 l 1
 53.82217138 259.3967392 l 2
 52.30166138 256.3391192 51.11514138 253.2629492 50.90029138 249.6018192 c 0
 50.65126838 245.3723292 52.41396138 240.0256492 55.84365138 236.8362192 c 0
 62.53701138 230.6106292 69.59265138 231.2180592 77.04485138 231.9592692 c 2
 204.06885138 234.4768492 l 1
 278.35205138 237.9729392 l 1
 309.74655138 231.5002792 l 1
 310.54733238 231.4573104 l 2
 321.77583238 230.8577014 332.47603238 231.6555524 342.28753238 235.6819204 c 0
 352.10003238 239.7082904 360.60883238 247.3030204 366.17233238 257.9280204 c 2
 367.02780138 259.5627904 l 1
 367.28561338 261.3909104 l 2
 369.73873338 278.8098104 370.28463338 297.9544104 361.26608338 316.4690104 c 1
 357.85983338 543.2790104 l 2
 358.97799338 544.0114324 360.10104338 544.6169004 361.19186338 545.6383904 c 0
 364.78170338 548.9948404 367.50436338 553.9811604 368.68600338 559.6266904 c 2
 369.09030038 561.5524704 l 1
 368.77975338 563.4958304 l 2
 367.46823338 571.7155604 366.71823338 581.2067304 363.89694338 590.7907304 c 0
 361.07565338 600.3737404 355.53171338 610.4938304 345.14104338 616.9762304 c 2
 344.45940238 617.4020114 l 1
 343.72112138 617.7203704 l 2
 332.01212138 622.7740804 318.34412138 626.9459604 301.46522138 627.1168504 c 0
 300.70154938 627.1246629 299.91639138 627.11196759 299.13319138 627.1051316 c 2
 298.969 627.135 l 1
EndSplineSet
Validated: 524841
EndChar

StartChar: "+MLAw6jDV 36"
Encoding: 36 12527 35
Width: 588
Flags: W
LayerCount: 2
Fore
SplineSet
165.809 683.801 m 1
 178.0063 660.5198 l 1
 175.77778 513.0408 l 1
 165.79926 448.7381 l 1
 199.05906 399.9432 l 1
 237.87546 414.3553 l 1
 237.87546 470.91 l 1
 240.5903 599.807 l 1
 409.4353 607.23278 l 1
 421.9314 579.57258 l 1
 410.8455 421.00758 l 1
 325.4627 226.97458 l 1
 223.4507 126.07258 l 1
 39.0997 44.88018 139.9966 81.14288 232.31984 113.87528 c 1
 393.10384 236.95328 l 1
 478.48664 412.14028 l 1
 494.00614 585.11928 l 1
 488.83426 612.91808 l 1
 516.18196 637.22858 l 1
 531.70346 658.29498 l 1
 500.66046 656.07623 l 1
 241.56046 646.20318 l 1
 242.312413 681.58988 l 1
 165.809 683.801 l 1
EndSplineSet
Validated: 524809
EndChar

StartChar: "+MLAw6jDV 37"
Encoding: 37 12530 36
Width: 493
Flags: W
LayerCount: 2
Fore
SplineSet
383.951 701.578 m 1
 368.4451 689.1737 l 1
 140.4981 678.3182 l 1
 132.35748 685.29672 l 2
 130.80475 685.29672 93.97858 609.31432 93.97858 609.31432 c 2
 91.33405 605.08483 94.0166659 604.57506 98.63092 605.43737 c 2
 363.01992 605.43737 l 1
 362.244529 523.25187 l 1
 131.970529 514.72257 l 2
 126.575019 517.3173 122.976389 520.51261 108.708829 520.1503 c 1
 87.001829 453.4726 l 1
 356.816829 467.4277 l 1
 353.715269 411.6035 l 1
 273.080469 285.9995 l 1
 144.375469 199.937 l 1
 36.628469 165.311 113.452569 184.4673 153.678199 192.95848 c 1
 351.387199 297.63148 l 1
 401.011199 382.91668 l 1
 420.393999 494.56368 l 1
 428.923299 653.50668 l 1
 439.003399 655.05746 l 1
 431.425279 675.95006 405.143999 687.49006 383.952599 701.57696 c 2
 383.951 701.578 l 1
EndSplineSet
Validated: 524809
EndChar

StartChar: "+MLAw6jDV 38"
Encoding: 38 12531 37
Width: 538
Flags: W
LayerCount: 2
Fore
SplineSet
475.357 676.102 m 1
 235.498 327.99 l 2
 222.2822 310.7722 202.1259 302.4793 180.8066 295.6795 c 1
 73.9236 291.95294 l 1
 36.6443 231.04864 l 1
 51.3884 226.73614 67.1697 223.46466 75.1658 212.40804 c 1
 240.4668 221.10726 l 2
 259.2285 224.71468 277.7988 228.51253 283.9609 244.71856 c 2
 421.9099 510.68756 l 1
 426.87865 561.63676 l 1
 475.357 676.102 l 1
90.4531 642.705 m 1
 76.997 638.0927 86.96091 630.29 90.45505312 623.3671 c 2
 182.72265312 481.0041 l 1
 179.21484312 456.3967 l 1
 241.05664312 523.7268 l 2
 250.05371312 532.06957 248.35742312 532.25707 240.27929912 540.3264 c 2
 160.74999912 619.8576 l 2
 151.70409912 634.2638 94.37789912 641.8195 90.45309912 642.7053 c 1
 90.45309912 642.7053 l 1
 90.4531 642.705 l 1
EndSplineSet
Validated: 524805
EndChar

StartChar: "+MLAw6jDV 39"
Encoding: 39 12450 38
Width: 565
Flags: W
LayerCount: 2
Fore
SplineSet
163.768 746.549 m 1
 124.8676 660.5998 l 2
 123.02971 658.12519 120.93596 655.54707 129.33244 657.16621 c 2
 427.66444 656.1291 l 1
 442.38324 636.1545 l 1
 390.86564 503.6795 l 1
 361.42814 476.3436 l 1
 370.88908 562.5565 l 1
 277.31678 615.1268 l 1
 301.49838 568.8651 l 1
 265.75228 319.6871 l 1
 191.10388 213.4981 l 1
 16.11088 147.542 133.22988 183.1895 204.77188 202.9844 c 1
 303.60198 292.3516 l 1
 350.91248 370.1543 l 1
 365.63318 452.1621 l 1
 424.51018 490.0117 l 1
 524.39108 605.6637 l 1
 496.00438 732.8807 l 1
 515.98188 745.4979 l 1
 174.28288 740.24009 l 2
 170.02214 739.415871 168.83561 746.26841 163.76918 746.54868 c 2
 163.768203438 746.54868 l 1
 163.768 746.549 l 1
EndSplineSet
Validated: 524809
EndChar

StartChar: "+MLAw6jDV 40"
Encoding: 40 12454 39
Width: 490
Flags: W
LayerCount: 2
Fore
SplineSet
217.586 780.119 m 2
 214.81061 780.1629453 212.25788 779.820172 209.961 779.02916 c 2
 219.15241 657.55616 l 1
 278.57431 695.41656 l 1
 287.7247 737.45656 l 1
 296.06454 744.00344 l 1
 267.30084 760.58154 237.01574 779.81204 217.58604 780.11774 c 1
 217.58604 780.118716562 l 1
 217.586 780.119 l 2
42.4531 696.307 m 1
 67.0664 416.604 l 1
 129.2207 468.2954 l 2
 140.0117 474.92919 136.48144 480.5112 134.62695 492.0395 c 2
 123.99605 558.1176 l 1
 132.1855 574.1586 l 1
 129.01167 579.92227 l 1
 323.75767 586.46915 l 2
 337.24887 589.03751 332.65122 579.61563 331.869 571.00435 c 0
 327.99595 528.32365 320.1346 432.74835 320.1346 432.74835 c 1
 95.4396 192.74235 l 1
 145.9923 216.19355 182.1818 256.08125 247.0976 263.09585 c 1
 404.6876 421.51785 l 1
 417.754 638.54085 l 1
 437.5489 651.54285 l 1
 84.3219 661.14246 l 1
 75.85706 681.13076 69.4244 692.74406 42.4518 696.30656 c 1
 42.452776562 696.30656 l 1
 42.4531 696.307 l 1
EndSplineSet
Validated: 524805
EndChar

StartChar: "+MLAw6jDV 41"
Encoding: 41 12452 40
Width: 481
Flags: W
LayerCount: 2
Fore
SplineSet
353.818 745.734 m 1
 349.64027 745.7222812 346.95667 745.121695 346.5055 743.74962 c 2
 356.7965 723.16762 l 1
 356.7965 723.16762 362.66759 649.40002 363.65783 643.41762 c 0
 366.47717 626.38242 310.02303 529.87962 309.62663 531.07062 c 1
 103.82263 289.24262 l 1
 24.46523 209.89982 66.23863 238.48192 109.81677 268.66252 c 2
 298.13077 420.52552 l 1
 301.91007 361.27942 l 1
 295.05069 197.47842 l 1
 300.20303 80.84942 l 1
 313.92373 135.73422 l 1
 313.92373 135.73422 324.21083 209.49202 325.06823 212.92172 c 0
 325.924675 216.35141 357.65023 333.83572 357.65023 333.83572 c 1
 365.9725 475.22872 l 1
 375.66781 483.04708 l 1
 410.82601 522.50218 l 1
 446.99981 593.92018 439.24201 660.45918 435.69121 727.46318 c 0
 435.145312 730.74638 378.42071 744.97298 355.69511 745.70338 c 1
 355.69511 745.70142688 l 1
 355.039837 745.72388778 354.41288 745.73658308 353.8162 745.73267688 c 1
 353.818 745.734 l 1
EndSplineSet
Validated: 524841
EndChar

StartChar: "+MLAw6jDV 42"
Encoding: 42 12456 41
Width: 706
Flags: W
LayerCount: 2
Fore
SplineSet
145.66 637.836 m 1
 130.4959 612.7208 l 1
 132.32207 606.88975 97.783 573.7032 97.783 573.7032 c 1
 112.8504 550.9737 187.2566 575.58113 231.994 576.51765 c 1
 249.7401 521.64655 l 1
 228.8514 374.17555 l 1
 219.11117 372.97047 l 1
 60.37317 375.8943 l 1
 44.16417 362.4168 30.50887 347.2752 30.49427 323.242 c 0
 30.4190747 317.3172 22.77845 309.0174 34.24036 306.6854 c 2
 174.69936 318.0057 l 1
 330.86336 315.01937 l 1
 505.58036 329.14047 l 1
 597.69166 356.90027 l 1
 635.87716 359.45203 642.87326 364.78797 660.07056 369.21277 c 1
 610.96116 380.73817 l 1
 327.79516 386.4452 l 1
 305.34596 383.65614 l 1
 308.48854 499.59214 l 1
 314.26979 578.23084 l 1
 349.86159 578.973028 l 1
 432.71709 597.676128 l 1
 459.22299 607.762028 481.15169 618.210328 482.69759 630.262028 c 1
 360.79259 636.056948 l 1
 145.66 637.836 l 1
EndSplineSet
Validated: 524841
EndChar

StartChar: "+MLAw6jDV 43"
Encoding: 43 12458 42
Width: 706
Flags: W
LayerCount: 2
Fore
SplineSet
374.633 775.162 m 1
 397.0705 739.3925 l 1
 391.64081 675.5937 l 1
 252.74781 669.65229 l 2
 237.91281 666.39545 216.97631 666.95014 213.93921 656.32029 c 1
 187.82981 654.34666 238.64821 604.51759 266.09351 602.94919 c 2
 376.58551 606.35349 l 1
 297.01711 459.84949 l 1
 238.80621 371.31039 l 1
 98.72221 297.33189 l 2
 44.58941 271.19319 70.58651 277.10729 106.60502 287.02919 c 2
 220.60702 316.12689 l 2
 249.08842 323.44916 273.59142 338.72939 293.98792 362.22259 c 2
 390.83752 504.80459 l 1
 389.18322 378.58259 l 1
 389.790642 291.86869 l 1
 326.726142 203.34139 l 1
 291.089442 170.29059 317.667552 188.25639 337.042542 200.31405 c 0
 374.606042 227.46055 417.452742 244.03765 449.218542 282.78285 c 1
 449.827917 405.27385 l 1
 460.740017 576.87785 l 1
 464.868927 610.75485 l 1
 528.659927 614.46969 l 1
 552.881627 630.72559 578.361127 647.12199 582.624727 661.16109 c 1
 663.792727 691.17769 624.595427 683.32709 609.302427 682.99699 c 2
 466.951427 678.16887 l 1
 462.562757 738.78797 l 1
 468.497327 739.91981 471.971937 747.20301 474.693657 756.36607 c 1
 445.901657 777.45587 409.575457 774.05747 374.632657 775.16097 c 2
 374.63070388 775.16097 l 1
 374.631680442 775.16097 l 1
 374.633 775.162 l 1
EndSplineSet
Validated: 524837
EndChar

StartChar: "+MLAw6jDV 44"
Encoding: 44 12459 43
Width: 634
Flags: W
LayerCount: 2
Fore
SplineSet
258.318 793.092 m 1
 258.864875 652.854 l 1
 219.747675 650.27197 l 1
 205.633375 636.26707 193.812175 620.01417 188.898075 596.99557 c 1
 206.177375 579.40867 228.968375 568.90967 254.452775 561.87157 c 1
 259.237935 559.23485 l 1
 259.855123 400.91385 l 1
 48.535123 75.61485 l 2
 34.543923 56.01715 28.343723 44.10705 50.074183 59.75545 c 1
 306.133183 365.77345 l 1
 321.558983 406.57615 l 1
 332.082383 559.35515 l 1
 421.049183 570.93715 l 1
 433.726883 579.35512 l 1
 451.131183 528.98792 l 1
 427.219083 303.44692 l 1
 304.596083 262.64422 l 1
 317.705483 256.96453 l 1
 296.877383 236.57003 l 1
 319.291483 235.773155 326.280683 230.8503 364.234783 234.20089 c 1
 391.729883 226.42941 423.305083 225.85616 458.068783 230.90401 c 0
 476.375383 232.12569 481.847083 241.73211 487.383283 251.29661 c 2
 506.662583 322.70681 l 1
 502.353993 624.96081 l 1
 542.133293 651.39441 l 2
 569.137193 666.41301 549.418453 666.50571 545.998523 671.80461 c 1
 338.894523 658.13471 l 1
 346.240223 764.73871 l 1
 346.240223 764.73871 271.433623 785.15281 258.322223 793.08641 c 1
 258.318 793.092 l 1
EndSplineSet
Validated: 524841
EndChar

StartChar: "+MLAw6jDV 45"
Encoding: 45 12461 44
Width: 580
Flags: W
LayerCount: 2
Fore
SplineSet
201.506 814.135 m 1
 189.6632 814.12816406 178.7833 813.672109 171.2267 812.82055 c 1
 171.22474688 812.81469062 l 1
 172.85755688 795.83029062 l 1
 189.10755688 715.78339062 l 1
 193.39271688 686.82639062 l 1
 149.06261688 683.11155062 l 1
 111.72081688 680.10764062 l 1
 90.75791688 671.17209062 75.74231688 657.79804062 72.07241688 635.95534062 c 1
 198.47441688 632.95143062 l 1
 201.28300688 633.34010262 l 1
 210.23222688 572.68190262 l 1
 216.66581688 534.23660262 l 1
 107.12281688 528.32254262 l 1
 91.60131688 527.46707362 l 1
 57.23121688 509.67017362 49.95771688 487.82937362 35.87471688 467.00417362 c 1
 122.62861688 461.43776362 l 1
 227.19361688 464.44167362 l 1
 228.33814688 464.56472062 l 1
 231.35376688 446.55882062 l 1
 275.23466688 194.29882062 l 1
 308.83036688 52.16282062 314.48266688 137.94822062 310.98076688 174.89452062 c 2
 309.34990688 263.42182062 l 1
 304.47685688 396.83982062 l 1
 289.42215688 470.80462062 l 1
 353.00415688 477.30267062 l 1
 425.97095688 528.75577062 l 1
 523.68185688 563.17867062 511.94265688 566.09557062 458.71505688 557.06627062 c 2
 281.77505688 537.76547062 l 1
 275.87661688 537.44125162 l 1
 257.35511688 628.47835162 l 1
 256.62660088 640.89245162 l 1
 299.01530088 646.67956162 l 1
 328.54560088 656.63952162 342.01240088 671.09456162 354.53870088 685.81436162 c 1
 411.09630088 699.19716162 414.95180088 714.93256162 395.75550088 707.33776162 c 1
 253.66050088 691.86706162 l 1
 249.23667088 767.94326162 l 2
 245.76011088 785.58876162 259.32257088 792.33196162 270.36167088 800.69126162 c 0
 281.23277088 810.14243162 237.03457088 814.15606162 201.50427088 814.13466162 c 1
 201.505247442 814.13466162 l 1
 201.506 814.135 l 1
EndSplineSet
Validated: 524837
EndChar

StartChar: "+MLAw6jDV 46"
Encoding: 46 12465 45
Width: 556
Flags: W
LayerCount: 2
Fore
SplineSet
133.309 761.205 m 1
 136.78752 757.26945 l 1
 126.88127 755.52726 l 1
 126.88127 750.47843 l 1
 128.41643 750.287024 l 1
 140.18983 717.718624 l 1
 123.17423 632.634624 l 1
 60.89303 512.029624 l 2
 48.17233 495.420224 40.29733 484.246424 36.36373 477.156624 c 0
 34.36568 473.556034 32.78561 471.630254 33.13717 467.308964 c 0
 33.2260372 466.228884 33.583459 464.820684 34.57662 463.553104 c 0
 35.570761 462.286504 37.12935 461.449584 38.38717 461.168334 c 0
 40.90377 460.605834 42.33346 461.2288809 43.69381 461.744506 c 0
 49.13717 463.809936 55.08441 468.515986 63.58051 475.363606 c 0
 72.07758 482.212236 82.38521 491.092106 93.44771 500.816706 c 2
 93.965288 501.273737 l 1
 179.557088 624.388737 l 1
 301.926088 630.722717 l 1
 293.857728 487.027717 l 1
 262.654628 382.493717 l 1
 140.972628 256.874717 l 1
 83.327128 225.099317 52.831028 207.616917 40.304628 199.488017 c 0
 37.148378 197.439187 35.195248 196.104227 33.624938 194.646217 c 0
 33.23236 194.281959 32.847594 193.917701 32.392518 193.302467 c 0
 31.93744 192.686256 31.079038 191.862037 31.099548 189.472387 c 0
 31.10931362 188.277077 31.642517 186.685277 32.554628 185.640357 c 0
 33.466739 184.595437 34.493108 184.122777 35.226508 183.884497 c 0
 36.692328 183.406958 37.385688 183.548559 37.994088 183.603247 c 0
 40.425728 183.819067 41.863228 184.461645 44.365178 185.374727 c 0
 46.867128 186.286836 49.948188 187.521207 53.533148 189.021207 c 0
 67.872948 195.020227 90.205048 205.245807 110.765548 214.532907 c 0
 131.326048 223.820007 150.679648 232.310207 156.562448 234.140307 c 2
 157.35151 234.382495 l 1
 315.31851 339.966495 l 1
 361.53531 454.296495 l 1
 381.54121 580.734495 l 1
 386.25801 635.093895 l 1
 423.26391 637.021625 l 1
 460.37131 666.047025 l 1
 477.97481 670.482575 490.47381 673.914215 498.26391 676.455225 c 0
 502.28637 677.767725 505.15453 678.835105 507.34985 679.910305 c 0
 508.44751 680.448391 509.37133 680.936675 510.4143 681.830225 c 0
 510.935784 682.277491 511.52563 682.831205 512.09008 683.838035 c 0
 512.65453 684.844865 513.14477 686.558735 512.767814 688.265765 c 0
 512.014884 691.680805 509.589104 692.574355 508.398674 693.013815 c 0
 507.209224 693.453268 506.261954 693.58901 505.217034 693.714987 c 0
 503.128164 693.96694 500.722894 694.015768 497.842034 693.980612 c 0
 492.255124 693.9122526 484.918234 693.456198 477.062734 692.902492 c 2
 447.453334 696.910302 l 1
 392.908434 690.496242 l 1
 206.959434 683.838042 l 1
 214.322714 711.468942 l 2
 215.843224 715.136912 215.01412 719.392772 213.240684 722.408442 c 0
 211.365684 725.598872 208.642054 728.170162 205.379354 730.697502 c 0
 198.855914 735.753162 189.949654 740.471912 180.465254 744.797102 c 0
 170.981854 749.122302 160.964254 752.977762 152.488654 755.869402 c 0
 144.014044 758.761002 137.586354 760.673112 133.308954 761.207292 c 1
 133.308954 761.206315438 l 1
 133.309 761.205 l 1
EndSplineSet
Validated: 524809
EndChar

StartChar: "+MLAw6jDV 47"
Encoding: 47 12463 46
Width: 384
Flags: W
LayerCount: 2
Fore
SplineSet
154.508 806.199 m 2
 153.986516 806.2068125 153.43671 806.19607031 152.69941 805.954859 c 0
 151.96211 805.71364769 150.83808 805.038843 150.32246 803.814239 c 2
 150.062694 803.193145 l 1
 150.062694 802.382598 l 1
 150.078319 802.241973 l 2
 150.468944 797.751743 151.223829 793.486113 151.207229 789.698973 c 0
 151.1925806 785.911863 150.526565 782.739013 148.174029 779.681373 c 2
 147.937701 779.380592 l 1
 91.304901 654.499592 l 1
 51.117401 594.220292 l 1
 51.0881041 594.1812295 l 2
 47.7697441 588.8804495 43.8996241 583.0064295 40.7014041 577.7789295 c 0
 37.5031641 572.5504095 34.9377341 568.4224795 34.2053141 564.6090295 c 0
 34.0226971 563.6549275 33.8762121 562.5924295 34.4260171 561.2516095 c 0
 34.9758221 559.9098095 36.6760171 558.7525895 37.9924271 558.6012195 c 0
 40.6262171 558.2965315 42.2521971 559.3297355 44.8049271 560.7926295 c 0
 49.9103971 563.7164595 57.7951271 569.6500495 70.1779271 580.0231295 c 2
 70.3107391 580.1344575 l 1
 190.9747391 705.2854575 l 1
 260.6290391 704.5022545 l 1
 260.1837271 701.2034245 257.4542391 680.9397545 254.1270891 657.0881545 c 0
 252.3331391 644.2287545 250.4972091 631.2912545 249.0333391 621.4201545 c 0
 248.3018941 616.4846045 247.6651791 612.3127345 247.1720091 609.3205545 c 0
 246.9259151 607.8244645 246.7140011 606.6223145 246.5528681 605.7912545 c 0
 246.47279 605.3762155 246.4073601 605.0519965 246.3614621 604.8615665 c 0
 246.3390012 604.7668399 246.2852902 604.6564885 246.2774777 604.6486755 c 0
 246.0157587 604.0490665 246.0870477 603.9533635 246.0216187 603.6291455 c 0
 245.9434937 603.2404735 245.8653687 602.7883255 245.7774777 602.2346155 c 0
 245.6016967 601.1271955 245.3878297 599.6369555 245.1427117 597.7912555 c 0
 244.6524777 594.1008255 244.0265017 589.0002355 243.3126317 582.9592555 c 0
 241.8849017 570.8772555 240.1065817 555.0305555 238.3653617 539.2600555 c 0
 234.8956317 507.8264555 231.6124317 476.9309555 231.5899717 476.7190555 c 0
 224.5528617 440.8098555 221.1622717 412.8264555 211.2891717 385.1780555 c 1
 141.9356717 298.4026555 l 1
 97.6221717 259.7249555 68.9727717 233.6487555 53.0879717 217.8147555 c 0
 45.1231317 209.8753055 40.4004717 204.6711555 38.1328717 201.0061555 c 0
 37.5664657 200.0901395 37.1221317 199.2805655 36.8555317 198.2307655 c 0
 36.5889297 197.1819355 36.5713517 195.3079155 37.8965517 194.0159255 c 0
 39.2217517 192.7249055 40.6670617 192.7629955 41.6602217 192.8577255 c 0
 42.6533857 192.9534286 43.5362017 193.2102645 44.5332717 193.5647565 c 0
 48.5225317 194.9856565 54.3135417 198.2004965 62.2793717 203.0725665 c 0
 70.2451917 207.9456165 80.2256717 214.4563665 91.8867717 222.3108665 c 0
 115.2090717 238.0217665 145.2217717 259.1145665 178.8906717 283.1526665 c 2
 179.1777807 283.3596975 l 1
 179.4141087 283.6175095 l 2
 230.6123087 340.0335095 280.6041087 396.6975095 298.4771087 456.4125095 c 2
 298.5288665 456.5980565 l 1
 340.4438665 698.2380565 l 1
 345.8911365 705.0847365 353.5561665 712.1628565 353.9223665 724.8259565 c 2
 353.961429 726.0661865 l 1
 353.170413 727.0271245 l 2
 336.891113 746.8250245 313.504413 755.9050245 289.900913 763.6560245 c 2
 288.785683 764.0251655 l 1
 255.590383 751.3649655 l 1
 224.533783 749.7399655 l 1
 227.869723 772.2770655 l 1
 227.869723 772.5212065 l 2
 227.869723 774.6042165 227.040621 774.8385865 226.690033 775.1852665 c 0
 226.338471 775.5309695 226.036713 775.7575325 225.699799 775.9977665 c 0
 225.024018 776.4782355 224.216399 776.9674935 223.213469 777.5407365 c 0
 221.206629 778.6872165 218.453699 780.1169065 215.150969 781.7555765 c 0
 208.544519 785.0319465 199.779869 789.1081165 190.945869 792.9840765 c 0
 182.111889 796.8590765 173.230069 800.5260665 166.350169 803.0074765 c 0
 162.909739 804.2477065 159.991769 805.1939965 157.684149 805.7320865 c 0
 156.529849 806.0006415 155.554269 806.1813055 154.510319 806.1969305 c 2
 154.508 806.199 l 2
EndSplineSet
Validated: 524809
EndChar

StartChar: "+MLAw6jDV 48"
Encoding: 48 12467 47
Width: 434
Flags: W
LayerCount: 2
Fore
SplineSet
337.16 713.088 m 1
 332.99789 709.18956 l 1
 310.44519 708.209091 l 1
 157.86119 690.033291 l 1
 111.77719 679.736391 l 1
 111.519378 680.785221 l 1
 104.579928 678.289131 l 2
 104.399264 678.2237013 104.198092 678.176826 103.995944 678.156319 c 2
 92.525244 677.152409 l 1
 91.115084 673.091859 l 2
 83.483244 651.100659 77.937384 630.452259 78.122884 609.992259 c 2
 78.1971028 602.123119 l 1
 281.7151028 638.767619 l 1
 289.6877628 639.910199 l 1
 293.0178428 630.994179 l 1
 312.8967428 543.732479 l 2
 312.89381311 543.347713 312.7629538 541.548889 312.0041648 538.019589 c 2
 266.1252648 424.927589 l 2
 264.8615948 424.280128 263.5168648 423.883639 262.0725348 422.757669 c 0
 260.1125748 421.229349 257.2434348 418.518409 254.1369848 415.509619 c 2
 82.1309848 404.828019 l 1
 80.6466048 403.837785 l 2
 59.8605048 390.017485 48.6339048 370.915885 41.0372048 349.611185 c 2
 38.3262648 342.015485 l 1
 93.4258648 333.710795 l 1
 283.3478648 345.322095 l 1
 285.1623148 347.300615 l 2
 325.6721148 391.553515 353.6887148 436.561315 371.0139148 482.408615 c 1
 370.9846179 482.3207244 l 2
 370.9338367 482.1908414 370.9133288 482.1615444 371.0061023 482.3656463 c 2
 372.8967223 486.5511963 l 1
 372.4162533 487.0297123 l 1
 383.3185533 516.5375123 383.2853533 546.1547123 378.3967233 576.7934123 c 1
 378.3967233 583.3266123 l 1
 377.4514113 583.3266123 l 1
 371.6291413 629.0707123 362.4299113 671.7719123 341.4123113 706.1346123 c 2
 337.16 713.088 l 1
264.465 419.244 m 1
 264.4464453 419.2098203 264.511875 418.997906 264.4942969 418.956891 c 1
 264.49234378 418.9910707 264.4298438 419.0565004 264.4278907 419.08775 c 0
 264.42593758 419.1385312 264.4679298 419.198102 264.465 419.244 c 1
EndSplineSet
Validated: 524837
EndChar

StartChar: "+MLAw6jDV 49"
Encoding: 49 12469 48
Width: 610
Flags: W
LayerCount: 2
Fore
SplineSet
371.637 858.916 m 1
 356.0403 858.9540859 342.1136 857.14061 331.471 853.49412 c 2
 326.12725 851.66404 l 1
 326.510062 843.8906 l 1
 327.691702 842.15622 l 2
 331.331352 836.79392 331.299122 834.19235 334.320612 828.11522 c 0
 337.093072 822.541 342.590142 815.39942 353.615512 804.55862 c 1
 349.474892 694.01562 l 1
 248.439892 685.1289 l 1
 249.451612 703.4727 l 1
 267.824612 744.8399 l 1
 263.859772 748.4942 l 2
 241.914472 768.6934 212.070672 768.9258 187.531672 774.1387 c 2
 176.480872 776.48636 l 1
 182.799232 743.25396 l 1
 186.357822 680.31446 l 1
 162.326622 677.67969 l 1
 162.3695908 677.7587916 161.567833 678.091799 160.092242 679.14844 c 0
 158.066852 680.59961 155.251422 682.83496 151.115682 684.16016 c 0
 146.980912 685.48536 141.384232 685.29297 136.426182 682.64063 c 0
 131.591222 680.05372 127.184972 675.67481 122.412482 668.98243 c 0
 114.737682 660.72169 103.306982 652.52633 93.892982 642.75583 c 0
 84.378332 632.87985 76.541382 619.80463 80.072682 604.14063 c 2
 80.730885 601.21875 l 1
 83.217215 599.54883 l 2
 88.857835 595.77344 94.479915 595.95117 101.605915 595.95508 c 0
 108.732865 595.95898625 117.127415 596.640627 126.092215 597.56446 c 0
 144.022915 599.41212 164.271915 602.25391 178.857815 603.01173 c 2
 178.969143 603.0195425 l 1
 190.262143 603.9277455 l 1
 194.264093 516.6816455 l 1
 194.375421 516.1191455 l 2
 196.217221 506.9277355 198.250421 499.8252455 200.760191 494.2695455 c 0
 203.270931 488.7148555 206.243591 484.1826455 211.553191 481.9492455 c 0
 216.863741 479.7158455 222.996591 481.7246365 226.920391 484.8867455 c 0
 230.845191 488.0488555 233.970191 492.3301055 237.166491 497.6797455 c 2
 238.111803 499.2734955 l 1
 244.172353 608.2924955 l 1
 303.250453 613.0522655 l 1
 346.744553 612.8608595 l 1
 345.275803 495.5898595 l 1
 317.150803 425.3144595 l 1
 144.015803 258.0934595 l 1
 87.853703 222.5455595 58.352703 203.1647595 46.183803 194.1657595 c 0
 43.120323 191.9001395 41.246303 190.4802095 39.568573 188.7028695 c 0
 39.149628 188.2585335 38.72287 187.7995495 38.195523 186.9606795 c 0
 37.669156 186.1218125 36.533413 184.8415395 36.984583 181.5641995 c 0
 37.210169 179.9255295 38.250203 177.9411495 39.560753 176.8044295 c 0
 40.871303 175.6667295 42.144733 175.2692695 43.045133 175.0759095 c 0
 44.845913 174.6882145 45.649623 174.9030575 46.351773 175.0173157 c 0
 49.161343 175.4753237 50.556853 176.2526657 53.084193 177.3571557 c 0
 55.611533 178.4616457 58.680873 179.9157457 62.238493 181.6677057 c 0
 76.470893 188.6755157 98.448493 200.4021057 118.709193 211.0857057 c 0
 138.969893 221.7693057 158.189693 231.6248057 163.873293 233.8064057 c 2
 164.691652 234.1247647 l 1
 165.414308 234.6189057 l 2
 245.347908 289.1853057 332.739308 331.9011057 404.330308 408.4919057 c 2
 406.226788 410.5290157 l 1
 409.424058 488.3200157 l 1
 418.267808 612.5350157 l 1
 474.672108 612.2615777 l 1
 550.248308 617.3846277 l 1
 551.945578 621.9100177 l 2
 559.550068 642.1532177 552.761008 667.0526177 539.388978 695.2108177 c 2
 537.426088 699.3455877 l 1
 444.281588 702.3729277 l 1
 424.541388 700.6365977 l 1
 429.805058 774.6326977 l 1
 435.736698 787.0623977 442.104858 799.8553977 445.543358 812.0662977 c 0
 447.322658 818.3827077 448.356838 824.6072977 447.758198 830.7576977 c 0
 447.159558 836.9080977 444.635148 843.0808977 439.830468 847.7205977 c 2
 438.463278 849.0350477 l 1
 436.641008 849.5526257 l 2
 416.963308 855.0692257 396.752308 858.1375857 378.420308 858.7870057 c 0
 376.129288 858.8680604 373.865618 858.9100527 371.637108 858.9159117 c 1
 371.637108 858.9159117 l 1
 371.637 858.916 l 1
EndSplineSet
Validated: 524837
EndChar

StartChar: "+MLAw6jDV 50"
Encoding: 50 12471 49
Width: 522
Flags: W
LayerCount: 2
Fore
SplineSet
463.41 1002.01 m 1
 226.779 351.133 l 2
 224.90302 340.5119 208.9079 335.8918 196.7634 329.633 c 2
 32.5894 265.3713 l 1
 38.06401 257.03927 l 1
 117.85701 218.17597 l 1
 147.81601 211.60566 l 1
 256.25801 254.24046 305.73301 306.00316 332.22301 361.32266 c 1
 395.26991 597.75966 l 2
 398.62343 613.22646 404.05897 629.67076 394.867566 639.24596 c 1
 463.41 1002.01 l 1
191.877 676.355 m 0
 159.6319 676.19582 120.8477 672.37355 111.9512 670.98586 c 1
 109.01175 663.56398 91.0528 663.56398 116.19143 642.26906 c 0
 149.72463 612.49466 186.04393 594.65966 224.15843 584.52886 c 1
 253.43773 589.4732 271.19943 603.04346 253.58613 643.16166 c 1
 237.21313 669.58156 l 2
 232.94165 674.855 213.94063 676.4634 191.87723 676.355 c 1
 191.87723 676.355 l 1
 191.877 676.355 l 0
82.5781 547.545 m 2
 59.0449 543.96199 68.2129 530.8868 75.67966 518.3048 c 1
 163.17186 449.6505 l 2
 173.06053 440.42101 180.15036 446.54796 187.74026 449.93175 c 0
 212.10156 457.37316 209.46586 481.89955 201.43556 509.83995 c 0
 200.12306 523.58895 193.59767 530.90145 184.06836 534.50795 c 2
 184.06836 534.50795 89.74996 540.85854 82.57836 547.54505 c 1
 82.57836 547.54505 l 1
 82.5781 547.545 l 2
EndSplineSet
Validated: 524837
EndChar

StartChar: "+MLAw6jDV 51"
Encoding: 51 12473 50
Width: 924
Flags: W
LayerCount: 2
Fore
SplineSet
546.371 745.758 m 1
 546.371 745.75604688 l 1
 446.227 734.92014688 l 1
 368.5239 732.95920688 l 1
 361.7241 738.58518688 356.643 728.52072688 352.1313 713.26190688 c 2
 327.9594 659.09000688 l 1
 472.9924 676.82630688 l 1
 456.5862 580.30290688 l 1
 388.3831 466.06090688 l 1
 240.7711 364.61690688 l 1
 193.1481 340.36690688 42.3981 280.51240688 237.31798 339.99970688 c 1
 390.97698 413.86880688 l 1
 456.43008 466.92350688 l 1
 568.81008 330.15650688 l 1
 757.87308 264.16820688 l 1
 813.98248 260.22875688 l 2
 904.31748 251.91430688 873.41898 266.27172688 825.21488 283.86545688 c 2
 659.46288 356.73655688 l 1
 519.52488 518.05855688 l 1
 522.19676 520.23043688 l 1
 557.58636 700.46243688 l 1
 567.74256 725.54053688 567.22015 742.94973688 546.36756 745.75733688 c 1
 546.36951312 745.75733688 l 1
 546.371 745.758 l 1
EndSplineSet
Validated: 524837
EndChar

StartChar: "+MLAw6jDV 52"
Encoding: 52 12475 51
Width: 604
Flags: W
LayerCount: 2
Fore
SplineSet
151.838 772.473 m 2
 149.22667 772.4524922 146.97472 772.051125 145.19152 771.19761 c 0
 128.37512 768.01304 117.17882 756.44961 141.98058 728.95351 c 1
 136.97667 645.98671 l 1
 135.32628 614.51791 l 1
 108.96298 617.38803 92.69148 630.34311 69.69348 630.28741 c 1
 40.79308 615.04131 21.54898 570.94071 23.65828 540.08621 c 1
 126.96528 553.44951 l 1
 127.242624 455.35971 l 1
 112.469224 347.63071 l 2
 108.300274 298.94911 148.218224 290.19911 207.442824 298.93541 c 1
 462.526824 315.40421 l 1
 560.581524 326.89251 570.238824 337.33191 436.110824 346.06041 c 2
 436.110824 346.06041 242.291824 359.16201 237.323824 356.50961 c 0
 227.740814 351.39145 196.025924 386.40611 206.392224 402.12091 c 1
 205.573865 499.25571 l 1
 205.894177 557.17951 l 1
 357.439177 571.61501 l 1
 312.630577 484.51931 l 1
 348.014377 501.95681 384.119877 515.18431 415.204577 557.62481 c 1
 432.608877 591.83181 l 2
 450.259277 627.52321 410.306177 641.88941 387.456577 662.58961 c 1
 350.103077 627.44121 l 1
 206.219077 616.11111 l 1
 206.62728 692.09161 l 1
 219.84208 702.93441 228.98468 716.31231 233.12138 732.80251 c 0
 236.10576 737.43142 177.08718 772.68041 151.83818 772.47441 c 1
 151.83818 772.473433438 l 1
 151.838 772.473 l 2
EndSplineSet
Validated: 524841
EndChar

StartChar: "+MLAw6jDV 53"
Encoding: 53 12477 52
Width: 687
Flags: W
LayerCount: 2
Fore
SplineSet
535.451 752.338 m 1
 544.06038 692.3771 l 1
 544.06038 692.3771 536.89046 563.4741 536.89046 557.4801 c 2
 522.53696 524.5074 l 1
 413.45496 382.1074 l 1
 236.92596 253.2074 l 1
 120.61696 202.0111 15.62596 155.3041 239.80487 239.7054 c 1
 374.69887 299.6683 l 1
 454.18427 350.2982 529.64187 419.9083 601.47287 506.5113 c 1
 609.20529 548.1939 622.07837 571.9927 622.58027 638.8493 c 1
 632.79117 644.14813 648.56567 653.7331 634.48257 680.3981 c 1
 602.02357 710.6989 569.25407 737.4752 535.45137 752.3415 c 1
 535.45137 752.33954688 l 1
 535.451 752.338 l 1
281.803 630.391 m 1
 275.51296 630.38123438 271.6985 628.80702 273.38308 624.03162 c 0
 272.774682 608.12442 270.91238 581.73472 285.05688 561.49452 c 1
 350.51198 513.80312 l 2
 383.36748 491.26702 386.20438 514.030659 396.17608 525.99452 c 1
 397.45928 543.81482 390.81085 563.29332 371.82058 585.34802 c 1
 364.58913 606.80992 316.27568 625.42422 311.93968 626.16052 c 0
 303.16136 627.6488 292.57058 629.84118 284.64278 630.3031 c 0
 283.651569 630.3607172 282.70137 630.3929438 281.80294 630.3909906 c 1
 281.80294 630.3909906 l 1
 281.80294 630.3909906 l 1
 281.803 630.391 l 1
EndSplineSet
Validated: 524837
EndChar

StartChar: "+MLAw6jDV 54"
Encoding: 54 12479 53
Width: 538
Flags: W
LayerCount: 2
Fore
SplineSet
290.139 789.627 m 1
 289.08822 789.6904766 288.2933 789.627 287.7972 789.423875 c 2
 279.00814 763.052775 l 1
 264.94364 712.089875 l 1
 207.82644 592.577875 l 1
 119.94754 512.607175 l 1
 51.81864 462.398175 93.82544 483.905075 122.58816 496.788775 c 1
 251.48816 599.902775 l 1
 347.79476 437.384775 l 1
 345.80257 429.113295 l 1
 279.88847 324.535295 l 1
 171.78747 185.693295 l 1
 12.08847 101.787995 102.98277 138.360295 179.69763 168.115195 c 1
 245.60973 220.851495 l 1
 395.00373 388.687495 l 1
 462.67753 593.457495 l 1
 485.52323 657.597095 l 1
 494.31229 741.968195 l 1
 502.19706 764.186995 492.24979 771.856895 455.64819 757.786595 c 2
 402.91189 734.940895 l 1
 363.09549 736.882305 l 1
 367.76932 743.729965 l 2
 379.32792 759.141065 305.89922 788.676265 290.13842 789.626465 c 1
 290.13842 789.626465 l 1
 290.139 789.627 l 1
330.281 687.564 m 1
 402.033 680.45853 l 1
 386.2146 596.96443 l 1
 378.38257 564.44883 l 1
 281.85717 624.20083 l 1
 298.34737 637.38933 l 1
 330.281 687.564 l 1
EndSplineSet
Validated: 524837
EndChar

StartChar: "+MLAw6jDV 55"
Encoding: 55 12460 54
Width: 786
Flags: W
LayerCount: 2
Fore
SplineSet
641.287 770.699 m 2
 637.78407 770.79275 622.5018 769.34451 609.7167 770.310328 c 1
 592.83 739.909928 l 1
 557.705 689.923628 l 2
 542.8339 672.936328 550.02336 673.923628 559.05461 676.413828 c 2
 654.30071 720.995828 l 2
 659.62591 723.913798 665.09371 726.732158 661.7304 735.857128 c 0
 657.81927 749.869828 651.6796 768.987028 641.8261 770.657928 c 0
 641.7011 770.6784358 641.520436 770.6921077 641.287038 770.6989436 c 1
 641.287038 770.6989436 l 1
 641.287 770.699 l 2
382.492 746.854 m 1
 378.65899 746.8266562 374.37872 745.83154 369.6268 743.81103 c 2
 369.6131281 743.80907688 l 1
 316.5916281 694.13527688 l 1
 328.5389281 656.87547688 l 1
 328.5389281 656.45164888 l 1
 297.0311281 655.43992888 l 1
 270.7596281 662.60203888 l 2
 266.9324781 660.55613888 262.7625581 660.22312888 259.7694281 654.00437888 c 2
 227.7714281 597.64697888 l 1
 212.5741281 579.68017888 228.5809981 583.16647888 241.1386281 584.27977888 c 2
 315.6620281 589.52782888 l 1
 326.4823281 590.00634488 l 1
 323.7811581 502.59424488 l 1
 301.3241581 436.68214488 l 1
 152.3031581 305.32414488 l 1
 41.9651581 240.39834488 90.7963581 264.28314488 153.2465171 295.76945488 c 1
 381.0955171 451.96445488 l 1
 392.5623171 494.47425488 l 1
 401.6384871 593.30045488 l 1
 500.9841871 597.64811488 l 1
 519.6150871 564.21451488 l 1
 477.1052871 437.16051488 l 1
 450.8337871 377.45351488 l 1
 356.7360871 372.67031488 l 1
 324.1930871 379.03554488 291.6813871 385.38811488 340.0192871 358.34611488 c 2
 424.8004871 304.33831488 l 1
 474.2340871 273.32461488 l 1
 512.4820871 327.42811488 l 1
 578.8414871 452.44311488 l 1
 605.5914871 538.90011488 l 1
 545.8863871 666.90811488 l 1
 531.5064871 686.66401488 510.3951871 686.22651488 490.9508871 690.78901488 c 1
 459.9098871 660.70311488 l 1
 404.5504871 658.91795488 l 1
 403.5387671 729.00775488 l 1
 399.1608371 740.67375488 392.2858671 746.92665488 382.4918671 746.85545488 c 1
 382.4918671 746.854478318 l 1
 382.492 746.854 l 1
677.268 700.732 m 1
 657.6801 690.5992 l 1
 604.3149 654.7984 l 2
 577.3413 636.2593 571.4106 626.0562 592.1567 626.4273 c 1
 657.6801 644.6656 l 1
 704.2895 661.5523 l 1
 707.74458 678.8755 701.22602 690.6558 702.95356 693.6285 c 0
 703.491646 694.551352 686.73386 699.89998 677.26806 700.73202 c 1
 677.26806 700.73202 l 1
 677.268 700.732 l 1
EndSplineSet
Validated: 524837
EndChar

StartChar: "+MLAw6jDV 56"
Encoding: 56 12466 55
Width: 636
Flags: W
LayerCount: 2
Fore
SplineSet
471.371 826.498 m 1
 458.1991 826.4003438 442.9892 819.24312 440.1366 811.7031 c 0
 434.84851 797.7275 421.3007 778.3408 414.2772 760.582 c 0
 400.8104 726.5283 383.4022 655.152 383.4022 655.152 c 1
 382.742044 637.0426 389.72544 646.14614 394.6288 647.84341 c 2
 471.1112 760.86341 l 2
 505.5174 811.70721 490.6219 826.64171 471.370966 826.49821 c 1
 471.370966 826.49821 l 1
 471.371 826.498 l 1
528.988 811.959 m 2
 520.05148 812.113297 509.361 804.85255 498.5134 783.9336 c 2
 483.0505 754.1172 l 2
 482.320031 752.71095 443.7185 669.1758 443.7185 669.1758 c 1
 425.0076 643.3936 442.14819 639.5879 455.5955 650.3242 c 2
 455.5955 650.3242 515.1971 705.8154 537.7303 738.5156 c 0
 545.21468 749.3779 550.9881 775.8008 550.9881 775.8008 c 2
 555.27033 787.8438 544.91779 811.6836 528.9881 811.959 c 2
 528.988 811.959 l 2
165.822 722.471 m 1
 165.822 722.4495156 l 1
 162.24388 722.5569376 159.23997 719.7766656 159.06419 716.2014656 c 2
 146.61689 465.6584656 l 1
 68.84349 301.4704656 l 2
 68.467513 300.6765206 68.254623 299.8161656 68.216537 298.9392156 c 2
 52.044637 269.3650156 l 2
 51.766317 262.9519256 75.131537 267.0525156 79.048537 272.1384556 c 2
 199.693537 434.3414556 l 1
 208.385917 438.2477056 212.057837 441.3951656 214.070537 448.9723556 c 2
 219.584207 550.6093556 l 1
 300.193607 553.4062356 l 1
 299.517826 523.0869356 298.360597 425.9382356 298.334227 423.6812356 c 2
 194.504227 206.3012356 l 1
 180.291327 187.6039356 185.840167 177.8432356 205.291327 199.0317056 c 2
 378.814327 388.8707056 l 2
 380.072137 390.2496156 380.684447 392.0992256 380.497917 393.9566456 c 2
 363.962717 559.2946456 l 1
 441.632617 614.0798456 l 1
 459.027117 621.7868756 l 2
 461.580827 623.4694956 472.942117 630.3825756 472.439217 632.7927756 c 0
 471.786873 635.9138656 458.398217 634.3474656 454.476317 633.7830096 c 2
 371.859117 621.8103096 l 2
 371.182359 621.80640335 257.160117 621.1062076 223.426117 621.2399976 c 1
 228.211277 709.5348976 l 2
 228.40366 713.0280576 225.824557 716.0593076 222.346047 716.4313776 c 2
 222.346047 716.4313776 171.059947 721.8903576 166.344047 722.4118476 c 0
 166.171195 722.4118476 165.995414 722.4704414 165.820609 722.4704414 c 1
 165.820609 722.4704414 l 1
 165.821585562 722.4704414 l 1
 165.822 722.471 l 1
EndSplineSet
Validated: 524837
EndChar

StartChar: "+MLAw6jDV 57"
Encoding: 57 12464 56
Width: 774
Flags: W
LayerCount: 2
Fore
SplineSet
652.883 839.879 m 2
 652.029484 839.8623984 651.48359 839.674898 651.3537 839.28525 c 2
 631.3088 828.21885 l 1
 589.551 790.21885 l 1
 560.3186 768.08605 l 1
 545.1331 750.11825 553.26977 746.47665 577.0237 752.42785 c 2
 661.5842 779.15245 l 1
 676.8264 786.46104 l 1
 688.8039 798.64754 683.24242 810.06944 683.50804 821.74624 c 1
 679.54124 826.54897 l 2
 679.942607 831.76479 658.85764 839.99427 652.88304 839.87907 c 1
 652.88304 839.87907 l 1
 652.883 839.879 l 2
378.197 742.367 m 2
 366.6491 742.631648 367.9724 732.80841 375.95286 717.7674 c 1
 384.30638 670.9979 l 1
 340.87668 588.3143 l 1
 267.38058 504.7967 l 1
 190.74578 445.9012 273.27316 495.701 279.07398 493.1033 c 1
 374.28298 550.7303 l 1
 422.72438 596.6658 l 1
 432.74588 624.2263 l 1
 498.72438 627.5681 l 1
 497.05055 565.7654 l 1
 484.52325 474.7302 l 1
 367.59925 297.6702 l 1
 224.78325 163.2072 l 1
 194.71875 145.6681 l 1
 62.55475 96.756 185.70996 136.35462 202.23437 138.98646 c 1
 330.01537 206.63686 l 1
 451.11737 303.51776 l 1
 526.28337 403.73976 l 1
 573.88887 553.23576 l 1
 593.93187 655.12876 l 2
 592.72972 664.50767 598.22875 673.43926 586.41625 683.52526 c 2
 557.18385 706.07406 l 1
 544.29515 708.29574 536.65845 705.577966 537.14085 695.21666 c 1
 456.96315 692.71275 l 1
 450.28151 705.24005 l 1
 456.96706 736.14045 l 1
 385.97686 741.15217 l 2
 382.91631 741.923654 380.33624 742.31819 378.19756 742.36701 c 1
 378.19756 742.36701 l 1
 378.197 742.367 l 2
675.305 741.592 m 1
 674.527656 741.5802812 673.96516 741.5011797 673.69562 741.361531 c 2
 653.85972 731.131031 l 1
 597.06672 692.504031 l 1
 595.95246 682.046031 589.75031 668.808731 617.94762 674.338031 c 1
 673.69562 674.754047 l 2
 692.19172 674.7169376 690.50522 687.886847 695.82652 696.468847 c 0
 700.17027 710.204247 695.82652 717.915147 696.242536 727.580147 c 1
 696.24448912 727.580147 l 1
 696.70054412 738.347747 680.74548912 741.673947 675.30498912 741.591847 c 1
 675.30498912 741.591847 l 1
 675.30498912 741.591847 l 1
 675.305 741.592 l 1
EndSplineSet
Validated: 524837
EndChar

StartChar: "+MLAw6jDV 58"
Encoding: 58 12468 57
Width: 586
Flags: W
LayerCount: 2
Fore
SplineSet
425.355 803.371 m 1
 422.95754 803.4012734 420.04055 802.13467 416.09719 798.29873 c 2
 368.41359 704.96283 l 1
 368.85109 695.1142 375.11476 695.94135 383.63239 700.90424 c 2
 460.73589 724.23824 l 1
 486.29839 727.30465 490.59819 741.81934 481.02689 763.80464 c 1
 435.37259 798.29874 l 2
 431.90286 799.66495 429.35013 803.32022 425.35499 803.37101 c 1
 425.35499 803.37101 l 1
 425.355 803.371 l 1
470.463 694.619 m 1
 466.21691 694.6111875 461.63683 694.027203 456.6778 692.78892 c 2
 410.0098 666.41002 l 1
 353.1953 636.98812 l 1
 362.87206 628.62679 365.9121 615.02332 399.8652 625.82792 c 1
 498.2734 639.01742 l 1
 512.9482 647.05453 511.5986 657.76352 510.4492 668.43932 c 1
 500.99217 683.85242 488.8633 694.65322 470.4629 694.61902 c 1
 470.4629 694.61902 l 1
 470.463 694.619 l 1
333.92 622.785 m 1
 188.842 617.71273 l 1
 132.0295 609.59554 l 1
 132.0295 609.59554 96.4133 531.55644 93.4768 527.41974 c 0
 85.62817 516.35924 109.8782 497.96174 117.8245 503.07014 c 2
 284.2105 543.65214 l 1
 303.4859 459.44514 l 1
 258.8453 367.12284 l 1
 109.7093 356.97834 l 1
 87.389 348.86115 l 1
 52.8949 275.81625 l 1
 52.8460719 265.15415 62.83533 262.53015 76.2289 262.62675 c 2
 267.9769 279.87285 l 1
 313.6292 304.22245 l 1
 376.5296 425.96645 l 1
 376.5296 525.39025 l 1
 333.92 622.785 l 1
EndSplineSet
Validated: 524837
EndChar

StartChar: "+MLAw6jDV 59"
Encoding: 59 12532 58
Width: 660
Flags: W
LayerCount: 2
Fore
SplineSet
528.688 822.557 m 1
 523.0171 822.691766 517.1323 819.95641 514.1694 816.16052 c 2
 483.2651 776.56482 l 1
 435.9428 735.03552 l 1
 523.8276 745.66052 l 1
 540.728 789.60192 l 2
 546.9907 814.13902 538.13718 822.33332 528.688 822.55702 c 1
 528.688 822.55702 l 1
 528.688 822.557 l 1
231.611 782.107 m 1
 219.7409 782.1148125 217.6061 765.357 226.79069 758.5816 c 0
 236.93909 747.8472 241.18229 733.98 239.09149 719.5601 c 0
 237.37079 713.18217 243.33368 699.0435 232.12079 702.2476 c 0
 206.79849 701.683147 181.38349 702.072795 156.12079 700.92924 c 1
 147.69989 708.49272 129.45969 705.32768 132.58369 691.63236 c 0
 136.12471 670.83156 139.04267 649.98196 138.01924 628.82766 c 0
 138.290724 607.69776 138.0573259 586.53566 138.636428 565.42726 c 0
 133.458698 526.66556 163.937228 504.13726 186.402028 558.13234 c 0
 192.228198 572.02594 200.342428 585.21534 204.739928 599.55424 c 0
 204.96649 609.84624 205.171569 620.13724 205.390319 630.43124 c 1
 267.096419 632.24667 328.803319 634.06308 390.509319 635.87851 c 1
 386.671429 611.33941 383.511269 586.64711 375.149919 563.13051 c 0
 361.033719 515.01431 346.916519 466.89611 332.800319 418.77951 c 1
 295.492719 379.85661 258.187019 340.93671 220.879319 302.01351 c 1
 191.695719 281.37971 160.027719 263.48131 133.340219 239.75761 c 1
 39.032619 183.43531 153.344119 224.76441 172.463219 236.81034 c 0
 250.392919 279.89924 325.421219 327.93334 401.488219 374.16234 c 1
 409.042909 384.97194 410.846619 399.09984 416.095619 411.22684 c 0
 429.369019 450.43684 444.113219 489.25324 456.466719 528.70684 c 1
 464.410079 575.12384 472.376919 621.53694 480.306519 667.95684 c 0
 483.560429 689.61504 463.295819 703.65024 446.234219 711.15994 c 1
 427.103319 708.8699 408.371919 702.49099 388.833819 704.14236 c 0
 369.293819 703.915798 349.752719 703.668727 330.212719 703.433376 c 1
 332.367019 712.338646 328.074049 724.423576 336.976389 729.968576 c 0
 359.401189 748.633576 336.231272 767.557476 314.654089 766.431476 c 1
 287.971489 772.222496 261.260489 778.732276 234.113089 781.872876 c 0
 233.235159 782.030103 232.400199 782.104321 231.609179 782.105298 c 1
 231.611 782.107 l 1
563.471 765.717 m 2
 562.25713 765.7550859 561.10479 765.6740312 560.04327 765.457234 c 0
 552.22491 763.864464 542.17807 749.523634 542.17807 749.523634 c 1
 544.5433 753.138864 512.72107 694.957234 512.72107 694.957234 c 1
 553.28557 687.125204 l 1
 584.18987 699.302904 l 1
 587.58049 716.727704 599.22207 718.681804 592.88128 754.351704 c 1
 592.88128 754.351704 575.21138 765.369304 563.47108 765.716904 c 1
 563.47108 765.716904 l 1
 563.471 765.717 l 2
EndSplineSet
Validated: 524837
EndChar

StartChar: "+MLAw6jDV 60"
Encoding: 60 12470 59
Width: 784
Flags: W
LayerCount: 2
Fore
SplineSet
647.818 828.703 m 2
 637.778 828.6141328 626.1393 825.52038 617.152 825.49792 c 1
 588.5387 794.44912 l 1
 545.4899 711.31242 l 1
 552.57974 711.31242 l 1
 547.06607 705.8007 l 1
 628.17737 747.537 l 1
 668.33757 790.8475 l 1
 673.75066 822.5399 662.49187 828.8329 647.81807 828.703 c 1
 647.81807 828.703 l 1
 647.818 828.703 l 2
442.695 780.371 m 2
 442.364922 780.3817422 442.050469 780.3788125 441.751641 780.3631875 c 0
 436.569021 780.0946325 435.939141 775.9256875 437.171561 770.1600875 c 2
 436.140311 650.0490875 l 1
 357.706711 650.0490875 l 1
 358.450852 727.1467875 l 1
 355.204762 732.8284275 l 1
 286.204762 734.4514775 l 1
 289.450852 674.3948775 l 1
 285.798512 650.0491775 l 1
 246.439112 650.0491775 l 2
 236.348312 653.4231975 233.630512 650.1399978 231.019212 646.8030875 c 2
 208.294612 570.5003875 l 2
 207.550471 566.6214775 208.023128 563.2953075 215.599302 563.1956975 c 2
 262.669602 572.1234275 l 1
 274.150102 572.3636615 l 1
 272.407912 560.7835615 l 1
 282.958712 499.1038615 l 2
 286.472382 486.0403615 300.750712 478.6155615 320.290712 473.9456615 c 1
 330.664712 478.0599215 343.870812 470.5296415 347.900112 500.7288615 c 2
 356.827842 559.1604615 l 1
 356.948936 573.9534615 l 1
 435.484136 575.4593215 l 1
 434.726324 486.1195215 l 1
 373.859124 380.5995215 l 1
 282.947024 291.3104215 l 1
 25.997024 183.8864215 217.669724 241.7479215 309.728224 262.9061215 c 1
 407.945024 306.7303215 l 1
 488.288824 397.6424215 l 1
 514.275124 444.7127215 l 1
 516.068094 576.9977215 l 1
 558.911894 577.8277995 l 1
 583.259594 573.7711595 l 1
 597.263494 578.8697895 608.742994 585.6100595 607.605294 600.5523595 c 0
 608.781074 638.9488595 601.936344 648.0240595 588.939294 649.2632595 c 2
 568.652194 650.0757595 l 1
 517.048694 650.0757595 l 1
 517.523303 684.9741595 l 1
 516.714709 749.8979595 l 1
 512.656119 760.4487595 l 1
 446.099519 779.8979595 l 2
 444.814359 780.1840925 443.684479 780.3374125 442.695219 780.3706155 c 1
 442.695219 780.3706155 l 1
 442.695 780.371 l 2
702.988 754.33 m 1
 666.9079 739.3905 l 1
 628.9645 692.9061 l 1
 598.2536 659.0448 l 1
 673.0622 679.5194 l 1
 721.0993 707.869 l 1
 737.6364 721.2557 l 1
 752.0602 746.7108 726.0632 749.7078 702.988 754.3299 c 1
 702.988 754.3299 l 1
 702.988 754.33 l 1
EndSplineSet
Validated: 524837
EndChar

StartChar: "+MLAw6jDV 61"
Encoding: 61 12474 60
Width: 840
Flags: W
LayerCount: 2
Fore
SplineSet
626.264 892.908 m 1
 581.4828 828.8123 l 1
 554.557 750.1971 l 1
 651.6175 820.6463 l 1
 651.6175 820.6463 666.7318 849.8358 661.9808 863.869 c 0
 657.06088 878.4022 626.264 892.9081 626.264 892.9081 c 1
 626.264 892.9081 l 1
 626.264 892.908 l 1
672.012 782.9 m 1
 663.63993 782.694922 654.6722 779.66172 650.3987 775.38828 c 2
 585.1389 743.94098 l 1
 546.9709 697.45658 l 1
 632.7697 706.06791 l 1
 671.8869 739.35111 l 1
 671.8869 739.35111 685.009 752.37261 688.4006 760.70851 c 0
 695.21603 777.45561 684.24826 783.19871 672.0119 782.89991 c 1
 672.0119 782.89991 l 1
 672.012 782.9 l 1
507.705 732.701 m 2
 506.59172 732.6843984 505.4091 732.588695 504.15227 732.408031 c 2
 504.15227 732.40607788 l 1
 469.44527 725.47638788 l 1
 316.05427 713.57408788 l 1
 296.07187 709.45494788 l 1
 263.42347 647.78894788 l 2
 265.83558 643.79773788 270.12464 641.41589788 279.50157 643.39441788 c 2
 447.81357 653.87681788 l 1
 453.15341 596.26351788 l 1
 391.44051 530.74591788 l 1
 252.53451 412.81591788 l 1
 196.00521 351.16941788 127.06151 337.36081788 60.31951 294.86091788 c 0
 36.88791 284.07481788 60.562674 290.05134788 80.99721 294.88044908 c 2
 237.50521 325.06014908 l 1
 284.11851 350.06014908 l 1
 389.76851 429.81794908 l 1
 440.02831 471.23594908 l 1
 501.74121 404.87264908 l 1
 557.91701 342.93124908 l 1
 641.68461 317.55034908 l 1
 789.40961 304.89994908 l 1
 687.58661 347.45854908 l 1
 565.21961 428.10894908 l 1
 477.68251 502.26124908 l 1
 503.77041 523.75734908 l 1
 525.94231 606.54644908 l 1
 522.1259 666.14414908 l 1
 532.8603 680.39214908 531.16106 692.15484908 532.5204 704.52894908 c 1
 525.662 715.53384908 524.41005 732.94784908 507.7059 732.70084908 c 1
 507.7059 732.70084908 l 1
 507.705 732.701 l 2
EndSplineSet
Validated: 524837
EndChar

StartChar: "+MLAw6jDV 62"
Encoding: 62 12472 61
Width: 655
Flags: W
LayerCount: 2
Fore
SplineSet
492.121 843.553 m 2
 459.787 798.3128 l 1
 435.8085 766.1038 l 1
 416.7636 700.1839 l 1
 508.8495 776.8011 l 1
 541.0702 810.7679 l 1
 541.0702 810.7679 531.8202 827.7132 524.2206 833.1331 c 0
 515.06142 839.66435 492.121 843.553 492.121 843.553 c 2
568.67 764.475 m 1
 533.4962 749.9965 l 1
 502.9474 690.641 l 1
 469.7521 665.1469 l 1
 589.1071 710.2192 l 1
 589.1071 710.2192 601.9645 732.1137 598.29265 742.7739 c 0
 594.30535 754.3471 568.66965 764.476 568.66965 764.476 c 1
 568.66965 764.475023438 l 1
 568.67 764.475 l 1
189.555 683.012 m 1
 179.387 682.910438 174.8206 672.6868 172.7874 657.8772 c 1
 184.1644 590.9963 l 1
 200.9535 562.9719 222.0433 565.8527 241.4749 556.8244 c 1
 273.1897 552.2453 272.1849 564.60077 278.0491 573.4006 c 1
 265.8421 616.9572 l 1
 250.1341 646.8976 221.0814 664.4015 192.8948 682.7131 c 0
 191.72 682.925991 190.60671 683.02267 189.55496 683.011928 c 1
 189.55496 683.011928 l 1
 189.555 683.012 l 1
449.168 676.146 m 1
 449.1494453 676.146 449.13675 676.13721094 449.1289375 676.1186562 c 0
 438.5225375 674.7251062 427.2461375 644.1557562 417.6543375 635.6577562 c 1
 411.7402775 556.0366562 l 1
 364.4472775 478.3218562 l 1
 260.3042775 391.1538562 l 1
 141.4552775 304.0015562 l 1
 112.0275775 289.2788562 l 1
 73.0490775 258.7690562 l 1
 82.2893075 237.3960562 128.4172775 218.2641562 165.2306775 230.4213562 c 1
 219.5529775 268.9037562 l 1
 219.5529775 268.9037562 349.7369775 383.2397562 361.0549775 385.5037562 c 0
 372.3742775 387.7674262 438.0256775 455.6795562 438.0256775 455.6795562 c 1
 438.0256775 455.6795562 475.3752775 517.9305562 475.3752775 522.4588562 c 0
 475.3752775 526.9861962 477.6428575 639.0568562 477.6428575 639.0568562 c 1
 471.4153175 639.0568562 450.3186575 676.1398562 449.1662575 676.1466562 c 1
 449.167234062 676.1466562 l 1
 449.168 676.146 l 1
129.615 566.236 m 1
 120.15602 566.362953 110.697 563.52116 101.238 560.15397 c 1
 82.3064 522.80437 l 1
 113.4002 476.40207 l 1
 148.1326 457.77907 162.033 463.58277 179.6092 465.07977 c 1
 193.1268 494.50947 l 1
 157.992 554.50167 l 2
 148.53302 563.01241 139.074 566.10807 129.615 566.23607 c 1
 129.615 566.23607 l 1
 129.615 566.236 l 1
EndSplineSet
Validated: 524837
EndChar

StartChar: "+MLAw6jDV 63"
Encoding: 63 12523 62
Width: 1024
LayerCount: 2
Fore
SplineSet
620.756 782.75 m 1
 620.756 782.748 l 1
 566.6834 779.27763 549.4568 768.3353 541.6154 752.0644 c 1
 531.97087 204.8364 l 1
 536.99991 157.8969 554.02127 166.5473 568.44357 188.2993 c 2
 788.39057 467.5633 l 1
 786.76727 475.80796 776.53017 473.6102 762.74017 467.09846 c 1
 765.92216 475.67836 775.18997 486.21736 768.789 491.70976 c 1
 619.404 375.02376 l 1
 616.31611 768.90676 l 1
 621.05337 774.76956 624.7766 780.24546 620.75556 782.75056 c 1
 620.756 782.75 l 1
421.15 719.949 m 1
 415.35839 719.9642 414.98181 715.32057 412.26133 712.69314 c 2
 396.33553 474.46814 l 1
 329.62573 401.42874 288.32753 318.06314 235.60853 240.20614 c 1
 262.07273 246.88381 289.83173 249.10567 312.29993 269.53814 c 0
 376.25633 327.65664 425.67493 386.70114 473.60293 441.03014 c 0
 492.37283 459.73014 488.64023 480.14764 489.36853 504.66884 c 2
 494.44666 675.61784 l 1
 488.3499 684.82628 460.58666 695.62414 449.54626 698.02604 c 0
 440.65529 701.79499 433.00526 709.30184 426.12046 719.11194 c 0
 424.1119 719.69375 422.48629 719.94438 421.14976 719.94788 c 1
 421.15 719.949 l 1
EndSplineSet
Validated: 524841
EndChar

StartChar: "+MLAw6jDV 64"
Encoding: 64 12524 63
Width: 1024
LayerCount: 2
Fore
SplineSet
358.725 713.912 m 1
 348.88575 714.25345 349.2555 700.3732 353.88906 680.5565 c 2
 360.35195 643.9354 l 1
 350.84219 419.5484 l 1
 350.84219 419.5484 342.58119 325.5764 347.42617 288.4894 c 0
 350.85382 262.2576 372.19957 213.091 372.19957 213.091 c 2
 382.67797 184.1821 414.48077 181.9262 441.13507 173.2375 c 1
 464.18447 174.27536 469.81097 184.9934 480.98857 192.6262 c 2
 549.92217 266.9465 l 1
 642.55307 374.6575 l 1
 631.78357 378.9661 l 1
 663.01987 424.2044 l 1
 654.40268 428.51299 l 1
 678.09798 462.97979 l 1
 532.68998 344.49779 l 1
 444.36578 273.40989 l 1
 450.82867 622.39189 l 1
 461.60017 659.01489 l 2
 461.91085 662.96375 466.55166 666.9137 456.2154 670.86259 c 2
 363.5826 712.87039 l 2
 361.74292 713.52378 360.13079 713.86263 358.72518 713.91141 c 2
 358.725 713.912 l 1
EndSplineSet
Validated: 524841
EndChar

StartChar: "+MLAw6jDV 65"
Encoding: 65 12525 64
Width: 538
Flags: W
LayerCount: 2
Fore
SplineSet
58.0527 597.301 m 1
 54.29196 597.3498281 56.35446 592.33616 63.11911 583.2326 c 1
 66.8945 560.0666 l 1
 64.19528 446.4376 l 1
 57.72262 365.1251 l 1
 66.89254 315.5782 l 1
 76.3359 301.1427 90.91014 294.9171 110.50774 296.7286 c 1
 136.35344 315.0391 l 1
 137.003831 319.0684 l 1
 203.542931 334.3741 338.895831 310.2686 371.149831 307.7872 c 1
 413.177131 290.795 l 1
 435.164431 287.11727 443.621431 296.96883 456.253331 302.6466 c 1
 467.026731 371.5841 l 1
 479.956431 499.7621 l 1
 491.808031 529.9223 l 1
 486.582441 564.8744 461.533631 584.4487 431.487731 582.6918 c 2
 398.104931 580.74453 l 1
 350.159631 568.70153 l 1
 158.962631 569.164421 l 1
 160.595441 578.889031 l 1
 131.656941 588.520871 98.632541 589.981831 66.892341 594.010131 c 1
 66.89429412 594.00427162 l 1
 62.67359412 596.21032162 59.76245412 597.27966162 58.05249412 597.30115162 c 1
 58.05249412 597.30115162 l 1
 58.0527 597.301 l 1
367.947 514.834 m 1
 373.32395 388.813 l 1
 370.70481 369.9644 l 1
 357.17161 375.88237 l 1
 296.85131 368.34721 l 1
 143.96831 366.50541 l 1
 144.96831 432.44291 l 1
 150.9019 502.44291 l 1
 151.759322 509.51908 l 1
 367.947 514.834 l 1
EndSplineSet
Validated: 524837
EndChar

StartChar: "+MLAw6jDV 66"
Encoding: 66 12510 65
Width: 602
Flags: W
LayerCount: 2
Fore
SplineSet
466.014 707.143 m 1
 466.014 707.14104688 l 1
 457.16439 699.39885688 l 1
 117.48439 690.54924688 l 2
 108.78615 688.78166688 101.48339 694.76506688 88.71879 673.94184688 c 2
 48.88869 604.23674688 l 2
 41.03224 592.94184688 49.9258 595.15276688 57.7383 596.49455688 c 2
 337.6683 600.92814688 l 1
 460.4883 606.45353688 l 1
 463.79689 559.98873688 l 1
 349.95689 462.41253688 l 1
 347.07017 470.92034688 l 1
 233.65617 488.61954688 l 2
 214.89837 491.72989688 224.07316 481.47696688 228.12883 473.67424688 c 2
 295.61903 333.15524688 l 1
 295.61903 333.15524688 320.39343 260.38474688 321.07603 255.70794688 c 0
 329.6522 196.93644688 380.58383 229.81244688 377.49983 254.04778688 c 2
 379.71663 359.16878688 l 1
 371.81038 394.76258688 l 1
 534.60938 464.82708688 l 1
 545.67578 521.26658688 l 1
 563.37498 637.43658688 l 2
 567.4531 647.00201688 573.57228 654.23838688 567.80857 675.05178688 c 1
 538.85447 694.28228688 505.29197 705.61228688 466.01357 707.14358688 c 1
 466.01357 707.142610318 l 1
 466.014 707.143 l 1
EndSplineSet
Validated: 524837
EndChar

StartChar: "+MLAw6jDV 67"
Encoding: 67 12511 66
Width: 515
Flags: W
LayerCount: 2
Fore
SplineSet
153.363 689.088 m 1
 150.72042 688.238391 l 2
 142.15304 685.493271 135.63842 678.995231 133.86492 670.732491 c 2
 95.33372 591.033291 l 1
 179.89422 588.361411 l 1
 336.39822 582.130941 l 1
 412.27522 562.170041 l 1
 414.40999 563.107541 l 2
 429.71469 569.830201 441.28109 578.505941 452.32989 594.039141 c 1
 461.05841 598.676841 465.17169 607.237341 465.49979 615.076241 c 0
 465.855259 623.580151 463.71268 631.852641 462.95291 638.787141 c 2
 462.761504 640.521521 l 1
 461.741974 641.947301 l 2
 449.699974 658.758801 431.477374 670.855501 405.068174 667.437501 c 2
 354.792774 667.437501 l 1
 175.679774 677.519501 l 1
 153.363 689.088 l 1
171.943 525.275 m 1
 170.05433 524.308203 l 2
 166.90394 522.693943 161.86585 521.789653 156.34533 518.573823 c 0
 150.99474 515.455663 146.01723 509.390233 144.03673 500.150023 c 2
 121.52503 450.593423 l 1
 158.53873 440.583623 l 1
 234.49773 431.976203 l 1
 324.11293 409.372703 l 1
 324.2027738 409.357078 l 2
 329.4351938 408.191058 335.2750738 406.430318 341.3199738 405.489888 c 0
 347.3639238 404.549458 353.9996738 404.344378 360.1226738 407.651998 c 2
 361.5406438 408.419576 l 1
 390.8531438 451.101176 l 1
 391.0015818 452.866796 l 2
 391.8297068 462.766206 390.1050978 475.490796 377.6617818 485.915596 c 2
 376.3844418 486.985906 l 1
 244.6854418 514.771106 l 1
 171.943 525.275 l 1
92.6035 364.992 m 1
 90.55858 364.070125 l 2
 80.22358 359.408995 70.91798 352.091625 65.95608 340.728325 c 0
 65.95022062 340.7166062 65.9375253 340.7078172 65.9326425 340.697075 c 2
 38.4658425 302.074075 l 1
 40.5166225 298.390485 l 2
 40.8379115 297.813337 40.9531455 297.065285 41.2705285 294.884625 c 0
 41.5869345 292.703965 42.3408385 289.099465 44.8584185 285.900245 c 0
 49.8916185 279.501805 58.9932185 275.566245 80.1221185 270.870945 c 2
 80.5869625 270.767429 l 1
 163.0420625 264.486179 l 1
 275.9560625 250.564279 l 1
 384.5640625 195.095479 l 1
 385.5679725 194.925557 l 2
 393.0865225 193.642357 401.0308725 192.094507 409.0347725 192.091577 c 0
 416.7271525 192.08864731 424.7163725 193.868917 431.4898725 199.009547 c 0
 438.5113525 202.613067 442.3882725 209.286847 444.3941725 215.927547 c 0
 446.4566725 222.753717 447.1412425 229.978347 448.0621425 236.560347 c 2
 448.1441737 237.136519 l 1
 448.1207362 237.712691 l 2
 447.7183922 249.676591 441.4137062 261.288891 431.7418362 273.027191 c 2
 430.6930062 274.296721 l 1
 321.8550062 319.910021 l 1
 231.4488062 329.343611 l 1
 142.6441062 353.503811 l 1
 92.6035 364.992 l 1
EndSplineSet
Validated: 524841
EndChar

StartChar: "+MLAw6jDV 68"
Encoding: 68 12512 67
Width: 607
Flags: W
LayerCount: 2
Fore
SplineSet
239.5 673.652 m 1
 237.73438 664.21059 l 1
 231.8379 632.57189 l 1
 127.4059 435.80089 l 1
 66.4079 349.75789 l 1
 29.5075 325.15439 l 1
 31.88445 319.9708 l 2
 35.61883 311.82236 36.80242 301.5216 40.8532 290.8048 c 0
 44.90398 280.088 52.7468 269.1808 68.5055 262.4083 c 2
 69.96644 261.779394 l 1
 107.27504 264.113374 l 1
 192.48404 277.392674 l 1
 465.26604 295.869274 l 1
 491.28754 237.574374 l 1
 507.59414 214.285274 l 1
 508.176171 213.761836 l 2
 514.797261 207.874136 521.793371 203.683736 529.576571 202.894636 c 0
 537.109771 202.131941 544.724071 205.314556 550.990671 211.390726 c 0
 556.087351 215.049906 558.564891 220.617286 559.990671 226.302826 c 0
 561.459421 232.157316 561.989691 238.524526 562.426221 244.845826 c 2
 562.4926272 245.828248 l 1
 529.0610272 392.933248 l 1
 521.5092672 422.052348 l 2
 521.50340782 428.972268 518.9545772 434.800348 514.5922772 437.720348 c 0
 510.0082972 440.788708 505.4907172 440.779918 502.2865772 441.138318 c 2
 501.9623582 441.1754274 l 1
 399.0353582 442.4820674 l 1
 427.5294582 410.6363674 l 1
 451.5060582 369.7847674 l 1
 336.1190582 363.7105474 l 1
 184.3400582 345.8902474 l 1
 294.8850582 535.1612474 l 1
 344.0998582 620.1710474 l 1
 344.3205612 621.2042474 l 2
 344.6701702 622.8380374 346.1135312 626.3585474 344.7424362 630.9991674 c 0
 343.3723162 635.6397874 339.3205562 639.2071774 333.4026362 641.9405674 c 2
 332.9905272 642.1319734 l 1
 332.5471682 642.2647854 l 1
 332.5471682 642.2647854 311.6750682 648.6270854 290.4631682 655.1905854 c 0
 279.8576682 658.4728154 269.1652682 661.8028854 260.9787682 664.4112854 c 0
 256.8859982 665.7159754 253.4162682 666.8380454 250.9260682 667.6730054 c 0
 249.6819282 668.0899974 248.6741182 668.4405834 248.0022382 668.6847254 c 0
 247.3313402 668.9288664 246.3391482 669.5470304 247.7288002 668.7140223 c 1
 239.5 673.652 l 1
EndSplineSet
Validated: 524805
EndChar

StartChar: "+MLAw6jDV 69"
Encoding: 69 12513 68
Width: 552
Flags: W
LayerCount: 2
Fore
SplineSet
444.551 757.557 m 1
 397.9865 757.55504688 l 1
 398.886891 750.07848688 l 1
 402.142751 722.97108688 l 1
 392.220871 510.10008688 l 1
 390.146651 485.28168688 l 1
 388.552901 482.72113688 l 1
 369.351701 494.90663688 349.332201 507.56883688 349.332201 507.56883688 c 1
 348.859545 507.87157088 l 1
 313.781445 522.57667088 l 1
 313.494336 522.66456148 l 2
 309.800976 523.83839148 306.058786 525.12843148 301.373236 524.48097148 c 0
 299.030466 524.15772948 296.256046 523.05226148 294.271676 520.87745148 c 0
 292.770696 519.23292148 291.876166 517.22706148 291.408396 515.16261148 c 2
 256.343896 467.26421148 l 1
 252.888816 453.45951148 l 1
 320.218916 411.47901148 l 1
 336.679816 399.71921148 l 1
 325.023616 381.07271148 l 1
 151.386616 207.44971148 l 1
 90.021416 172.99851148 l 1
 63.643516 168.23874148 45.763616 164.65769148 35.359316 162.06691148 c 0
 30.044866 160.74367148 26.761656 159.84621148 23.990216 158.48683148 c 0
 23.297833 158.14796448 22.615216 157.79347248 21.732406 157.05324148 c 0
 20.849594 156.31398348 19.253886 154.96437148 19.037096 151.93801148 c 0
 18.820299 148.91262148 20.973616 146.37063148 22.218736 145.53176148 c 0
 23.463856 144.69387048 24.284166 144.49758148 25.039046 144.29738148 c 0
 28.056626 143.49952948 30.766586 143.51613148 34.937486 143.49269348 c 0
 39.108386 143.47023258 44.332016 143.61769348 50.462886 143.88527148 c 0
 62.610386 144.41652148 78.299786 145.44093148 95.712886 146.70754148 c 0
 138.061486 142.92238148 167.676786 159.85304148 197.700886 171.50834148 c 2
 198.749716 171.91459148 l 1
 360.411716 309.06259148 l 1
 402.370716 356.75599148 l 1
 465.228116 316.90829148 l 1
 465.456632 316.78329148 l 2
 473.770112 312.37802148 483.345332 305.30869148 493.286732 301.79889148 c 0
 498.257432 300.04401148 503.795532 299.06940148 509.269132 301.12701648 c 0
 514.742732 303.18463148 518.905852 308.21197648 521.323832 314.86331648 c 2
 521.4039101 315.08597248 l 1
 528.9781301 341.62307248 l 1
 527.1402401 344.23635248 l 1
 527.1402401 344.23635248 514.1812401 362.59275248 499.6050401 382.86525248 c 0
 486.3814401 401.25585248 473.3736401 418.92575248 465.5757401 428.61915248 c 1
 467.2280801 430.50196248 l 1
 489.6401801 632.16796248 l 1
 488.5327601 716.22456248 l 1
 490.6636201 734.33196248 l 2
 491.7944801 739.43743248 491.0503391 744.84566248 487.8823701 748.56436248 c 0
 484.5952601 752.42178248 480.0747501 753.88760248 475.5698701 754.61709248 c 2
 475.3491671 754.65420188 l 1
 444.551 757.557 l 1
EndSplineSet
Validated: 524841
EndChar

StartChar: "+MLAw6jDV 70"
Encoding: 70 12514 69
Width: 472
Flags: W
LayerCount: 2
Fore
SplineSet
418.805 629.74 m 1
 214.27 623.74 l 2
 198.6841 627.1609 94.211 625.91969 94.211 625.91969 c 1
 49.0098 550.72629 l 1
 91.0039 549.905978 l 1
 168.9394 552.425508 l 1
 161.26167 456.616908 l 1
 118.42767 456.5797986 l 1
 44.87107 456.3805796 l 1
 15.52927 396.1539796 l 1
 37.82807 382.5406796 l 1
 157.65207 387.7848196 l 1
 155.16769 314.1813196 l 1
 160.27707 272.5504196 l 1
 237.28097 185.8844196 l 1
 298.86497 157.1403196 l 1
 350.40797 189.3219196 l 1
 409.66577 244.0895196 l 1
 452.47047 310.8590196 l 1
 322.06247 238.7028196 l 1
 225.53317 303.3688196 l 1
 232.36911 391.0680196 l 1
 259.61711 392.2594296 l 1
 347.20111 396.9977096 l 1
 395.83591 436.5446096 l 1
 397.46872 468.6364096 l 1
 320.00782 469.2985186 l 1
 257.64842 456.7126186 l 1
 241.40232 456.6735561 l 1
 252.14252 529.2047561 l 1
 250.96283 558.7311561 l 1
 301.22843 564.7936561 l 1
 366.29293 578.5592561 l 1
 418.805 629.74 l 1
EndSplineSet
Validated: 524841
EndChar

StartChar: "+MLAw6jDV 71"
Encoding: 71 12462 70
Width: 458
Flags: W
LayerCount: 2
Fore
SplineSet
316.398 787.27 m 1
 312.93023 787.27976562 309.64995 787.27195312 307.03472 787.26023438 c 0
 303.54742 787.24558598 301.24175 787.22312498 301.24175 787.22312498 c 1
 289.68905 754.42232498 l 1
 263.43705 699.25432498 l 2
 251.62355 680.01502498 258.54838 682.19572498 267.03471 686.16252498 c 2
 353.46051 746.08052498 l 2
 358.21832 749.85103498 363.13922 753.54341498 358.29449 761.97502498 c 0
 354.08746 770.89690498 348.57965 782.68982498 339.85699 786.42232498 c 0
 338.898982 787.06880898 326.80129 787.24263698 316.39799 787.26998098 c 1
 316.39799 787.26998098 l 1
 316.398 787.27 l 1
198.031 737.686 m 1
 148.3591 719.5346 l 1
 128.2927 717.62249 l 1
 146.0095 622.39889 l 1
 48.0427 623.047328 l 1
 15.5642 588.656728 l 1
 26.0759 570.505328 l 1
 53.7829 563.819778 l 1
 83.3903 549.495578 l 1
 159.3063 550.958468 l 1
 173.0543 477.069768 l 1
 172.237894 477.069768 l 1
 76.704694 476.11469 l 1
 52.825794 456.04829 l 1
 91.987894 419.74359 l 1
 183.706694 406.37639 l 1
 186.071924 407.133226 l 1
 224.345324 201.490226 l 1
 232.382434 189.196326 236.463524 193.515616 240.064124 199.859366 c 2
 260.622724 236.062466 l 1
 273.989924 279.050766 l 1
 258.259424 430.437766 l 1
 334.640324 455.090066 l 1
 336.552434 479.925966 l 1
 248.845434 478.406436 l 1
 234.111034 553.576336 l 1
 349.922034 606.824336 l 1
 360.433734 627.845836 l 1
 276.369234 619.248176 l 1
 220.871234 621.177866 l 1
 198.031 737.686 l 1
376.498 727.117 m 1
 356.9062 715.6951 l 1
 303.541 675.3377 l 2
 276.5674 654.4393 270.6357 642.9393 291.3828 643.3553 c 1
 356.9062 663.9158 l 1
 403.5175 682.9529 l 1
 406.20012 698.0994 406.11027 707.9363 404.234297 714.3533 c 0
 402.123947 714.3933391 387.399297 726.0398 376.497997 727.117 c 1
 376.497997 727.117 l 1
 376.498 727.117 l 1
EndSplineSet
Validated: 524837
EndChar

StartChar: "+MLAw6jDV 72"
Encoding: 72 12449 71
Width: 430
Flags: W
LayerCount: 2
Fore
SplineSet
378.695 537.756 m 1
 378.695 537.746 l 1
 371.13836 537.63858 l 1
 371.13836 536.4335 l 1
 343.39336 534.79383 314.24666 527.46292 286.72826 522.1679 c 1
 127.80826 516.19329 l 2
 118.13899 517.30285 107.00366 520.13825 95.84346 521.65618 c 0
 84.52606 523.19645 72.71196 523.60212 62.50946 517.50188 c 2
 60.68719 516.41813 l 1
 49.88249 496.16223 l 1
 25.99969 435.01773 l 1
 270.39969 459.20133 l 1
 267.10282 433.60173 l 1
 249.13402 407.14663 l 1
 234.68672 401.41226 l 1
 230.59297 408.45523 l 1
 130.59097 412.09781 l 1
 148.96597 382.46501 l 2
 157.99186 367.69711 168.29337 345.36931 176.26677 326.90451 c 0
 180.25651 317.66364 183.6911 309.33641 186.16911 303.35181 c 0
 187.40657 300.3599 188.3794 297.95939 189.11833 296.23267 c 0
 189.11833 296.15557 189.1174 296.15587 189.19453 296.12525 c 2
 150.17303 165.34825 l 1
 171.00113 185.03185 l 2
 183.82033 197.10675 198.14753 217.36765 209.78233 235.59825 c 0
 215.59978 244.71277 220.66293 253.24895 224.35073 259.94785 c 0
 226.19382 263.29734 227.68448 266.19033 228.79019 268.53964 c 0
 229.34498 269.71394 229.82516 270.76427 230.20425 271.77597 c 0
 230.48167 272.51566 230.75955 273.26092 230.94448 274.42441 c 0
 231.06014 274.84821 236.56867 295.14361 242.09488 316.24671 c 0
 244.88803 326.90841 247.6875 337.66851 249.71012 345.99871 c 0
 250.72103 350.16337 251.53908 353.69744 252.10465 356.41281 c 0
 252.2203 356.93677 252.24264 357.31578 252.3273 357.78195 c 0
 277.8008 369.68505 303.4819 380.27295 335.4894 405.61005 c 2
 337.35659 407.14325 l 1
 360.23159 484.10615 l 2
 366.20854 490.40518 374.02659 497.18605 380.65149 504.40885 c 0
 384.14971 508.22217 387.30495 512.16298 389.57727 516.58265 c 0
 391.84877 521.0016 393.30176 526.3075 392.0304 531.76825 c 2
 390.66126 537.45575 l 1
 384.85267 537.6784 l 2
 382.76761 537.7631 380.72854 537.772 378.77063 537.7565 c 2
 378.77063 537.7565 378.77156 537.75726 378.69443 537.7565 c 1
 378.695 537.756 l 1
EndSplineSet
Validated: 524841
EndChar

StartChar: "+MLAw6jDV 73"
Encoding: 73 12451 72
Width: 382
Flags: W
LayerCount: 2
Fore
SplineSet
227.527 545.857 m 1
 227.527 525.7222 l 1
 227.527 421.9722 l 1
 173.0934 349.3882 l 1
 23.7884 262.9312 l 2
 12.914 255.5573 18.62556 248.1821 30.44074 240.8081 c 1
 117.69664 245.98584 l 1
 191.34704 294.33934 l 1
 196.4193 247.23384 l 1
 191.85876 133.25184 l 1
 256.42126 159.46864 l 1
 256.42126 229.94324 l 1
 257.6693 291.26944 l 1
 266.83532 330.45694 l 1
 265.69079 355.07804 l 1
 273.71227 364.8593 l 1
 292.25327 396.539 l 1
 306.59507 502.109 l 1
 286.26867 545.3338 255.62687 539.5572 227.52667 545.857 c 1
 227.527 545.857 l 1
EndSplineSet
Validated: 524805
EndChar

StartChar: "+MLAw6jDV 74"
Encoding: 74 12453 73
Width: 325
Flags: W
LayerCount: 2
Fore
SplineSet
69.7637 524.75 m 1
 121.2324 474.7578 l 1
 113.61717 448.1953 l 1
 81.41207 445.7578 l 1
 64.40617 461.9062 l 1
 30.61797 469.39722 19.10527 460.79892 22.59957 441.3632 c 2
 29.49215 373.4609 l 1
 40.74805 337.5078 l 1
 72.14065 310.8867 l 1
 90.63675 328.914 l 1
 91.66019 371.4589 l 1
 99.95316 385.123 l 1
 159.17196 393.24995 l 1
 216.32816 390.46675 l 1
 215.58988 363.84375 l 1
 208.59184 289.21485 l 1
 200.91606 255.42975 l 1
 185.61136 224.77355 l 1
 116.21876 185.58605 l 1
 79.70896 173.69735 l 1
 84.02927 154.35745 l 1
 156.38477 163.46292 l 1
 230.60737 196.51172 l 1
 266.72647 261.40432 l 1
 273.89053 376.81632 l 1
 281.62491 444.83972 l 1
 248.57801 466.91592 l 1
 218.26751 452.12292 l 1
 179.98231 452.98034 l 1
 180.9452 504.61514 l 1
 145.746 517.52724 l 1
 69.7637 524.75 l 1
EndSplineSet
Validated: 524841
EndChar

StartChar: "+MLAw6jDV 75"
Encoding: 75 12455 74
Width: 480
Flags: W
LayerCount: 2
Fore
SplineSet
131.043 478.971 m 1
 114.836 467.7601 l 1
 117.39459 462.92806 l 1
 107.25919 444.55496 108.39041 428.99986 139.51569 420.94176 c 2
 184.67979 404.28156 l 1
 193.54307 337.34216 l 1
 189.73643 292.63126 l 1
 188.42588 274.25626 l 1
 97.70908 269.07852 l 1
 61.59188 273.9711 l 1
 48.48138 262.2699 30.93658 254.2621 34.45708 228.7016 c 1
 50.15438 200.1391 l 1
 136.95708 201.85395 l 1
 182.34578 204.06684 l 1
 252.53718 206.2934 l 1
 301.38678 207.99457 l 1
 358.43758 214.19574 l 1
 423.40638 242.29144 l 1
 429.03529 262.54734 l 1
 243.65829 271.98484 l 1
 248.54892 298.03364 l 1
 254.35751 396.26024 l 1
 331.83021 417.08834 l 1
 360.99621 446.25434 l 1
 308.38491 474.92234 l 1
 201.68591 465.36765 l 1
 162.31681 465.36765 l 1
 131.043 478.971 l 1
EndSplineSet
Validated: 524841
EndChar

StartChar: "+MLAw6jDV 76"
Encoding: 76 12457 75
Width: 444
Flags: W
LayerCount: 2
Fore
SplineSet
250.086 537.295 m 1
 203.3282 537.2774 l 1
 209.75399 500.9805 l 1
 219.76179 454.627 l 1
 211.63484 453.94927 l 1
 211.91999 454.02737 l 1
 152.31059 451.00198 l 1
 104.64849 459.25003 l 1
 101.39849 455.66605 l 2
 95.02779 448.71977 89.40499 441.22995 86.55869 432.29495 c 0
 83.71392 423.36072 84.28207 412.94605 89.52549 403.17585 c 2
 91.61729 399.18757 l 1
 119.54889 395.50007 l 1
 223.52389 398.22468 l 1
 220.61959 374.89848 l 1
 169.60199 319.50208 l 1
 106.30509 253.30088 l 1
 24.00039 232.69738 l 1
 25.02383 215.35948 l 1
 87.76403 207.56455 l 1
 168.47303 237.64855 l 1
 224.83243 286.79895 l 1
 220.34806 220.58215 l 1
 208.78946 199.15245 l 1
 229.15276 141.81455 l 1
 278.24256 148.17979 l 1
 281.77967 205.96889 l 1
 275.68396 315.28689 l 1
 274.31482 399.18729 l 1
 322.83432 403.05448 l 1
 358.04922 400.10526 l 1
 382.50432 395.66581 l 1
 395.47692 449.58771 l 1
 357.31092 461.64041 l 1
 283.48082 457.54862 l 1
 284.89488 511.63452 l 1
 250.086 537.295 l 1
EndSplineSet
Validated: 524809
EndChar

StartChar: "+MLAw6jDV 77"
Encoding: 77 12515 76
Width: 420
Flags: W
LayerCount: 2
Fore
SplineSet
108.395 533.459 m 2
 107.41202 533.4586 106.41125 533.437 105.39305 533.3926 c 2
 105.38905 533.3906 l 1
 113.36561 475.2109 l 1
 121.266 411.3867 l 1
 121.09022 411.1035 l 1
 58.30312 396.5351 l 1
 57.03945 395.28705 l 2
 52.00175 390.4389 45.89175 385.42442 41.34415 379.01755 c 0
 36.7973 372.61064 34.10099 363.73465 37.5961 354.66795 c 2
 39.29727 350.34959 l 1
 127.41057 355.36131 l 1
 144.06877 224.82431 l 1
 161.30117 171.51961 l 1
 200.83637 145.64851 l 1
 203.22895 232.43761 l 1
 198.05121 303.54701 l 1
 189.68402 361.84781 l 1
 271.82272 381.74231 l 1
 265.56295 341.36531 l 1
 261.92037 289.09971 l 1
 334.72897 354.50201 l 1
 357.93597 397.21291 l 1
 384.39107 426.73831 l 1
 390.96825 489.50901 349.26977 466.45391 321.19967 467.62891 c 1
 291.16067 450.39651 l 1
 184.50867 430.32031 l 1
 180.70008 430.32031 l 1
 168.87198 494.82231 l 1
 152.72488 512.71681 138.86788 533.47171 108.39538 533.45901 c 2
 108.395 533.459 l 2
EndSplineSet
Validated: 524841
EndChar

StartChar: "+MLAw6jDV 78"
Encoding: 78 12517 77
Width: 485
Flags: W
LayerCount: 2
Fore
SplineSet
272.939 429.832 m 1
 272.261266 429.7558281 l 1
 160.097266 419.4003281 l 1
 126.417566 400.0019281 l 2
 111.357066 390.6396281 104.493766 377.1796281 114.243766 355.4121281 c 1
 264.464766 350.7461081 l 1
 261.621016 260.7070081 l 1
 201.665916 259.0058381 l 1
 75.911916 245.0097381 l 1
 48.839616 240.8573981 l 1
 21.419716 190.3964981 l 1
 120.113116 186.3027481 l 1
 120.113116 186.3027481 204.107216 194.0849781 246.211116 193.7070481 c 0
 282.394716 193.3838061 354.445116 185.4004081 354.445116 185.4004081 c 1
 434.476316 182.3906381 l 1
 439.759516 218.9004381 l 1
 398.132516 246.4844381 l 1
 330.214516 264.1231381 l 1
 337.333656 399.4901381 l 1
 309.913756 424.8026381 l 1
 272.939 429.832 l 1
EndSplineSet
Validated: 524841
EndChar

StartChar: "+MLAw6jDV 79"
Encoding: 79 12519 78
Width: 313
Flags: W
LayerCount: 2
Fore
SplineSet
259.525 515.492 m 2
 258.92969 515.4734 258.29889 515.4269 257.63047 515.35137 c 0
 197.09947 503.85427 137.20947 490.79287 69.53647 496.74977 c 1
 69.53647 496.74777 l 1
 50.70897 474.46327 49.48287 447.30467 45.60877 420.87867 c 0
 44.13812 412.5244 51.00899 413.82402 56.87827 413.96265 c 0
 70.36997 411.60955 97.47597 410.27137 105.41347 410.08179 c 0
 137.23237 409.31587 153.60017 417.88949 184.97407 421.35919 c 1
 195.35437 358.91899 185.79741 300.51519 173.67327 242.63219 c 1
 48.64427 245.98571 l 1
 37.19287 239.41458 33.14227 200.73811 25.99977 175.47791 c 1
 46.25047 172.3898 64.41767 173.33992 88.60917 171.41931 c 1
 93.83165 166.59115 108.92347 164.67415 126.89237 163.60681 c 1
 179.49587 172.35486 l 1
 181.93049 159.30116 186.84959 165.37244 191.19897 167.05017 c 0
 222.26877 207.46587 249.97117 250.49367 258.97047 308.02517 c 0
 265.84472 373.04557 264.0433 434.70217 248.61497 491.07417 c 1
 268.63447 502.58977 l 1
 269.37158 509.81334 268.45468 515.77177 259.52509 515.49217 c 1
 259.525 515.492 l 2
148.719 361.787 m 2
 144.3525 361.778 139.86173 361.43869 135.4514 360.77137 c 1
 135.4534 360.76937 l 1
 108.0472 358.99593 l 1
 96.5765 342.32993 l 1
 79.7576 327.57463 84.268 319.54143 93.80111 303.18933 c 1
 111.10521 294.61899 127.64691 290.38923 143.22491 291.63853 c 0
 156.59521 295.39149 168.42791 300.64457 174.91631 311.10733 c 1
 181.61748 343.23623 l 2
 184.21128 355.67563 167.64058 361.82663 148.71908 361.78703 c 1
 148.719 361.787 l 2
EndSplineSet
Validated: 524841
EndChar

StartChar: "+MLAw6jDV 80"
Encoding: 80 12483 79
Width: 328
Flags: W
LayerCount: 2
Fore
SplineSet
213.07 525.232 m 2
 207.22665 525.3004 201.2499 524.32918 195.1071 522.08747 c 1
 191.22515 512.01647 210.6302 490.91157 204.03874 478.47617 c 1
 188.27504 360.78117 l 1
 87.91604 173.72217 l 1
 61.27224 141.92457 82.26884 156.17937 95.7969 163.21437 c 1
 230.3109 311.38837 l 1
 237.07134 329.84507 237.86772 314.50249 240.8207 311.38637 c 1
 262.3504 359.65247 267.8487 413.74837 274.4496 467.44337 c 1
 281.80507 471.1211 l 2
 295.14607 474.88514 292.90227 479.62336 283.90663 484.7832 c 0
 261.18533 505.1365 238.39183 524.9359 213.07073 525.2324 c 1
 213.07 525.232 l 2
143.328 505.494 m 2
 132.6712 505.5416 123.7557 494.8979 124.1718 489.5116 c 2
 128.90031 464.2909 l 1
 126.27336 374.4393 l 1
 129.68174 340.5455 139.51096 337.95 154.12296 358.6756 c 1
 162.52921 422.2557 l 1
 167.78311 478.4764 l 1
 160.95795 498.9521 151.61671 505.457 143.32801 505.494 c 2
 143.328 505.494 l 2
60.877 481.908 m 1
 52.94161 481.94165 45.3328 471.6778 38 452.7303 c 1
 47.45898 377.0662 l 2
 55.30415 332.389 64.51788 341.0883 73.73048 349.7439 c 1
 87.39258 444.8474 l 1
 78.1427 470.1666 69.32428 481.8721 60.87698 481.9079 c 1
 60.877 481.908 l 1
EndSplineSet
Validated: 524841
EndChar

StartChar: "+MLAw6jDV 81"
Encoding: 81 12526 80
Width: 349
Flags: W
LayerCount: 2
Fore
SplineSet
186.516 479.32 m 1
 80.924 475.41961 l 1
 45.7052 437.63051 l 1
 28.0978 419.73011 l 1
 42.1857 354.09921 l 1
 61.5529 336.19881 l 1
 86.2052 373.98591 l 1
 93.24817 409.78471 l 1
 194.34417 413.76127 l 1
 231.32077 401.82967 l 1
 227.79929 318.29647 l 1
 218.99655 248.68707 l 1
 183.05125 191.01127 l 1
 105.57465 167.14607 l 1
 58.03165 161.17928 l 1
 154.87735 155.21248 l 1
 253.48475 202.94488 l 1
 273.18755 234.18158 290.85405 264.90928 295.74455 292.44298 c 2
 304.54924 431.66398 l 1
 276.37544 477.40808 l 1
 186.516 479.32 l 1
EndSplineSet
Validated: 524809
EndChar

StartChar: "+MLAw6jDV 82"
Encoding: 82 24618 81
Width: 814
Flags: W
LayerCount: 2
Fore
SplineSet
199.213 780.857 m 1
 186.7198 769.8619 205.99327 745.7252 209.8653 727.9605 c 2
 211.47077 57.3515 l 1
 244.80277 278.4865 l 2
 249.67972 284.50896 255.97077 285.61931 258.43167 300.0256 c 2
 272.05077 531.4046 l 1
 310.43357 504.2542 l 1
 314.95701 495.7874 l 1
 335.60931 514.8558 366.17281 535.8343 352.94141 548.3733 c 0
 332.41601 573.4749 307.20021 590.9212 275.99611 598.594 c 1
 280.1172 668.6624 l 1
 293.7637 695.7562 l 2
 297.32132 709.5511 209.8067 779.5316 199.2129 780.8578 c 1
 199.2129 780.8578 l 1
 199.213 780.857 l 1
605.398 702.502 m 1
 439.381 692.043 l 1
 437.2062 699.36331 431.10659 700.36136 423.2892 698.58402 c 1
 417.70717 692.46781 389.6505 643.44922 389.6505 643.44922 c 2
 376.2403 625.26762 391.01671 620.00582 419.5646 621.08012 c 2
 419.56655312 621.08012 l 1
 536.91955312 637.49422 l 1
 544.72619312 625.10752 l 1
 528.77599312 604.62612 509.55239312 585.82632 488.42349312 567.99622 c 1
 433.77899312 595.24622 l 2
 433.23993112 599.54114 423.18229312 598.23157 422.15789312 600.97474 c 0
 419.13836312 609.05189 423.63934312 616.36344 419.56609312 621.08024 c 1
 395.60809312 610.12904 385.96649312 586.53144 378.43329312 568.16034 c 1
 447.23989312 535.84394 l 1
 397.28479312 499.40544 341.80189312 465.79214 293.52889312 428.49194 c 1
 358.44489312 457.34254 441.91689312 472.54764 505.02689312 504.48994 c 1
 591.48389312 468.09734 l 1
 591.48389312 468.09734 757.75089312 448.00064 747.36889312 454.17744 c 0
 738.44311312 459.48701 600.30589312 518.05634 552.36289312 538.59734 c 1
 578.51519312 553.35514 591.01719312 575.40394 615.72809312 592.63054 c 1
 597.05819312 681.84934 l 1
 608.02989312 688.52024 604.37460312 695.56904 605.39803312 702.50164 c 1
 605.39803312 702.50164 l 1
 605.398 702.502 l 1
150.334 646.797 m 2
 146.82033 646.631961 143.35451 645.28626 139.8965 643.68762 c 0
 131.5967 515.98762 77.8174 460.70262 21.9005 408.82462 c 1
 113.4103 434.95742 l 1
 143.8332 448.29822 164.7677 477.34312 187.9044 506.69962 c 0
 190.58018 510.09513 200.7784 503.66349 199.5333 514.11954 c 0
 194.63975 567.05804 185.9454 613.86664 164.1876 639.60954 c 0
 159.44346 645.26872 154.85166 647.00895 150.3341 646.79704 c 1
 150.3341 646.79704 l 1
 150.334 646.797 l 2
544.629 472.283 m 1
 541.69931 470.38456 l 1
 541.69931 470.38456 458.76771 469.611122 452.58021 471.249794 c 1
 456.39857 434.249794 l 1
 455.986461 414.265394 l 1
 427.421061 413.032974 397.781361 415.808364 370.164161 417.318124 c 1
 361.140721 406.001724 349.352661 399.509524 348.414161 374.095424 c 1
 383.906361 370.136444 419.430761 367.145224 454.994161 365.909874 c 1
 453.025411 270.458674 l 1
 331.795411 292.214574 l 2
 322.181151 296.332734 312.207511 298.309304 300.140111 287.777074 c 2
 272.476011 256.890374 l 1
 272.476011 256.890374 297.364711 242.231174 350.075611 227.491974 c 0
 409.377411 210.908974 497.827611 195.392374 499.941611 193.958774 c 0
 520.180911 180.242974 782.414611 269.157974 769.648611 280.386474 c 1
 688.760911 274.869874 621.339611 261.341574 523.087611 266.155974 c 1
 533.591511 366.640974 l 1
 560.985111 368.160504 588.419611 370.993514 615.904011 375.935894 c 1
 642.595411 406.728894 l 1
 673.220411 423.633194 l 1
 631.201811 414.221084 584.955811 411.852894 538.326411 412.047294 c 1
 544.629 472.283 l 1
EndSplineSet
Validated: 524837
EndChar

StartChar: "+MLAw6jDV 83"
Encoding: 83 20154 82
Width: 742
Flags: W
LayerCount: 2
Fore
SplineSet
317.645 832.502 m 1
 310.56199 829.27446 320.9702 817.1299 328.1889 806.6114 c 1
 328.1889 806.6114 335.73285 787.3741 332.54046 758.8282 c 0
 328.77288 725.1436 327.52191 604.9592 326.32757 547.7242 c 0
 325.912531 527.8121 297.22117 495.5445 297.22117 495.5445 c 1
 211.26217 376.5105 142.38317 260.5815 19.91417 134.9085 c 1
 198.64317 257.6195 l 1
 348.36617 455.5445 l 1
 498.84317 233.6095 l 1
 704.08717 147.3615 l 1
 504.10417 352.4295 l 1
 392.67117 514.1215 l 1
 393.579373 515.32072 l 1
 409.376273 768.29672 l 1
 416.259083 771.50668 422.479773 775.72738 424.413373 786.50572 c 0
 423.636029 795.42955 320.524373 832.06622 317.645373 832.50182 c 2
 317.644396438 832.50182 l 1
 317.645 832.502 l 1
EndSplineSet
Validated: 524837
EndChar

StartChar: "+MLAw6jDV 84"
Encoding: 84 12540 83
Width: 553
Flags: W
LayerCount: 2
Fore
SplineSet
95.7656 484.037 m 1
 40.2051 420.3456 l 1
 66.6289 419.669819 l 1
 166.2324 382.404219 l 1
 268.3434 380.122969 366.1874 382.103438 429.1284 418.992119 c 1
 454.6128 440.844619 501.6343 467.231419 429.1284 468.455019 c 0
 318.9904 470.696229 208.4314 474.209899 95.7654 484.037019 c 1
 95.7654 484.037019 l 1
 95.7656 484.037 l 1
EndSplineSet
Validated: 524837
EndChar

StartChar: "+MLAw6jDV 85"
Encoding: 85 65281 84
Width: 328
Flags: W
LayerCount: 2
Fore
SplineSet
170.854 787.949 m 2
 170.022945 787.9157969 169.26123 787.778102 168.56884 787.550562 c 0
 160.5747 784.914822 152.66264 749.986062 161.92626 743.058362 c 1
 101.92426 390.767362 l 2
 99.65766 362.350362 94.67133 327.456862 123.92036 374.148262 c 1
 253.93536 721.320262 l 1
 287.92556 734.751862 293.34456 743.525362 264.48026 752.589762 c 2
 264.48026 752.589762 192.11986 781.864162 175.59746 787.185462 c 0
 173.82012 787.76847 172.24101 788.003821 170.85527 787.949134 c 2
 170.854293438 787.949134 l 1
 170.854 787.949 l 2
85.3164 330.32 m 1
 72.7285 316.9548 l 1
 72.7285 316.9548 39.2441 228.6696 38.3203 223.9177 c 0
 27.4922 168.2058 79.5478 161.3659 88.0898 192.2575 c 1
 107.5781 232.0534 102.8076 257.2233 110.0351 289.6286 c 1
 102.7558 329.1374 93.7441 321.821 85.3163 330.32 c 1
 85.3164 330.32 l 1
EndSplineSet
Validated: 524837
EndChar

StartChar: "+MLAw6jDV 86"
Encoding: 86 20840 85
Width: 908
Flags: W
LayerCount: 2
Fore
SplineSet
324.789 789.432 m 1
 317.83978 789.4134453 312.7285 789.061883 310.6992 788.31286 c 2
 310.6992 788.31090688 l 2
 308.22459 781.42613688 313.75975 778.54528688 320.18162 776.10780688 c 1
 240.22462 480.68380688 l 1
 57.28762 276.06280688 l 2
 27.01902 247.44070688 33.18902 242.13800688 66.77395 254.38120688 c 1
 305.28395 431.91020688 l 1
 306.99098 437.85551688 l 1
 339.73898 438.76567288 l 1
 341.95382 365.44927288 l 1
 270.05342 368.21099288 l 1
 259.20382 357.37699288 l 1
 222.45672 349.90043288 242.73802 335.71589288 234.81902 324.84769288 c 1
 343.70402 307.70709288 l 1
 345.36613 252.77549288 l 1
 287.66883 254.38096288 l 1
 194.16103 277.42196288 l 1
 202.28798 274.70516288 l 1
 173.02338 266.71200288 163.27918 237.77446288 179.24698 220.50786288 c 1
 212.81338 195.93366288 256.93648 192.47366288 295.79798 178.49026288 c 0
 340.29798 161.20806288 383.16128 166.84276288 425.88598 174.42581288 c 0
 494.81468 192.26961288 586.11598 208.79691288 597.99298 229.99611288 c 0
 608.86408 246.35741288 605.01056 258.30081288 597.99298 269.29491288 c 1
 419.04598 254.48441288 l 1
 418.727621 307.89851288 l 1
 472.724721 310.72761288 513.666121 316.16804288 531.588621 326.21101288 c 1
 538.974361 351.70711288 545.962621 376.92191288 518.037821 377.70121288 c 2
 418.350321 368.21293288 l 1
 417.899149 440.96683288 l 1
 493.297549 435.97074288 l 1
 505.193049 449.27544288 505.385449 461.92874288 501.096379 474.33404288 c 1
 558.692079 387.18954288 l 1
 614.530979 333.34284288 668.576079 311.78034288 722.655079 289.61724288 c 1
 877.995079 245.02744288 799.963679 283.88677288 789.057379 295.04107288 c 2
 661.674379 383.12507288 l 1
 396.131379 749.23607288 l 1
 403.867709 762.22237288 l 1
 417.746609 776.10517288 l 2
 419.556179 783.34638288 354.902809 789.51437288 324.789609 789.43137288 c 2
 324.788632438 789.43137288 l 1
 324.789 789.432 l 1
372.947 668.252 m 1
 482.262 502.842 l 1
 428.0765 495.17989 376.017 496.01876 324.521 499.10958 c 1
 372.947 668.252 l 1
EndSplineSet
Validated: 524841
EndChar

StartChar: "+MLAw6jDV 87"
Encoding: 87 28357 86
Width: 696
Flags: W
LayerCount: 2
Fore
SplineSet
412.43 859.947 m 1
 412.4407422 859.9391875 l 1
 414.9075422 712.9591875 l 1
 351.1126422 706.0412175 l 1
 269.2571422 720.9553175 l 1
 223.1712422 720.7971145 l 1
 220.1556222 361.3891145 l 1
 209.0990222 163.0631145 l 1
 225.9447222 186.6744145 l 1
 225.9447222 186.6744145 238.5326222 216.2428145 251.2572222 246.4869145 c 1
 366.0412222 337.0611145 l 1
 427.1682222 329.6802545 l 1
 344.6252222 164.8322545 l 1
 334.8752222 131.9767545 l 1
 305.1887222 85.9328545 313.7316222 84.4679545 398.6272222 172.0470545 c 1
 466.1975222 300.4650545 l 1
 500.6272222 236.7101545 530.7454222 168.3520545 593.7445222 135.1230545 c 1
 630.7660222 163.4707545 l 1
 640.3285222 365.8147545 l 1
 626.2142222 423.6545545 l 1
 573.1292222 265.9615545 l 1
 549.0188222 307.1627545 532.6819222 354.3121545 521.3646222 405.3065545 c 1
 587.4085222 530.8345545 l 1
 584.4026622 560.0288545 568.9065222 557.1616545 556.5403222 562.3462545 c 1
 530.3020222 535.7153545 l 1
 507.2659222 489.7133545 l 1
 501.2131922 538.8988545 497.9963922 590.2493545 495.8401222 642.4183545 c 1
 501.1848522 645.3314445 504.9065322 647.4222645 504.9065322 647.4222645 c 1
 553.8147322 685.6410645 l 1
 547.5412922 711.2074645 l 1
 557.6057922 734.5804645 l 1
 513.2366922 723.6175645 l 1
 493.0335922 721.4300645 l 1
 492.3285142 742.7376645 491.7074222 764.0550645 490.8382822 785.2503645 c 1
 501.0511822 845.2562645 l 1
 501.0511822 845.2562645 448.0111822 850.2679845 441.1497822 852.7523545 c 0
 434.2874822 855.2357545 412.4300822 859.9476645 412.4300822 859.9476645 c 1
 412.4300822 859.9476645 l 1
 412.43 859.947 l 1
567.174 837.941 m 2
 566.04119 837.9292812 564.87517 837.8902188 563.67791 837.827719 c 2
 520.41621 793.009319 l 1
 520.023632 777.947819 500.95041 753.491719 543.20721 759.857019 c 0
 561.15251 760.589441 579.15251 761.422449 603.45131 783.544519 c 1
 606.95619 814.194919 602.29701 838.305219 567.17401 837.941019 c 1
 567.17401 837.941019 l 1
 567.174 837.941 l 2
77.2617 785.943 m 1
 60.6445 786.372688 51.3144 760.2399 60.7734 752.0231 c 1
 71.9912 721.3747 83.8554 690.6588 109.291 658.7086 c 1
 149.2988 639.1861 163.6387 654.2379 152.5547 703.5289 c 1
 84.8086 783.9918 l 2
 82.16895 785.26914 79.63672 785.87657 77.26172 785.94297 c 1
 77.26172 785.94297 l 1
 77.2617 785.943 l 1
307.119 642.209 m 2
 307.12192969 642.209 376.2206 632.30177 417.064 625.9668 c 1
 417.658727 610.4717 418.43314 594.8945 419.37845 579.2559 c 1
 339.90385 573.46879 l 1
 301.65385 580.01762 l 1
 303.3267 599.10352 307.11869 642.20902 307.11869 642.20902 c 1
 307.11869 642.20902 l 1
 307.119 642.209 l 2
49.2598 608.588 m 1
 22.0166 608.694445 25.0381 600.61437 19.8907 594.7345 c 1
 19.553786 575.8029 17.90242 556.5324 33.17 541.6154 c 0
 58.7511 514.714 81.0401 506.465 102.1973 504.5822 c 1
 118.9844 498.24822 131.3819 497.5529 118.3184 529.5295 c 2
 99.0957 577.7053 l 2
 83.0859 611.466 65.9902 602.928 49.2598 608.5881 c 1
 49.2598 608.5881 l 1
 49.2598 608.588 l 1
193.979 578.809 m 1
 193.979 578.808023438 193.979976562 578.80607031 193.979 578.80509375 c 1
 193.98192969 578.809 l 1
 193.979 578.809 l 1
193.979 578.805 m 1
 65.791 293.895 l 1
 51.5635 303.83152 34.1269 319.9848 36.5039 297.67234 c 1
 71.7441 260.48974 102.8984 213.81594 150.7329 205.87054 c 1
 166.0854 233.48484 l 1
 193.478 491.33884 l 1
 191.98972 515.69044 l 1
 206.33542 549.72954 193.7612 558.18654 193.97995 578.80564 c 1
 193.979 578.805 l 1
422.209 539.683 m 1
 423.54494 523.4584 425.00978 507.1908 426.88283 490.7475 c 1
 423.46095 507.0893 l 1
 375.18945 470.2377 l 1
 382.6582 429.1244 l 1
 403.4844 414.2279 l 1
 434.293 435.2474 l 1
 436.61136 420.2367 439.20609 405.1117 442.10745 389.8626 c 1
 376.23045 397.73955 l 1
 371.55467 520.13355 l 1
 422.209 539.683 l 1
296.895 525.836 m 1
 326.1196 522.95514 l 1
 328.82663 454.43174 l 1
 316.19773 461.32041 297.50043 467.61044 291.98283 470.11534 c 1
 294.3549 496.91514 294.7426 501.36144 296.89494 525.83604 c 1
 296.89494 525.83604 l 1
 296.895 525.836 l 1
285.479 397.223 m 1
 318.7808 380.2074 l 1
 315.68314 363.1859 l 1
 273.03864 299.2406 l 1
 274.60993 303.19665 277.27887 309.6967 277.43122 310.4008 c 0
 277.80915 312.15959 281.30134 350.5815 285.48005 397.2231 c 1
 285.479073438 397.2231 l 1
 285.479 397.223 l 1
EndSplineSet
Validated: 524837
EndChar

StartChar: "+MLAw6jDV 88"
Encoding: 88 22855 87
Width: 630
Flags: W
LayerCount: 2
Fore
SplineSet
255.535 829.137 m 1
 261.83383 805.347 257.05355 788.2083 254.855312 769.5159 c 1
 254.855312 769.5159 251.848472 763.4661 251.441252 762.63113 c 2
 177.531052 759.16043 l 1
 147.806452 761.37137 l 1
 118.721452 733.94267 114.822052 706.72297 118.661952 693.62337 c 1
 218.218552 696.32845 l 1
 208.877732 678.19465 200.383552 662.18975 197.939252 659.74835 c 0
 191.163862 652.97296 46.168252 540.49235 46.168252 540.49235 c 1
 13.012952 519.54505 18.134052 516.73455 53.617472 528.30095 c 1
 123.738572 563.07245 l 1
 73.937772 519.47675 l 1
 334.128772 516.09198 l 1
 381.296772 519.25995 l 1
 389.699112 453.75215 l 1
 388.576062 407.67795 386.703022 361.61055 371.404212 315.53515 c 1
 326.528212 276.50585 291.858312 232.93455 232.492212 200.34615 c 1
 83.429212 102.10785 l 1
 36.680212 79.74455 l 1
 45.491732 75.09123 62.373612 78.62736 103.084512 97.36175 c 0
 207.431512 151.56585 313.647512 190.83055 416.125512 259.98075 c 1
 423.267112 258.7913 472.104012 461.24875 474.387212 465.96075 c 0
 476.376472 470.06915 477.644052 505.32795 476.412602 525.63845 c 1
 536.047402 529.64431 l 1
 570.058102 536.39724 571.664602 540.84641 582.129402 545.91771 c 1
 582.129402 545.91771 595.005402 558.11111 582.80909 558.78881 c 0
 570.61279 559.462638 452.72109 562.1599 452.72109 562.1599 c 1
 452.72109 562.1599 243.33009 570.97045 235.87709 571.64818 c 0
 230.03529 572.173571 178.79599 574.75463 153.50599 577.83959 c 1
 220.30089 610.96069 l 1
 286.99229 678.26149 l 1
 340.42299 651.11499 393.85129 620.59449 447.28129 606.21659 c 1
 492.91999 598.42948 521.48639 596.49296 504.19729 610.28104 c 1
 441.87309 640.09154 l 2
 410.54789 654.74974 385.88679 677.41184 361.33789 700.20284 c 1
 368.00586 700.388387 l 1
 474.38686 741.046587 l 1
 512.83706 746.827837 513.06366 758.039787 522.49426 765.433287 c 1
 383.59826 768.831727 l 1
 345.89126 767.068057 l 1
 340.23501 804.747757 l 1
 347.9606 811.723347 345.00454 817.158857 340.23501 822.349357 c 1
 255.535 829.137 l 1
139.68 480.18 m 1
 151.8714 446.9847 l 1
 156.05206 394.3597 163.4075 341.7367 183.7073 289.1117 c 1
 220.9807 308.0883 l 1
 300.258 337.8988 l 1
 338.8752 358.2211 l 1
 347.46114 384.1869 355.0441 412.4086 356.4924 454.434 c 1
 346.73459 471.269 332.1369 480.4916 309.7463 477.475 c 2
 202.6843 474.09023 l 1
 202.6843 474.09023 149.8366 475.44668 142.3835 478.83437 c 2
 139.68 480.18 l 1
235.406 424.695 m 1
 247.1433 424.7770312 259.8757 422.87762 273.1521 419.87859 c 1
 274.61499 399.66859 270.77515 384.76629 259.5994 377.19699 c 0
 242.9139 371.01144 225.7869 362.63549 210.8123 365.00359 c 1
 207.28984 385.07389 205.00664 404.73019 212.17168 421.23799 c 1
 218.64434 423.36983 225.64628 424.42647 233.07208 424.65205 c 0
 233.845518 424.6754875 234.62384 424.6891594 235.40606 424.6950188 c 1
 235.40606 424.6950188 l 1
 235.40606 424.6950188 l 1
 235.406 424.695 l 1
EndSplineSet
Validated: 524837
EndChar

StartChar: "+MLAw6jDV 89"
Encoding: 89 39318 88
Width: 539
Flags: W
LayerCount: 2
Fore
SplineSet
354.906 775.18 m 1
 354.89623438 775.1721875 l 1
 332.08473438 775.1839063 275.35623438 696.0412875 276.48513438 668.9261875 c 1
 240.55443438 666.3480675 l 1
 191.37763438 660.1175975 l 1
 202.64033438 663.8441575 204.07883438 671.2552975 208.88933438 677.4007975 c 0
 227.22133438 716.4232975 210.02312438 725.7376975 207.39128438 747.2308975 c 1
 180.84738438 761.5160975 154.27998438 773.8529975 127.32098438 751.5551175 c 0
 108.05338438 740.3295175 97.70088438 726.2280175 101.04558438 707.7016175 c 1
 148.29168438 654.6645175 l 1
 82.39518438 646.3207675 l 1
 43.64808438 591.8500675 l 1
 52.76234438 588.7221375 56.63438438 586.3383475 186.77308438 566.1039675 c 1
 187.71839638 544.1625675 l 1
 152.09139638 542.1606175 135.36389638 541.9291675 120.51919638 541.4242875 c 1
 121.45376638 551.9017875 105.22529638 556.1244875 100.29649638 556.5785875 c 0
 97.33946638 556.8578845 93.25840638 555.2436275 88.06409638 551.6918675 c 0
 59.07389638 539.9887675 50.86779638 525.2650675 34.90389638 511.6703675 c 1
 26.50643638 483.6449675 49.20269638 467.2914675 81.48199638 454.5258675 c 1
 101.95369638 357.5053675 105.47219638 259.7488675 112.37069638 162.1428675 c 1
 119.61092638 133.9719675 127.43609638 110.6184675 142.94489638 152.2522475 c 0
 144.21344638 158.6877975 145.19587638 164.6331475 146.36481638 170.8850475 c 1
 381.04081638 170.6721565 l 1
 380.85526938 172.7385665 l 1
 380.96073838 172.74247275 l 1
 409.08473838 242.62337275 441.21663838 301.54447275 463.15023838 388.40247275 c 1
 466.82015838 443.85367275 452.72253838 480.95617275 441.56433838 521.09147275 c 1
 454.91493838 525.71452275 467.88563838 531.28187275 476.76553838 547.06027275 c 0
 480.65323838 557.01242275 484.42080838 566.89817275 463.24603838 560.74977275 c 1
 463.24603838 560.74977275 377.74603838 555.45192275 293.98003838 550.42357275 c 1
 292.53667838 583.94897275 l 1
 424.64067838 615.28687275 l 1
 476.39267838 670.31717275 l 1
 508.22277838 689.76637275 490.62897838 683.98127275 484.07822838 683.82887275 c 2
 353.68922838 674.47926275 l 1
 368.75372838 685.76446275 385.54662838 691.11306275 398.49972838 709.64916275 c 1
 419.89812838 725.32686275 l 2
 433.82492838 731.70967275 438.57582838 738.47336275 428.14226838 745.87376275 c 2
 360.78676838 772.49776275 l 2
 359.25649838 774.33760275 357.26528838 775.17647275 354.90590838 775.17940275 c 1
 354.90590838 775.17940275 l 1
 354.906 775.18 l 1
360.072 502.387 m 1
 364.4177 489.4134 365.54954 474.805 369.22434 458.4515 c 1
 157.80634 449.34212 l 1
 154.20966 464.74252 149.66474 478.47882 144.11104 490.46122 c 1
 360.072 502.387 l 1
379.615 390.73 m 1
 370.19117 351.9605 l 1
 166.52117 343.18511 l 1
 166.883475 356.34821 167.008475 369.10891 166.5582794 380.81791 c 1
 379.615 390.73 l 1
352.117 277.592 m 1
 342.95684 239.8654 l 1
 156.42384 231.82829 l 1
 158.32032 244.78529 160.01857 257.34589 161.38478 269.37519 c 1
 352.117 277.592 l 1
EndSplineSet
Validated: 524837
EndChar

StartChar: "+MLAw6jDV 90"
Encoding: 90 38936 89
Width: 664
Flags: W
LayerCount: 2
Fore
SplineSet
350.711 779.125 m 1
 324.8077 753.3252 320.2061 721.1318 305.67 691.9219 c 1
 376.3262 693.18167 l 1
 400.4805 633.48827 l 1
 366.2891 636.01854 341.6016 636.75975 322.6367 637.75585 c 0
 295.4355 640.33397 293.9179 643.10546 300.7949 615.59765 c 2
 313.5234 564.66995 l 1
 280.2509 606.18655 240.9902 655.04295 224.9609 674.26395 c 1
 240.5254 698.63505 l 1
 269.3057 705.66044 254.1367 712.68485 252.0098 719.70925 c 0
 246.72855 724.66042 159.6817 751.10765 159.0645 747.49445 c 2
 160.98638 728.32845 l 1
 41.21138 428.40645 l 1
 13.42228 374.83615 23.01018 375.43185 57.49848 412.11935 c 1
 88.08828 459.99435 l 1
 95.67226 442.50315 109.23478 411.16425 109.23478 411.16425 c 2
 113.70646 404.94452 117.77091 395.59495 125.72498 416.37128 c 1
 210.81478 443.25998 l 1
 201.88705 421.03638 196.74348 397.18968 175.94368 380.05298 c 1
 172.48665 384.33423 l 1
 122.33335 401.59693 107.72595 388.19946 129.84605 343.12523 c 2
 129.84605 343.12523 183.47495 227.83523 184.93985 223.35123 c 0
 198.62145 181.46453 243.67615 178.64123 227.57855 230.0485 c 1
 212.72505 334.5075 l 1
 206.56294 342.14422 l 1
 243.86564 377.14622 l 1
 255.01314 412.83082 301.20644 404.54852 268.30904 495.49022 c 1
 283.21044 506.96972 273.63131 517.00972 274.91842 527.68752 c 1
 290.91062 510.98832 312.03172 496.77252 318.29632 517.21482 c 1
 335.34512 428.80372 312.31487 345.42282 309.50335 260.71282 c 1
 331.97995 278.12692 l 2
 333.68991 278.2861 342.62645 279.0361 345.92335 279.32809 c 1
 345.92335 254.97069 l 1
 326.66265 223.25189 301.33545 185.46479 278.85495 150.52569 c 1
 313.34905 165.73469 381.44295 182.07059 400.53895 238.68389 c 1
 409.56825 248.84209 376.80655 272.24349 356.74405 280.26789 c 1
 390.42665 283.25227 442.41295 287.82844 485.64405 290.79719 c 1
 528.95065 259.75809 l 1
 575.89985 486.85709 l 2
 584.07661 531.60509 582.48383 569.83949 560.09125 594.20909 c 1
 584.52095 596.10362 l 1
 607.60205 614.06942 649.26025 636.86532 612.30615 639.22082 c 2
 612.30615 639.22082 547.02195 639.50207 469.82215 637.50012 c 1
 465.98817 694.77742 l 1
 467.62489 694.77742 l 1
 552.90419 721.60942 l 1
 608.13959 729.36137 591.79579 741.88282 593.14249 753.22662 c 1
 605.61129 772.39072 l 1
 350.711 779.125 l 1
183.045 608.654 m 1
 264.4766 530.9392 l 1
 270.65238 529.01732 l 1
 202.36918 508.59352 l 1
 201.861368 538.40402 l 1
 209.601598 540.85226 204.182658 544.40304 201.703165 547.70285 c 0
 190.409265 566.25265 174.914065 570.10035 158.240265 569.82005 c 1
 183.045 608.654 l 1
479.078 587.898 m 1
 478.919797 538.1558 l 1
 397.486197 532.09525 l 1
 397.05065 548.14995 396.307487 564.43605 394.943227 581.34525 c 1
 479.078 587.898 l 1
143.24 546.344 m 1
 165.0525 497.4417 l 1
 99.4724 477.8284 l 1
 143.24 546.344 l 1
478.76 487.865 m 1
 478.574453 430.5447 l 1
 393.744353 427.39236 l 1
 395.577363 445.40796 396.832243 463.46656 397.447473 481.80446 c 1
 478.76 487.865 l 1
478.396 375.625 m 1
 478.265141 332.8848 l 1
 444.423341 332.285191 408.523941 331.67679 378.694841 331.17777 c 1
 381.566911 345.04297 384.009291 358.66017 386.259291 372.19727 c 1
 478.396 375.625 l 1
459.955 285.631 m 1
 443.6894 279.10854 428.2558 272.0177 445.578 242.5138 c 1
 497.3163 179.2638 l 2
 511.0966 159.9005 527.8798 160.0665 545.2343 163.9318 c 0
 564.7714 170.76774 589.4364 174.4699 577.8085 200.3517 c 2
 556.7343 234.8497 l 1
 459.955 285.631 l 1
EndSplineSet
Validated: 524841
EndChar

StartChar: "+MLAw6jDV 91"
Encoding: 91 26368 90
Width: 694
Flags: W
LayerCount: 2
Fore
SplineSet
156.002 814.398 m 1
 154.95122 814.413625 153.91802 814.3687031 152.90044 814.271047 c 2
 152.90044 814.26421106 l 1
 138.64944 812.85991106 127.45024 800.76621106 115.16414 792.48301106 c 1
 161.85654 726.79451106 122.23445 673.79801106 113.13875 616.31301106 c 1
 117.17391 603.88721106 110.31941 590.01911106 165.99035 584.47711106 c 1
 178.86335 598.02981106 l 1
 419.39635 601.41458106 l 1
 449.56525 636.42048106 506.64635 657.61478106 471.56825 726.07858106 c 1
 460.05655 778.93018106 l 1
 498.16395 795.65968106 486.30065 801.97898106 483.09565 810.10008106 c 1
 170.05465 801.29149106 l 2
 159.94135 800.01219106 156.67185 804.60594106 159.20505 814.16449106 c 1
 158.11911 814.30511606 157.05271 814.38128806 156.00193 814.39691306 c 2
 156.00193 814.397889622 l 1
 156.002 814.398 l 1
399.756 764.713 m 1
 392.76967 741.4669 l 1
 200.34167 720.6681 l 1
 191.7362 739.6329 l 1
 195.80163 739.6329 399.7562 764.713 399.7562 764.713 c 1
 399.7562 764.713 l 1
 399.756 764.713 l 1
390.471 691.529 m 1
 392.29327 665.779 l 1
 201.22627 656.97236 l 1
 202.097364 678.75756 l 1
 390.471 691.529 l 1
542.805 590.801 m 1
 542.196602 590.80295312 541.49641 590.7209219 540.69367 590.584203 c 0
 424.29767 566.630103 234.36267 572.089103 77.90667 564.158403 c 0
 61.15377 566.218953 33.40767 496.931803 42.67227 493.689603 c 1
 44.17227 478.662303 61.98377 488.111483 73.16247 487.601713 c 2
 90.85197 488.254057 l 1
 92.06486 290.359057 l 1
 65.03166 282.966477 l 1
 10.82266 270.093477 l 1
 14.1293 248.187277 16.28164 226.278077 33.18396 204.370777 c 1
 47.41446 199.626637 l 1
 127.54826 216.994837 162.84646 242.665737 210.98646 265.958637 c 1
 210.800913 259.882467 210.033335 235.540637 210.033335 235.540637 c 1
 213.420055 177.278937 l 1
 201.906355 112.220337 l 1
 265.589955 210.474237 l 1
 267.369255 229.683237 l 1
 281.574355 235.021127 313.304755 254.872737 348.541155 277.614837 c 1
 438.608555 226.203737 515.125155 210.930237 596.250155 183.368737 c 1
 624.043155 180.235927 678.894655 166.387337 616.572455 198.960537 c 1
 417.404455 322.106537 l 1
 440.260855 336.752037 461.279455 349.886837 475.636855 357.499137 c 0
 543.394655 403.735437 508.722755 413.398537 506.804855 434.751137 c 1
 493.252155 469.985537 l 1
 493.252155 469.985537 523.568555 493.623237 520.357655 492.346837 c 0
 468.043155 471.542137 372.877655 471.800937 325.413655 479.329237 c 0
 315.304255 480.932757 319.348225 480.056776 317.503495 485.012827 c 0
 314.149005 494.010877 302.021095 496.093927 298.438995 487.530407 c 0
 291.701695 476.301907 282.499495 460.612407 272.402895 443.212007 c 1
 270.986875 494.835007 l 1
 301.000575 494.040085 l 1
 302.244715 493.9600069 l 1
 369.272015 492.1846169 l 2
 414.073815 490.9873469 471.397015 510.6651169 480.383015 522.8037169 c 1
 480.383015 522.8037169 514.973815 548.9658169 519.002115 550.5752169 c 0
 529.031415 554.5830269 554.361515 589.4356169 543.386915 590.7549169 c 1
 543.38300875 590.7685888 l 2
 543.19941475 590.78812 543.00800875 590.7988622 542.80488375 590.7998388 c 2
 542.80488375 590.800815362 l 1
 542.805 590.801 l 1
217.512 492.863 m 1
 217.380164 483.20773 215.61454 475.2419 215.18192 458.5271 c 1
 146.75422 455.99585 l 1
 148.75031 490.34745 l 1
 217.512 492.863 l 1
425.502 419.143 m 1
 412.9854 392.3774 395.7188 369.5737 376.2676 348.5864 c 1
 354.0156 366.9204 342.5655 393.0473 332.1817 416.9009 c 1
 425.502 419.143 l 1
307.434 416.307 m 1
 299.05509 405.0463 293.4799 391.6019 292.6938 374.434 c 1
 302.02485 350.3451 313.7075 326.2485 328.3188 302.1586 c 1
 309.7309 285.2406 290.9829 268.4604 273.7192 250.4359 c 0
 271.83736 248.3441 270.25533 246.49449 268.75826 244.72106 c 1
 275.75826 320.22396 l 1
 273.15474 415.48376 l 1
 307.434 416.307 l 1
215.545 415.672 m 1
 215.239336 404.9454 214.994219 395.6232 214.662188 384.3146 c 1
 147.144588 385.54312 l 1
 147.593807 415.25402 l 1
 215.545 415.672 l 1
213.869 349.297 m 1
 213.353375 332.3898 213.268414 338.3146 212.79869 323.3497 c 1
 145.91779 305.0665 l 1
 146.652165 344.8282 l 1
 213.869 349.297 l 1
EndSplineSet
Validated: 524837
EndChar

StartChar: "+MLAw6jDV 92"
Encoding: 92 24460 91
Width: 957
Flags: W
LayerCount: 2
Fore
SplineSet
495.508 827.08 m 1
 490.40058 827.210859 486.06757 820.40715 483.0432 801.9042 c 1
 396.2444 673.4252 l 1
 375.6819 677.69082 l 2
 321.9915 689.71622 351.1819 654.47302 362.9924 629.14202 c 0
 373.9231 599.86762 376.3039 573.64982 407.2678 537.21042 c 1
 345.3049 509.64402 l 1
 309.3479 501.73777 l 1
 301.38306 502.313942 l 1
 358.42016 551.946742 l 1
 366.35961 565.448742 l 2
 373.32543 570.426282 301.94941 662.250542 294.00221 660.839342 c 1
 289.4983 641.222142 l 1
 61.3943 326.745142 l 1
 25.2263 286.432642 10.5818 263.577142 66.61696 298.047842 c 1
 201.73796 415.621842 l 1
 216.44496 213.783842 l 1
 222.33949 172.248642 l 1
 234.21349 125.594342 239.10409 160.927342 244.60709 189.087542 c 2
 245.456699 198.081682 l 1
 248.603179 196.739882 254.685219 195.843402 265.107099 195.605122 c 0
 328.213499 207.702822 391.350099 220.127622 455.963099 249.312122 c 1
 481.873299 280.710522 l 1
 579.584199 186.706622 l 1
 845.412199 162.556222 l 2
 885.757899 158.850172 916.246199 181.142122 859.396599 188.501522 c 0
 850.371209 189.673402 640.968599 246.378522 640.968599 246.378522 c 1
 512.029599 317.257422 l 1
 567.015899 383.878522 l 1
 551.095999 422.679322 l 1
 584.277599 433.800422 596.487599 442.507422 589.984699 449.058222 c 1
 546.484699 462.492822 492.705399 452.946892 438.972699 443.503532 c 1
 446.931679 459.597332 l 1
 598.007679 517.140332 l 1
 626.949079 476.441132 l 1
 655.654179 464.343432 671.872879 474.826872 678.288879 503.036832 c 0
 684.739079 516.716532 679.587709 536.369832 667.857279 559.407932 c 0
 648.942279 595.138432 605.357279 608.485032 568.109279 627.581732 c 1
 553.767479 618.289742 509.600479 631.322942 555.453079 576.970432 c 1
 568.460879 558.665732 l 1
 522.222579 548.517332 l 1
 494.835879 593.590532 l 1
 584.460879 686.469432 l 1
 599.171779 687.950882 604.970679 692.126662 601.527279 699.105132 c 0
 593.474549 721.800432 577.110279 739.854132 554.730379 754.549432 c 1
 534.341679 705.133432 l 1
 468.456879 637.001632 l 1
 453.546679 661.557332 l 1
 431.111179 666.211632 l 1
 521.267379 746.031932 l 1
 530.525189 766.335632 518.435349 788.808332 512.620899 810.642332 c 1
 512.620899 810.64526169 l 1
 506.495899 819.88256169 500.613099 826.94706169 495.505699 827.07886169 c 1
 495.505699 827.077885128 l 1
 495.508 827.08 l 1
256.133 819.021 m 1
 256.133 819.01807031 l 2
 254.68085 809.05713031 264.82538 807.38327031 251.55683 788.97707031 c 2
 146.88083 598.11907031 l 2
 140.49313 578.25577031 152.71579 580.39737031 172.85543 591.89837031 c 1
 314.08443 726.48037031 l 1
 325.59613 725.64443231 l 1
 343.20453 735.96183231 333.32758 747.83193231 325.5590206 759.58393231 c 1
 331.9242506 770.19623231 263.3979206 817.69623231 256.1332206 819.02143231 c 1
 256.1332206 819.02143231 l 1
 256.1332206 819.02143231 l 1
 256.133 819.021 l 1
290.873 493.176 m 1
 319.0566 429.9455 l 1
 371.5703 441.2287 l 1
 256.4493 314.4587 l 1
 268.963 447.0587 l 1
 268.158312 473.4103 l 1
 290.873 493.176 l 1
418.891 402.883 m 1
 484.3656 398.88886 l 1
 448.8265 352.00406 l 1
 405.5003 375.81656 l 1
 418.891 402.883 l 1
395.16 364.121 m 1
 431.5077 329.1542 l 1
 410.1347 300.955 l 1
 264.7167 221.3007 l 2
 263.67666 216.9716 252.1562 211.0507 246.203 205.9765 c 1
 253.8573 287.037 l 1
 255.11511 285.912 l 1
 301.82511 310.1298 348.63761 327.5858 395.16011 364.121 c 1
 395.16011 364.121 l 1
 395.16 364.121 l 1
EndSplineSet
Validated: 524837
EndChar

StartChar: "+MLAw6jDV 93"
Encoding: 93 12354 92
Width: 521
Flags: W
LayerCount: 2
Fore
SplineSet
234.322 828.734 m 1
 216.9392 821.55041 l 1
 218.30834 784.17931 l 1
 207.71654 737.93131 l 1
 193.99974 697.77701 l 1
 186.18919 669.71451 l 1
 176.41771 653.09931 l 1
 168.58959 651.96064 l 1
 76.41769 662.61494 l 1
 43.55439 630.97624 l 1
 78.26529 612.59534 l 1
 157.24969 595.09924 l 1
 156.634456 489.45524 l 1
 98.038756 429.39074 l 1
 55.986056 373.80094 l 1
 44.821956 328.03924 l 1
 102.749656 236.54124 l 1
 154.331656 251.70724 l 1
 223.812156 287.81664 l 1
 262.548456 251.81864 l 1
 312.483956 234.65064 l 1
 311.78669 256.76784 l 1
 289.15969 302.50024 l 1
 275.77879 331.53144 l 1
 317.43699 385.51584 l 1
 355.39789 446.05884 l 1
 359.02484 453.73072 l 1
 387.01894 426.92412 l 1
 404.07754 378.10772 l 1
 403.440821 299.40262 l 1
 382.550221 256.57252 l 1
 351.294321 224.52762 l 1
 387.979821 227.96121 l 1
 387.979821 227.96121 436.104821 240.44951 452.700521 257.36351 c 0
 467.155621 272.09491 473.757121 293.87031 477.237621 314.21311 c 0
 482.917311 347.41521 481.319651 383.19061 470.313791 415.02511 c 0
 462.329411 438.11981 429.093091 475.64421 429.093091 475.64421 c 1
 388.173191 505.66571 l 1
 404.026691 525.40401 l 1
 392.501291 570.94501 l 1
 361.622391 574.30829 l 1
 344.427091 571.35517 l 1
 332.073591 540.80827 l 1
 319.516991 519.21847 l 1
 257.602891 521.17941 l 1
 239.932991 517.65402 l 1
 241.136111 555.75952 l 1
 248.403691 590.65992 l 1
 282.700591 597.59547 l 1
 282.700591 597.59547 332.193791 602.73902 351.397891 616.74777 c 0
 362.711391 625.00265 374.491691 651.84737 374.491691 651.84737 c 1
 379.405751 676.52117 l 1
 291.997551 666.97234 l 1
 254.095251 665.56023 l 1
 274.606951 773.29423 l 1
 288.540551 803.96803 l 1
 234.322 828.734 l 1
288.492 477.744 m 1
 294.30841 477.744 l 1
 290.52521 452.1131 l 1
 280.37091 427.0272 l 1
 254.80641 396.4862 l 1
 247.0818 387.43542 l 1
 231.6189 402.57412 l 1
 223.4607 445.74992 l 1
 223.5524969 464.23042 l 1
 240.1676969 474.51952 l 1
 246.8747269 476.5371 l 1
 288.492 477.744 l 1
163.953 430.389 m 1
 174.1971 394.2445 l 1
 186.0252 358.223 l 1
 197.5525 332.7328 l 1
 182.9724 316.807 l 1
 144.3044 298.4242 l 1
 125.6657 293.78553 l 1
 101.1423 323.52573 l 1
 105.35714 350.25033 l 1
 130.89034 394.50423 l 1
 163.953 430.389 l 1
EndSplineSet
Validated: 524841
EndChar

StartChar: "+MLAw6jDV 94"
Encoding: 94 12356 93
Width: 553
Flags: W
LayerCount: 2
Fore
SplineSet
72.8848 738.943 m 1
 71.05863 726.736 l 1
 58.14653 638.7536 l 1
 50.31255 531.4886 l 1
 94.03135 397.6406 l 1
 183.22665 286.3206 l 1
 183.22665 286.3206 207.01275 312.4935 212.87895 328.7112 c 0
 224.02345 359.511 221.11528 426.6214 221.11528 426.6214 c 1
 181.97658 393.3636 l 1
 128.67968 527.3846 l 1
 127.832024 584.1092 l 1
 144.703124 664.0447 l 1
 72.8848 738.943 l 1
375.316 663.779 m 1
 386.1773 647.613 l 1
 412.3082 608.8767 l 1
 423.0875 569.1501 l 1
 428.2125 462.4241 l 1
 426.43516 371.1468 l 1
 450.51526 350.1741 l 1
 489.47616 357.33621 l 1
 504.80236 398.52171 l 1
 505.687126 449.68971 l 1
 502.212516 528.50421 l 1
 502.212516 528.50421 506.965446 595.28061 487.839516 619.15851 c 0
 462.616816 650.65171 375.318516 663.77761 375.318516 663.77761 c 1
 375.316 663.779 l 1
EndSplineSet
Validated: 524841
EndChar

StartChar: "+MLAw6jDV 95"
Encoding: 95 12358 94
Width: 445
Flags: W
LayerCount: 2
Fore
SplineSet
153.881 799.873 m 1
 109.5255 797.95894 l 1
 89.8849 717.36324 l 1
 157.2619 725.16402 l 1
 279.7129 698.98632 l 2
 280.80274 698.166008 301.9883 682.41892 324.0586 666.33982 c 0
 335.374 658.09568 346.6123 649.99512 355.0059 644.16992 c 0
 359.20317 641.25683 362.66996 638.92773 365.1973 637.35937 c 0
 366.46 636.583979 367.3975 636.01464 368.543 635.49023 c 0
 369.115266 635.216792 369.296906 634.739253 371.65238 634.693355 c 0
 371.948278 634.6855425 372.71097 634.693355 372.72465 634.693355 c 1
 372.72465 634.69530812 374.14164 635.034175 374.15043 635.056636 c 0
 374.15043 635.06054225 375.92094 636.128906 375.92777 636.128906 c 2
 375.92777 636.128906 377.44437 637.953126 377.44925 637.953126 c 0
 377.45315625 637.953126 378.154328 639.982426 378.154328 639.982426 c 2
 378.15628112 639.982426 378.2226874 641.578126 378.2226874 641.578126 c 1
 378.221710838 641.578126 378.1328436 642.399415 378.0410464 642.695316 c 0
 377.9502261 643.014652 377.8594054 643.287113 377.7812804 643.492191 c 0
 377.0224914 645.384771 376.7656604 645.430671 376.0840104 646.472661 c 0
 375.4004164 647.521491 374.5117404 648.847661 373.4101804 650.443361 c 0
 371.2099804 653.634771 368.2051004 657.909181 364.6445604 662.906261 c 0
 357.5234704 672.898451 348.2099604 685.766661 338.9511604 698.521461 c 0
 320.4345604 724.032161 302.1230604 749.013661 302.1230604 749.013661 c 1
 302.1230604 749.013661 301.5732554 750.017571 301.1445444 750.359361 c 0
 273.6084444 772.637661 204.0820444 793.597661 204.0820444 793.597661 c 1
 154.4355444 799.783211 l 1
 153.881 799.873 l 1
295.514 631.314 m 1
 295.51204688 631.2495469 l 1
 293.38118688 631.2495469 l 2
 255.28058688 630.1323569 179.08018688 627.7729869 179.08018688 627.7729869 c 1
 114.15638688 611.3491869 l 1
 43.00988688 600.3960869 l 1
 27.50598688 528.1284869 l 1
 121.10558688 529.0640339 l 1
 258.65058688 550.5660339 l 1
 313.42008688 548.2086139 l 1
 324.90638688 497.6324139 l 1
 288.65638688 354.2574139 l 1
 247.07048688 305.9898139 l 1
 217.54708688 284.6558139 l 1
 152.27948688 264.3081139 l 1
 88.54118688 249.3921139 l 1
 258.42618688 263.3784139 l 1
 258.42618688 263.3784139 326.83048688 311.6186139 349.00038688 345.9272139 c 0
 375.14978688 386.3950139 390.63808688 435.2573139 393.87338688 483.3302139 c 0
 395.88412688 513.2179139 393.64291788 546.3790139 377.67418688 571.7228139 c 0
 359.63898688 600.3458139 295.51398688 631.3126139 295.51398688 631.3126139 c 1
 295.51398688 631.313590462 l 1
 295.514 631.314 l 1
EndSplineSet
Validated: 524837
EndChar

StartChar: "+MLAw6jDV 96"
Encoding: 96 12360 95
Width: 425
Flags: W
LayerCount: 2
Fore
SplineSet
160.24 825.633 m 1
 151.59938 798.2385 l 1
 163.68338 778.385 l 1
 199.07988 730.0354 l 1
 255.20098 664.4221 l 1
 255.20098 664.4221 272.90898 667.46312 279.38458 673.06077 c 0
 287.27228 679.88011 294.05838 700.68777 294.05838 700.68777 c 1
 276.79468 744.72687 l 1
 276.79468 744.72687 256.98708 782.58137 241.39818 796.51787 c 0
 229.49388 807.15947 214.19118 813.80787 199.07978 818.96517 c 0
 186.64718 823.20833 160.23998 825.63314 160.23998 825.63314 c 1
 160.23998 825.63314 l 1
 160.24 825.633 l 1
237.938 631.613 m 1
 198.228 616.0876 l 1
 198.228 616.0876 181.4223 615.859084 173.1928 614.35518 c 0
 148.6528 609.86983 124.0629 603.48308 101.5287 592.77898 c 0
 89.9213 587.26433 69.5892 571.18518 69.5892 571.18518 c 1
 47.9974 551.32968 l 1
 34.1927 515.93128 l 1
 50.5872 496.94888 l 1
 111.8899 513.34148 l 1
 96.3469 449.46448 l 1
 96.3469 449.46448 63.5334 410.89908 56.6379 387.29648 c 0
 51.55489 369.89508 56.6379 332.91168 56.6379 332.91168 c 1
 51.45626 275.06988 l 1
 83.39376 249.16368 l 1
 106.70826 299.23398 l 1
 161.55986 333.04648 l 1
 161.55986 333.04648 191.69556 259.79648 219.80396 233.62068 c 0
 239.30196 215.46448 291.46806 198.22418 291.46806 198.22418 c 1
 331.17896 195.63238 l 1
 331.17896 195.63238 345.72286 218.85408 355.34496 228.44098 c 0
 361.91527 234.98395 377.80586 244.85308 377.80586 244.85308 c 1
 283.69646 281.97028 l 1
 252.61056 314.77888 l 1
 230.16526 352.76518 l 1
 230.16526 352.76518 203.38986 379.10988 186.14576 384.70658 c 0
 179.84596 386.75053 166.27276 384.70658 166.27276 384.70658 c 1
 118.79226 358.81598 l 1
 161.09306 449.46438 l 1
 195.63796 504.71828 l 1
 218.08326 534.06598 l 1
 256.93876 548.73978 l 1
 269.02276 576.36678 l 1
 224.13216 612.63238 l 1
 237.938 631.613 l 1
EndSplineSet
Validated: 524837
EndChar

StartChar: "+MLAw6jDV 97"
Encoding: 97 12362 96
Width: 530
Flags: W
LayerCount: 2
Fore
SplineSet
170.787 794.125 m 1
 170.787 794.125 181.0243 750.5703 182.6757 728.3516 c 0
 184.1923 707.9346 180.80461 666.959 180.80461 666.959 c 1
 58.66961 664.03322 l 1
 17.89421 582.17192 l 1
 175.88321 595.33012 l 1
 184.36759 498.85352 l 1
 75.65259 419.91802 l 1
 171.03349 308.77202 l 1
 226.83619 259.13722 l 1
 250.62719 455.00422 l 1
 338.95339 466.68972 l 1
 376.32639 409.68972 l 1
 342.35759 313.21122 l 1
 298.17789 270.82062 l 1
 391.61739 292.75222 l 1
 391.61739 292.75222 450.15449 351.09112 454.45719 389.22882 c 0
 457.95035 420.18392 442.69259 453.48862 422.18179 476.93582 c 0
 398.14859 504.41242 325.35559 528.09402 325.35559 528.09402 c 1
 240.43369 522.23855 l 1
 257.41809 592.41235 l 1
 388.21309 612.87135 l 1
 408.60179 665.48855 l 1
 257.41779 677.18975 l 1
 245.53109 764.89485 l 1
 170.787 794.125 l 1
424.732 609.221 m 1
 395.5943 588.9378 383.8502 558.2181 368.6812 529.553 c 1
 368.6812 529.553 416.4244 540.0833 436.6363 552.9417 c 0
 446.9351 559.49443 462.1051 579.2562 462.1051 579.2562 c 1
 453.06506 597.7904 439.6285 605.3314 424.7321 609.221 c 1
 424.7321 609.221 l 1
 424.732 609.221 l 1
187.771 431.619 m 1
 185.22412 368.0389 l 1
 146.15772 414.8123 l 1
 187.771 431.619 l 1
EndSplineSet
Validated: 524837
EndChar

StartChar: "+MLAw6jDV 98"
Encoding: 98 33 97
Width: 392
Flags: W
LayerCount: 2
Fore
SplineSet
223.426 756.871 m 2
 222.761938 756.8788125 222.09788 756.87685938 221.44162 756.8592812 c 0
 212.69455 756.6229532 205.16432 753.8016612 211.69162 741.2303812 c 0
 217.14865 730.7215812 211.385956 709.8768812 209.00998 698.2635812 c 0
 203.60373 671.8065812 190.38298 643.1522812 181.01978 617.8240812 c 0
 167.54318 581.3689812 147.70728 513.2670812 147.70728 513.2670812 c 1
 116.09988 406.2170812 l 1
 99.13308 319.6037812 l 1
 99.13308 319.6037812 101.69558 299.2932812 109.66828 297.3693812 c 0
 115.88898 295.8684012 124.88898 309.0548812 124.88898 309.0548812 c 1
 161.18198 391.5919812 l 1
 184.67608 442.7403812 l 1
 234.22688 546.5643812 l 1
 287.70148 648.7793812 l 1
 309.23268 692.9922812 l 1
 333.69658 703.0674812 335.51488 718.0479812 326.85178 723.2188812 c 0
 299.64868 739.4571812 270.94848 754.4659812 235.72878 756.0567812 c 0
 232.80105 756.1944762 228.07741 756.8136172 223.42608 756.8692812 c 1
 223.42608 756.870257762 l 1
 223.426 756.871 l 2
83.8984 248.904 m 1
 83.8984 248.904 66.1328 241.69209 60.0371 232.5036 c 0
 53.84667 223.1745 50.80272 209.612 49.5293 196.8083 c 0
 48.21387 183.5866 46.96094 167.3903 52.76563 157.0075 c 0
 57.7793 148.03875 67.49313 144.5368 75.40823 145.8903 c 0
 83.94534 147.34928 91.74903 156.1979 97.22273 165.7965 c 0
 104.31062 178.2262 109.57133 194.735 109.35753 210.8512 c 0
 109.226671 220.63929 101.27159 237.7848 101.27159 237.7848 c 1
 93.18761 243.04066 l 1
 83.8984 248.904 l 1
EndSplineSet
Validated: 524841
EndChar

StartChar: "+MLAw6jDV 99"
Encoding: 99 12398 98
Width: 451
Flags: W
LayerCount: 2
Fore
SplineSet
247.502 702.441 m 1
 228.9649 702.5064297 209.8008 699.59334 189.8536 692.93123 c 0
 117.921 666.35993 73.4896 616.52983 54.9686 544.78423 c 1
 49.68149 505.91903 l 1
 47.37973 445.85453 76.33679 389.22503 106.32209 332.71603 c 1
 116.84159 325.83322 127.32209 320.34303 137.36119 329.50314 c 0
 197.81429 386.60274 264.55619 458.26914 274.17719 506.82914 c 1
 274.17719 506.82914 269.61371 637.40714 267.70844 645.78814 c 1
 273.9018 662.02154 289.68984 650.10552 303.14394 645.014702 c 1
 317.64194 624.144602 338.88224 622.789102 341.22404 566.733502 c 1
 329.34124 458.062502 287.01894 384.341502 258.52484 294.735502 c 0
 255.49554 287.121242 239.95254 265.026502 234.90964 260.942502 c 1
 241.08444 264.348752 271.31494 279.652502 281.49944 284.501102 c 0
 330.17424 319.362402 362.69084 383.210102 399.11044 440.072102 c 0
 411.78234 460.374802 415.99134 485.486202 416.13194 512.894402 c 0
 419.80382 583.867102 372.78034 654.509402 331.63784 682.776402 c 0
 312.43864 691.305702 292.77164 697.610402 272.40544 700.567402 c 1
 272.40544 700.5791208 l 1
 264.22282 701.7666208 255.92694 702.4121308 247.50114 702.4424008 c 1
 247.50114 702.441424238 l 1
 247.502 702.441 l 1
234.91 260.941 m 1
 234.035 260.458578 233.63656 260.212484 233.85336 260.271078 c 0
 234.115079 260.3413905 234.488126 260.599203 234.91 260.941 c 1
180.426 623.658 m 1
 180.426 623.658 181.024633 537.9617 167.8869 497.953 c 0
 160.90155 476.6796 133.633 440.1659 133.633 440.1659 c 1
 122.6447 477.2997 119.9064 517.243 128.77948 561.1439 c 1
 131.17987 599.1273 162.20138 614.7464 180.42598 623.6595 c 1
 180.42598 623.658523438 l 1
 180.426 623.658 l 1
EndSplineSet
Validated: 524837
EndChar

StartChar: "+MLAw6jDV 100"
Encoding: 100 27770 99
Width: 930
Flags: W
LayerCount: 2
Fore
SplineSet
382.301 832.482 m 1
 371.8869 802.273 l 1
 395.8361 742.9195 l 1
 395.8361 742.9195 396.650553 729.8609 396.806803 727.2906 c 1
 363.550903 727.2906 l 1
 312.531403 718.95466 l 1
 290.658403 638.77106 l 1
 341.679903 632.51325 l 1
 402.375203 638.57966 l 1
 404.675983 602.70176 406.854693 569.70366 407.295123 567.94296 c 0
 407.612506 566.65976 405.245323 549.87656 402.154503 529.11676 c 1
 336.480703 529.401916 l 1
 299.025603 531.796446 l 1
 316.683803 592.948746 l 1
 269.037303 533.533746 l 1
 226.090003 532.535699 l 1
 242.748203 500.752499 l 1
 143.800903 377.371499 l 1
 57.359503 333.627399 l 1
 25.074303 329.459429 l 1
 22.998133 306.541429 l 1
 88.613333 232.590229 l 1
 127.142633 233.642959 l 1
 194.836033 345.079959 l 1
 264.752033 458.786959 l 1
 270.863363 447.136559 l 1
 330.234463 466.915859 l 1
 392.625063 467.201015 l 1
 388.283263 439.685415 383.345763 408.581915 383.345763 408.581915 c 1
 329.189563 309.650315 l 1
 212.540563 213.841715 l 1
 142.771063 155.517515 l 1
 282.324063 207.580015 l 1
 378.134563 274.242115 l 1
 441.671663 347.150315 l 1
 444.794713 356.253835 l 1
 590.593713 208.626835 l 1
 719.734713 178.421735 l 1
 884.296713 163.839735 l 1
 733.283713 223.208835 l 1
 617.679713 314.865035 l 1
 474.488713 467.598035 l 1
 547.894913 467.939832 l 1
 692.663913 508.560932 l 1
 755.158013 546.045332 l 1
 573.318013 528.488732 l 1
 609.345313 584.605932 l 1
 637.460513 637.715332 l 1
 578.104113 733.525832 l 1
 508.320913 727.281692 l 1
 492.795513 727.281692 l 1
 497.906843 767.902792 l 1
 478.127543 806.433992 l 1
 382.301 832.482 l 1
107.361 801.229 m 1
 59.4489 738.7515 l 1
 110.4841 687.7154 l 1
 211.5061 666.8892 l 1
 258.3713 691.8853 l 1
 244.8322 704.3833 169.8401 790.8169 169.8401 790.8169 c 1
 107.361 801.229 l 1
482.041 641.705 m 1
 551.0156 635.63273 l 1
 512.4863 546.07023 l 1
 502.0429 528.66203 l 1
 471.9824 528.66203 l 1
 473.95506 577.19133 l 1
 482.041 641.705 l 1
29.2422 615.854 m 1
 15.707 515.8804 l 1
 72.9863 502.3277 l 1
 142.7695 508.58942 l 1
 188.5898 530.46152 l 1
 165.6718 547.11772 l 1
 77.1542 595.02792 l 1
 29.2422 615.854 l 1
EndSplineSet
Validated: 524841
EndChar

StartChar: "+MLAw6jDV 101"
Encoding: 101 23550 100
Width: 786
Flags: W
LayerCount: 2
Fore
SplineSet
551.758 846.502 m 1
 554.09003 836.3125 l 1
 569.13493 769.6172 l 1
 571.32048 650.7382 l 1
 571.724777 628.2792 l 1
 494.035277 609.4804 l 1
 404.949377 598.082 l 1
 396.931797 555.3086 l 1
 434.488397 516.4375 l 1
 551.101397 545.6289 l 1
 572.997897 550.69726 l 1
 575.626807 429.36326 l 1
 563.062307 259.50426 l 1
 427.650307 255.34801 l 1
 407.537007 256.39489 l 1
 468.544807 221.18399 l 1
 595.442807 165.49939 l 1
 647.897907 192.96029 l 1
 636.485807 283.97489 l 1
 636.485807 489.87689 l 1
 639.892057 566.10349 l 1
 724.366657 585.61329 l 1
 740.737757 646.87699 l 1
 642.319757 642.72074 l 1
 643.030695 661.22464 l 1
 661.024795 821.06664 l 1
 551.758 846.502 l 1
191.887 836.473 m 1
 206.2874 824.1507 l 1
 234.8206 799.68 l 1
 248.6995 698.016 l 1
 273.639 708.7035 l 1
 326.5492 793.7406 l 1
 310.5258 831.0433 l 1
 191.887 836.473 l 1
455.471 699.479 m 1
 446.04522 697.45361 l 1
 332.02122 672.47311 l 1
 164.48222 640.03951 l 1
 110.05642 643.43209 l 1
 91.95482 624.08249 l 1
 73.00752 579.88909 l 1
 112.63052 554.80119 l 1
 182.62272 570.60979 l 1
 273.38642 590.53559 l 1
 418.16942 622.09809 l 1
 449.23782 662.28359 l 1
 455.471 699.479 l 1
298.727 585.707 m 1
 295.77583 582.36716 l 1
 272.52583 555.56446 l 1
 271.39888 472.55276 l 1
 263.85005 447.26366 l 1
 216.71915 483.85546 l 1
 136.00035 472.55276 l 1
 182.56965 453.13676 l 1
 213.98465 414.42586 l 1
 240.94945 375.70316 l 1
 196.80885 291.32226 l 1
 35.26185 176.21126 l 1
 55.16025 180.74251 l 1
 134.01575 209.22301 l 1
 273.78675 293.91051 l 1
 287.97225 314.33241 l 1
 334.04255 261.32851 l 1
 368.61095 267.30898 l 1
 362.46837 336.93788 l 1
 331.81797 381.22698 l 1
 358.11287 440.41248 l 1
 364.85701 487.34218 l 1
 365.97029 562.00038 l 1
 298.727 585.707 l 1
439.904 461.906 m 1
 438.13447 461.646234 l 1
 384.36497 456.779044 l 1
 384.36497 420.443144 l 1
 449.83957 392.365044 l 1
 505.88647 381.169744 l 1
 480.75947 442.593544 l 1
 439.904 461.906 l 1
EndSplineSet
Validated: 524809
EndChar

